<svg width="1287" height="617" viewBox="0 0 1287 617" fill="none" xmlns="http://www.w3.org/2000/svg">
<ellipse opacity="0.43" cx="643.501" cy="353.544" rx="642.728" ry="262.671" fill="#8FCAE7"/>
<path d="M413.667 223.87L916.066 480.34V356.588L413.667 106.751V223.87Z" fill="#8F8F8F"/>
<path d="M1066.67 405.775V287.319L916.066 356.589V480.198L1066.67 405.775Z" fill="#BCBCBC"/>
<path d="M916.065 356.588L1066.67 287.319L554.93 53.437L413.667 106.751L916.065 356.588Z" fill="#D9D9D9"/>
<path d="M727.782 403.287L839.792 351.84L475.543 175.243L354.127 214.84L727.782 403.287Z" fill="#D9D9D9"/>
<path d="M839.791 439.869V351.918L727.714 403.349V495.127L839.791 439.869Z" fill="#BCBCBC"/>
<path d="M354.126 301.87L727.715 495.128V403.271L354.126 214.936V301.87Z" fill="#8F8F8F"/>
<path d="M379.031 308.725L293.417 265.528V316.508L379.031 362.039V308.725Z" fill="#007BC7"/>
<path d="M338.559 249.184L293.417 265.528L379.031 308.724L420.671 290.823L338.559 249.184Z" fill="#D9EBF7"/>
<path d="M389.539 314.172L379.032 308.724V362.038L412.499 379.55V348.028L401.603 338.689L389.539 314.172Z" fill="#007BC7"/>
<path d="M389.539 314.173L379.032 308.724L420.671 290.823L431.568 296.661L389.539 314.173Z" fill="#D9EBF7"/>
<path d="M401.603 338.689L389.539 314.172L431.568 296.66L443.632 321.177L401.603 338.689Z" fill="#66AFDD"/>
<path d="M412.499 348.029L401.603 338.689L443.631 321.178L454.528 330.517L412.499 348.029Z" fill="#B2D7EE"/>
<path d="M454.528 330.517L412.499 348.029V379.55L454.528 362.038V330.517Z" fill="#429CD5"/>
<path d="M529.246 389.667L443.632 346.471V397.45L529.246 442.982V389.667Z" fill="#007BC7"/>
<path d="M488.774 330.126L443.632 346.471L529.246 389.667L570.886 371.766L488.774 330.126Z" fill="#D9EBF7"/>
<path d="M539.754 395.115L529.247 389.666V442.981L562.714 460.493V428.971L551.818 419.631L539.754 395.115Z" fill="#007BC7"/>
<path d="M539.754 395.115L529.247 389.667L570.886 371.766L581.782 377.603L539.754 395.115Z" fill="#D9EBF7"/>
<path d="M551.818 419.632L539.754 395.115L581.783 377.603L593.847 402.12L551.818 419.632Z" fill="#66AFDD"/>
<path d="M562.714 428.972L551.817 419.632L593.846 402.12L604.742 411.46L562.714 428.972Z" fill="#B2D7EE"/>
<path d="M604.743 411.459L562.714 428.971V460.493L604.743 442.981V411.459Z" fill="#429CD5"/>
<path d="M340.896 422.744L255.282 379.548V430.528L340.896 476.059V422.744Z" fill="#007BC7"/>
<path d="M300.424 363.204L255.282 379.548L340.896 422.744L382.536 404.843L300.424 363.204Z" fill="#D9EBF7"/>
<path d="M351.404 428.192L340.897 422.744V476.058L374.364 493.57V462.048L363.468 452.708L351.404 428.192Z" fill="#007BC7"/>
<path d="M351.404 428.192L340.897 422.744L382.536 404.843L393.432 410.68L351.404 428.192Z" fill="#D9EBF7"/>
<path d="M363.468 452.709L351.404 428.192L393.433 410.68L405.497 435.197L363.468 452.709Z" fill="#66AFDD"/>
<path d="M374.364 462.049L363.467 452.709L405.496 435.197L416.392 444.537L374.364 462.049Z" fill="#B2D7EE"/>
<path d="M416.393 444.536L374.364 462.048V493.57L416.393 476.058V444.536Z" fill="#429CD5"/>
<path d="M700.864 416.907V481.21L654.554 457.379V393.558L700.864 416.907Z" fill="#535353"/>
<path opacity="0.5" d="M719.153 526.649L684.26 479.798L661.133 533.441L719.153 526.649ZM587.172 475.256L675.339 513.268L679.345 503.977L591.178 465.965L587.172 475.256Z" fill="#275937"/>
<path d="M857.692 528.206L822.8 481.355L799.672 534.999L857.692 528.206ZM725.712 476.813L813.879 514.826L817.885 505.534L729.718 467.522L725.712 476.813Z" fill="#275937"/>
<path opacity="0.2" d="M747.951 606.037L713.059 559.186L689.931 612.83L747.951 606.037ZM615.971 554.644L704.138 592.657L708.144 583.365L619.977 545.353L615.971 554.644Z" fill="#275937"/>
<path opacity="0.5" d="M937.859 498.63L902.966 451.779L879.838 505.422L937.859 498.63ZM805.878 447.237L894.045 485.249L898.051 475.958L809.884 437.946L805.878 447.237Z" fill="#275937"/>
<path opacity="0.5" d="M1089.63 377.213L1054.74 330.362L1031.61 384.005L1089.63 377.213ZM957.647 325.82L1045.81 363.832L1049.82 354.541L961.653 316.529L957.647 325.82Z" fill="#275937"/>
<path d="M969.768 430.917L934.876 384.067L911.748 437.71L969.768 430.917ZM837.788 379.525L925.955 417.537L929.961 408.245L841.794 370.233L837.788 379.525Z" fill="#275937"/>
<path opacity="0.6" d="M1178.36 362.425L1143.46 315.575L1120.34 369.218L1178.36 362.425ZM1046.38 311.033L1134.54 349.045L1138.55 339.754L1050.38 301.741L1046.38 311.033Z" fill="#275937"/>
<path opacity="0.2" d="M199.243 346.86L164.351 300.01L141.223 353.653L199.243 346.86ZM67.2628 295.468L155.43 333.48L159.436 324.188L71.2686 286.176L67.2628 295.468Z" fill="#A90061"/>
<path d="M301.979 237.118L267.086 190.267L243.959 243.91L301.979 237.118ZM169.998 185.725L258.165 223.737L262.171 214.446L174.004 176.434L169.998 185.725Z" fill="#A90061"/>
<path opacity="0.5" d="M192.238 269.029L157.345 222.178L134.218 275.822L192.238 269.029ZM60.2572 217.637L148.424 255.649L152.43 246.357L64.263 208.345L60.2572 217.637Z" fill="#A90061"/>
<path opacity="0.5" d="M517.571 89.2389L482.679 42.3883L459.551 96.0314L517.571 89.2389ZM385.591 37.8463L473.758 75.8584L477.764 66.5671L389.597 28.555L385.591 37.8463Z" fill="#A90061"/>
<path opacity="0.6" d="M632.761 61.2199L597.868 14.3692L574.74 68.0124L632.761 61.2199ZM500.78 9.82728L588.947 47.8394L592.953 38.5481L504.786 0.536004L500.78 9.82728Z" fill="#A90061"/>
<path opacity="0.5" d="M363.467 177.189L328.574 130.338L305.447 183.981L363.467 177.189ZM231.486 125.796L319.653 163.808L323.659 154.517L235.492 116.505L231.486 125.796Z" fill="#A90061"/>
<path d="M480.991 149.17L446.098 102.319L422.971 155.962L480.991 149.17ZM349.01 97.777L437.177 135.789L441.183 126.498L353.016 88.4857L349.01 97.777Z" fill="#A90061"/>
</svg>
