<svg viewBox="0 0 121 27" fill="none" xmlns="http://www.w3.org/2000/svg">
  <path fill-rule="evenodd" clip-rule="evenodd"
    d="M4.62537 2.73795C4.53048 2.45467 4.34209 1.69901 3.49292 1.69901C2.45398 1.69901 2.17139 2.73795 2.17139 3.682C2.17139 4.62605 2.45467 5.57011 3.49292 5.57011C4.24789 5.57011 4.53117 5.09774 4.62537 4.43766H6.70256C6.70256 5.85339 5.57011 7.36401 3.58712 7.36401C1.22734 7.36401 0 5.75919 0 3.68269C0 1.4171 1.41642 0.000687205 3.58712 0.000687205C5.47591 0.000687205 6.51416 1.03962 6.70256 2.73864L4.62537 2.73795ZM17.0871 0.0941943H19.2585V5.38102H22.3739V7.17492H17.0871V0.0941943ZM34.1749 0.0941943H36.3463V7.17492H34.1749V0.0941943ZM49.1856 0.0941943H54.6608V1.9823H51.3569V2.83215H54.1891V4.43697H51.3569V7.17492H49.1856V0.0941943ZM65.5184 0.0941943H70.9936V1.9823H67.6898V2.83215H70.5219V4.43697H67.6898V7.17492H65.5184V0.0941943ZM83.1728 3.682C83.1728 2.07718 84.0213 1.69901 84.4943 1.69901C85.0609 1.69901 85.91 2.0765 85.91 3.682C85.91 5.19193 85.0616 5.57011 84.4943 5.57011C84.0213 5.57011 83.1728 5.19193 83.1728 3.682ZM81.0014 3.682C81.0014 5.75919 82.4171 7.36332 84.4943 7.36332C86.6657 7.36332 88.0814 5.7585 88.0814 3.682C88.0814 1.51062 86.6657 0 84.4943 0C82.4164 0 81.0014 1.51062 81.0014 3.682ZM99.8824 1.7939H100.921C101.771 1.7939 101.959 2.07719 101.959 2.54956C101.959 3.11613 101.487 3.21032 101.015 3.21032H99.8831L99.8824 1.7939ZM97.711 7.17492H99.8824V4.72025H101.11C101.958 4.72025 101.958 5.38102 102.052 6.04179C102.052 6.41927 102.148 6.79744 102.241 7.17424H104.413C104.224 6.79675 104.224 6.04179 104.13 5.66362C104.035 4.81445 103.752 4.153 103.091 3.8704C103.846 3.682 104.13 2.83146 104.13 2.1707C104.13 0.849163 103.091 0.0935071 101.864 0.0935071H97.7103L97.711 7.17492ZM116.309 1.9823H116.97C118.481 1.9823 118.669 3.20963 118.669 3.58712C118.669 4.24788 118.482 5.38033 117.064 5.38033H116.309V1.9823ZM114.138 7.17492H117.253C119.707 7.17492 120.841 5.75919 120.841 3.682C120.841 1.8881 119.991 0.0941943 117.631 0.0941943H114.138V7.17492ZM4.62537 22.3746C4.53048 22.1855 4.34209 21.4306 3.49292 21.4306C2.45398 21.4306 2.17139 22.3746 2.17139 23.3187C2.17139 24.2627 2.45467 25.2068 3.49292 25.2068C4.24789 25.2068 4.53117 24.7337 4.62537 24.0736H6.70256C6.70256 25.4908 5.57011 27 3.58712 27C1.22734 27 0 25.3952 0 23.3187C0 21.1473 1.41642 19.6367 3.58712 19.6367C5.47591 19.6367 6.51416 20.6749 6.70256 22.3746H4.62537ZM16.4264 19.8258H18.5977V22.2791H20.6742V19.8258H22.8456V26.8116H20.6742V24.0736H18.5977V26.8116H16.4264V19.8258ZM35.0241 24.3569L35.6849 22.1855L36.3456 24.3569H35.0241ZM32.0977 26.8116H34.2691L34.5524 25.8675H36.818L37.1013 26.8116H39.3669L36.818 19.8258H34.6466L32.0977 26.8116ZM48.9965 19.8258H51.1679L53.245 23.602V19.8258H55.3222V26.8116H53.245L51.0737 23.0354V26.8116H48.9965V19.8258ZM69.6721 22.3746C69.5779 22.1855 69.3888 21.4306 68.5389 21.4306C67.5007 21.4306 67.2174 22.3746 67.2174 23.3187C67.2174 24.2627 67.5007 25.2068 68.5389 25.2068C69.2953 25.2068 69.5786 24.7337 69.6721 24.0736H71.7486C71.7486 25.4908 70.6168 27 68.6345 27C66.2734 27 65.046 25.3952 65.046 23.3187C65.046 21.1473 66.4631 19.6367 68.6345 19.6367C70.5226 19.6367 71.5609 20.6749 71.7486 22.3746H69.6721ZM81.4724 19.8258H87.3265V21.619H83.6438V22.4688H86.949V24.1692H83.6438V25.0177H87.42V26.8116H81.4724V19.8258Z"
    fill="currentColor"></path>
</svg>