<svg xmlns="http://www.w3.org/2000/svg" xmlns:xlink="http://www.w3.org/1999/xlink" version="1.1" id="Layer_1" x="0px"
  y="0px" viewBox="0 0 155 33" style="enable-background:new 0 0 155 33;" xml:space="preserve">
  <style type="text/css">
    .st0 {
      fill: currentColor;
    }
  </style>
  <g>
    <g>
      <path class="st0"
        d="M30.6,20.5c5.7,0,10-4.3,10-10s-4.3-10-10-10s-10,4.3-10,10S24.9,20.5,30.6,20.5z M30.6,4.5    c3.3,0,5.8,2.7,5.8,5.9c0,3.3-2.5,5.9-5.8,5.9s-5.8-2.6-5.8-5.9C24.8,7.2,27.3,4.5,30.6,4.5z M51.8,20.5c4.5,0,7.4-2.8,7.4-7.6    V0.8h-4.1v12.4c0,2-1.3,3.3-3.4,3.3s-3.3-1.4-3.3-3.3V0.8h-4v12.1C44.4,17.6,47.2,20.5,51.8,20.5z M4,11.7h8.9v8.4H17V0.8h-4.1v7    H4v-7h-4.1v19.3H4V11.7z M113.8,20.5c5.7,0,10-4.3,10-10s-4.3-10-10-10s-10,4.3-10,10S108.1,20.5,113.8,20.5z M113.8,4.5    c3.3,0,5.8,2.7,5.8,5.9c0,3.3-2.5,5.9-5.8,5.9s-5.8-2.6-5.8-5.9C107.9,7.2,110.4,4.5,113.8,4.5z M87,11.7h8.9v8.4h4.1V0.8h-4.1v7    H87v-7h-4.1v19.3H87V11.7z M131.8,11.7h6V7.8h-6V4.7h7V0.8h-11.1v19.3h4.1V11.7z M143.9,0.8v19.3h4.1v-8.4h6V7.8h-6V4.7h7V0.8    C154.9,0.8,143.9,0.8,143.9,0.8z M69.1,20.1h4.1V4.7h5.6V0.8H63.4v3.9H69L69.1,20.1L69.1,20.1z M-0.1,32.5h149.9l4.1-4H4    L-0.1,32.5z">
      </path>
    </g>
  </g>
</svg>