<svg xmlns="http://www.w3.org/2000/svg" width="50" height="100" viewBox="0 0 50 100" fill="none">
  <g clip-path="url(#clip0_2218_423)">
    <path fill-rule="evenodd" clip-rule="evenodd"
      d="M0 0H50V100H0V0ZM25.0299 77.3608H25.8999V74.9508H25.0299V77.3608ZM28.9599 66.7208H29.8299V64.3108H28.9599V66.7208ZM13.1899 62.6508C13.1899 62.5608 13.6399 62.5608 13.7099 62.5608C14.1168 62.5608 14.3249 62.6105 14.509 62.6545C14.6552 62.6894 14.7863 62.7208 14.9899 62.7208C15.3599 62.7208 15.7099 62.5608 15.7799 62.2708C15.7999 62.2008 15.8599 62.1708 15.8899 62.2808C16.0699 62.9208 15.6099 63.2208 15.1699 63.2208C14.9193 63.2208 14.7262 63.1292 14.5037 63.0237C14.2912 62.9229 14.0519 62.8094 13.7099 62.7508C13.5952 62.7323 13.4942 62.7261 13.4125 62.7211C13.2733 62.7126 13.1899 62.7075 13.1899 62.6508ZM8.92712 64.9806C8.92429 64.9768 8.92186 64.9735 8.91989 64.9708C8.32989 65.3008 7.83989 64.8708 7.82989 64.5108C7.82989 64.4508 7.85989 64.4608 7.88989 64.4708C8.43989 64.7408 8.72989 64.1508 8.59989 63.5508C8.59403 63.5231 8.58655 63.4914 8.57821 63.4559C8.48694 63.0679 8.29187 62.2388 8.96989 61.5608C9.68989 61.9808 10.1799 61.2908 10.0599 60.9608C10.0299 60.8708 9.96989 60.8608 9.96989 60.9708C9.96989 61.2008 9.73989 61.3708 9.56989 61.3708C9.27989 61.3708 8.73989 61.0408 8.69989 60.5408C9.44989 60.0508 10.7299 60.2508 10.9799 61.1808C11.0099 61.3008 11.1499 61.2908 11.1399 61.1708C11.1394 61.1667 11.1388 61.1613 11.1381 61.1548C11.1254 61.0349 11.0716 60.5264 10.5499 60.2608C10.0599 60.0108 10.2399 59.6408 10.3699 59.5108C10.4199 59.4508 10.5199 59.4608 10.4899 59.5208C10.2999 59.8508 10.7099 60.0008 11.2799 59.9308C12.4799 59.7708 12.8799 60.2108 12.9399 60.5208C13.1999 60.5908 14.2199 61.1608 14.2199 61.3708C14.2199 61.4308 14.1599 61.5808 14.0599 61.6308C14.0599 61.6308 14.0899 62.0708 13.7699 62.3508C12.4899 61.5808 12.1399 62.3008 12.2699 62.8108C12.2699 62.8108 12.4899 63.0008 13.3499 63.0008C13.3499 63.0008 13.3099 63.3108 13.2399 63.4008C13.2399 63.4008 13.4399 63.6408 13.2999 63.8708C13.2999 63.8708 12.8599 63.5408 12.0999 63.5708C12.0999 63.5708 11.6099 64.3108 13.4199 64.6608C15.2399 65.0108 15.8099 66.7208 15.8099 67.6608C15.8099 67.7008 15.7899 67.7308 15.7499 67.7208C15.0351 67.5846 14.5095 67.8741 13.9396 68.1879C13.3375 68.5194 12.686 68.8781 11.7099 68.7908C11.8699 68.3408 11.6899 67.8708 11.6899 67.8708C11.5399 68.2708 11.1799 68.5308 10.9199 68.6708C10.2499 68.5208 9.79989 68.1908 9.69989 68.0008C9.69989 68.0008 10.4199 67.4108 9.94989 66.3308C9.94989 66.3308 9.49989 67.0508 8.56989 66.6608C8.48989 66.6208 8.49989 66.5708 8.55989 66.5508C9.78883 66.1509 9.03906 65.1326 8.92712 64.9806ZM12.9999 61.2408C12.6499 61.6308 12.0899 61.5408 11.9499 60.9008C12.6699 60.8608 12.9699 60.9308 12.9999 61.2408ZM34.2799 62.2708C34.3499 62.5608 34.6999 62.7208 35.0699 62.7208C35.2742 62.7208 35.4075 62.6892 35.5557 62.6541C35.7411 62.6102 35.9497 62.5608 36.3499 62.5608C36.4199 62.5608 36.8699 62.5608 36.8699 62.6508C36.8699 62.7134 36.7876 62.7172 36.6499 62.7236C36.5677 62.7274 36.4658 62.7321 36.3499 62.7508C36.0079 62.8094 35.7686 62.9229 35.5561 63.0237C35.3336 63.1292 35.1405 63.2208 34.8899 63.2208C34.4499 63.2208 33.9899 62.9208 34.1699 62.2808C34.1999 62.1708 34.2599 62.2008 34.2799 62.2708ZM42.1699 64.4508C42.1999 64.4408 42.2299 64.4308 42.2299 64.4908C42.2299 64.8708 41.7299 65.3008 41.1399 64.9508C41.1379 64.9535 41.1355 64.9568 41.1327 64.9606C41.0207 65.1126 40.2709 66.1309 41.4999 66.5308C41.5499 66.5508 41.5699 66.6008 41.4899 66.6408C40.5599 67.0308 40.1099 66.3108 40.1099 66.3108C39.6399 67.3908 40.3599 67.9808 40.3599 67.9808C40.2599 68.1808 39.8199 68.5008 39.1399 68.6508C38.8799 68.5208 38.5199 68.2508 38.3699 67.8508C38.3699 67.8508 38.1799 68.3208 38.3499 68.7708C37.3696 68.8636 36.7168 68.504 36.1125 68.1711C35.5456 67.8588 35.0215 67.5701 34.3099 67.7008C34.2699 67.7108 34.2499 67.6908 34.2499 67.6408C34.2499 66.7008 34.8299 64.9908 36.6399 64.6408C38.4499 64.2908 37.9599 63.5508 37.9599 63.5508C37.1999 63.5208 36.7599 63.8508 36.7599 63.8508C36.6199 63.6308 36.8199 63.3808 36.8199 63.3808C36.7499 63.2908 36.7099 62.9808 36.7099 62.9808C37.5699 62.9708 37.7999 62.7908 37.7999 62.7908C37.9299 62.2808 37.5699 61.5608 36.2999 62.3308C35.9899 62.0408 36.0099 61.6108 36.0099 61.6108C35.9099 61.5708 35.8499 61.4108 35.8499 61.3508C35.8499 61.1408 36.8699 60.5708 37.1299 60.5008C37.1999 60.2008 37.5899 59.7508 38.7899 59.9108C39.3499 59.9808 39.7599 59.8308 39.5699 59.5008C39.5299 59.4508 39.6399 59.4408 39.6899 59.4908C39.8299 59.6208 40.0099 59.9908 39.5099 60.2408C38.9599 60.5208 38.9199 61.0708 38.9199 61.1508C38.9099 61.2708 39.0499 61.2808 39.0799 61.1608C39.3299 60.2308 40.6099 60.0308 41.3599 60.5208C41.3199 61.0208 40.7799 61.3508 40.4899 61.3508C40.3199 61.3508 40.0899 61.1808 40.0899 60.9508C40.0899 60.8408 40.0299 60.8508 39.9999 60.9408C39.8699 61.2708 40.3599 61.9608 41.0899 61.5408C41.7639 62.2148 41.5751 63.0298 41.4832 63.4267C41.4742 63.4656 41.4661 63.5005 41.4599 63.5308C41.3299 64.1408 41.6199 64.7208 42.1699 64.4508ZM38.1099 60.9008C37.9699 61.5408 37.4099 61.6308 37.0599 61.2408C37.0899 60.9308 37.3999 60.8608 38.1099 60.9008ZM24.8199 50.5908C24.7699 50.5108 24.6999 50.3708 24.6999 50.2108C24.6999 49.9408 24.8799 49.8008 25.0299 49.8008C25.1799 49.8008 25.3599 49.9408 25.3599 50.2108C25.3599 50.3708 25.2999 50.5108 25.2399 50.5908C25.1299 50.7508 25.1499 50.8408 25.1999 50.8908C25.2499 50.9408 25.3399 50.9608 25.4999 50.8508C25.5799 50.8008 25.7199 50.7308 25.8799 50.7308C26.1499 50.7308 26.2899 50.9108 26.2899 51.0608C26.2899 51.2108 26.1499 51.3908 25.8799 51.3908C25.7199 51.3908 25.5799 51.3308 25.4999 51.2708C25.3399 51.1608 25.2499 51.1808 25.1999 51.2308C25.1514 51.2793 25.2251 51.8072 25.2844 52.2312L25.2899 52.2708C25.7399 52.3608 25.9599 52.7308 25.9599 52.9408C25.9599 53.4908 25.3699 53.8108 25.0299 53.9908L25.0208 53.9858C24.6699 53.7954 24.0999 53.486 24.0999 52.9408C24.0999 52.7308 24.3199 52.3708 24.7699 52.2708C24.8399 51.8308 24.9099 51.2808 24.8599 51.2308C24.8099 51.1808 24.7199 51.1608 24.5599 51.2708C24.4799 51.3208 24.3399 51.3908 24.1799 51.3908C23.9099 51.3908 23.7699 51.2108 23.7699 51.0608C23.7699 50.9108 23.9099 50.7308 24.1799 50.7308C24.3399 50.7308 24.4799 50.7908 24.5599 50.8508C24.7199 50.9608 24.8099 50.9408 24.8599 50.8908C24.9099 50.8408 24.9299 50.7508 24.8199 50.5908ZM24.3599 54.9408C24.3599 54.5708 24.6599 54.2708 25.0299 54.2708C25.3999 54.2708 25.6999 54.5708 25.6999 54.9408C25.6999 55.3108 25.3999 55.6108 25.0299 55.6108C24.6599 55.6108 24.3599 55.3108 24.3599 54.9408ZM29.1999 61.1908C29.1999 61.1908 27.6999 60.6808 25.0299 60.6808C22.3599 60.6808 20.8599 61.1908 20.8699 61.1908C20.8694 61.1553 20.8689 61.1203 20.8684 61.0857C20.8499 59.802 20.8397 59.0937 20.0899 59.2008C20.3035 58.6261 19.9377 58.2299 19.5267 57.7846C19.1294 57.3543 18.6899 56.8781 18.6899 56.1508C18.6899 55.1808 19.3799 55.0708 19.5799 55.0708C19.8921 55.0708 20.0175 55.1764 20.1378 55.2777C20.2487 55.371 20.3552 55.4608 20.5999 55.4608C20.6136 55.4608 20.6279 55.4597 20.6417 55.4587C20.6883 55.4553 20.7299 55.4522 20.7299 55.4908C20.7299 55.6608 20.5899 55.9508 20.3499 55.9508C20.1767 55.9508 20.0943 55.8571 20.0187 55.7711C19.9546 55.6981 19.8954 55.6308 19.7899 55.6308C19.6899 55.6308 19.5399 55.7208 19.5399 56.0408C19.5399 56.6708 19.9499 57.3608 20.4399 57.9008C20.5499 57.7508 20.6999 57.6508 20.8799 57.6508C21.1699 57.6508 21.4199 57.9508 21.4199 58.3208C21.4199 58.4608 21.3999 58.5508 21.3499 58.6708C21.5099 58.7608 21.6499 58.8108 21.7599 58.8108C21.9799 58.8108 22.3099 58.7208 22.3099 58.2408C22.3099 57.7378 21.9939 57.2636 21.659 56.7609C21.2815 56.1943 20.8799 55.5915 20.8799 54.8708C20.8799 54.2208 21.3199 53.5808 22.2199 53.5808C22.7223 53.5808 22.9162 53.8169 23.1031 54.0445C23.2771 54.2563 23.445 54.4608 23.8499 54.4608C23.8899 54.4608 23.9199 54.4808 23.9199 54.5108C23.9199 54.5708 23.7699 55.0608 23.3399 55.0608C23.0969 55.0608 22.9448 54.8469 22.7978 54.6403C22.6606 54.4474 22.5279 54.2608 22.3299 54.2608C22.1799 54.2608 21.9499 54.3508 21.9499 54.8908C21.9499 55.3108 22.1599 55.9908 22.4599 56.6508C22.5699 56.5408 22.7099 56.4608 22.8799 56.4608C23.2399 56.4608 23.4999 56.8008 23.4999 57.2208C23.4999 57.4808 23.3999 57.7308 23.2199 57.9008C23.4299 58.1708 23.6499 58.3908 23.9399 58.3908C24.5099 58.3908 24.7699 58.0608 24.7699 57.7008C24.7699 57.5324 24.6305 57.4092 24.4752 57.2719C24.2801 57.0995 24.0599 56.9049 24.0599 56.5708C24.0599 56.1608 24.3199 55.9308 24.5799 55.9308C24.7908 55.9308 24.9223 56.033 24.9872 56.0833C25.0084 56.0998 25.0225 56.1108 25.0299 56.1108C25.0373 56.1108 25.0514 56.0998 25.0726 56.0833C25.1375 56.033 25.2689 55.9308 25.4799 55.9308C25.7299 55.9308 25.9999 56.1608 25.9999 56.5708C25.9999 56.903 25.7823 57.0942 25.588 57.2648C25.4314 57.4024 25.2899 57.5267 25.2899 57.7008C25.2899 58.0608 25.5399 58.3908 26.1199 58.3908C26.4099 58.3908 26.6299 58.1708 26.8399 57.9008C26.6599 57.7408 26.5599 57.4808 26.5599 57.2208C26.5599 56.8108 26.8199 56.4608 27.1799 56.4608C27.3399 56.4608 27.4899 56.5408 27.5999 56.6508C27.8999 56.0008 28.1099 55.3108 28.1099 54.8908C28.1099 54.3508 27.8799 54.2608 27.7299 54.2608C27.5247 54.2608 27.3887 54.4518 27.2496 54.6471C27.1041 54.8516 26.9551 55.0608 26.7199 55.0608C26.2899 55.0608 26.1399 54.5708 26.1399 54.5108C26.1399 54.4708 26.1699 54.4608 26.2099 54.4608C26.6148 54.4608 26.7827 54.2563 26.9566 54.0445C27.1436 53.8169 27.3375 53.5808 27.8399 53.5808C28.7499 53.5808 29.1799 54.2208 29.1799 54.8708C29.1799 55.5915 28.7783 56.1943 28.4007 56.7609C28.0659 57.2636 27.7499 57.7378 27.7499 58.2408C27.7499 58.7208 28.0799 58.8108 28.2999 58.8108C28.3999 58.8108 28.5499 58.7608 28.7099 58.6708C28.6599 58.5608 28.6399 58.4608 28.6399 58.3208C28.6399 57.9508 28.8899 57.6508 29.1799 57.6508C29.3699 57.6508 29.5199 57.7508 29.6299 57.9008C30.1199 57.3608 30.5299 56.6708 30.5299 56.0408C30.5299 55.7108 30.3799 55.6308 30.2799 55.6308C30.1685 55.6308 30.1088 55.6997 30.0448 55.7736C29.971 55.8589 29.8914 55.9508 29.7199 55.9508C29.4799 55.9508 29.3399 55.6608 29.3399 55.4908C29.3399 55.4522 29.3815 55.4553 29.4281 55.4587C29.4419 55.4597 29.4562 55.4608 29.4699 55.4608C29.7145 55.4608 29.8211 55.371 29.932 55.2777C30.0523 55.1764 30.1777 55.0708 30.4899 55.0708C30.6899 55.0708 31.3799 55.1808 31.3799 56.1508C31.3799 56.8718 30.942 57.3474 30.5454 57.7783C30.1334 58.2258 29.7659 58.625 29.9799 59.2008C29.2154 59.0916 29.2099 59.8301 29.2001 61.162L29.1999 61.1908ZM18.6599 63.0508C18.8899 62.9808 19.4099 62.8308 20.1399 62.6708V64.6408H21.0099V62.5008C22.1199 62.3008 23.5099 62.1208 25.0299 62.1208C28.1499 62.1208 30.7799 62.8608 31.3999 63.0508C31.3899 62.7308 31.2699 62.4408 30.9799 62.3708C30.9399 62.3608 30.9399 62.3108 30.9699 62.2908C31.6099 61.8608 31.9599 62.6808 31.9699 62.7108C32.1999 62.6908 32.5499 62.7608 32.5499 63.0708C32.5499 64.0008 34.6699 64.5108 35.1599 64.5908C34.2899 64.9308 33.9299 66.0208 33.9299 66.0208C33.2999 65.3908 32.5599 64.8408 32.3999 64.8408C32.2399 64.8408 32.1699 65.0508 32.1599 65.1708C32.1499 65.2108 32.1199 65.2308 32.0899 65.1908C31.8254 64.7857 31.882 64.6335 31.9265 64.5138C31.9359 64.4887 31.9447 64.465 31.9499 64.4408C31.9699 64.3308 31.9399 63.9008 31.4599 63.9508V70.1408L31.7099 70.1908C31.7701 70.2017 32.0672 69.9759 32.4943 69.6511C32.8474 69.3826 33.2893 69.0466 33.7599 68.7208C34.711 68.0623 35.2607 68.3657 36.2503 68.9119C36.3428 68.9629 36.4391 69.0161 36.5399 69.0708C38.0899 69.9108 39.6499 69.1508 39.6499 69.1508C40.9899 70.1108 41.4399 72.8608 41.4399 72.8608C41.6999 72.9708 42.1399 73.0908 42.5599 73.0908C43.5699 73.0908 43.7599 72.4808 43.7599 72.1108C43.7599 71.3233 43.2642 70.7622 42.7702 70.2029C42.2792 69.6472 41.7899 69.0933 41.7899 68.3208C41.7899 67.9508 41.9599 66.4208 43.8499 66.4208H45.5399C46.1863 66.4208 46.3893 65.9944 46.4953 65.7716C46.5041 65.7531 46.5122 65.7361 46.5199 65.7208C46.5499 65.6508 46.6299 65.6908 46.5999 65.7508C46.5701 65.8154 46.5897 65.8973 46.6169 66.0112C46.6445 66.1265 46.6799 66.2746 46.6799 66.4708C46.6799 67.1008 46.3099 67.4808 45.6199 67.4808C45.3099 67.4808 45.0099 67.3908 44.9199 67.3308C44.8499 67.2908 44.8199 67.3608 44.8499 67.3908C45.1499 67.7408 45.1699 68.3908 45.0499 68.5508C45.0199 68.5908 44.9899 68.5808 44.9799 68.5508C44.8099 67.8908 44.1899 67.2608 43.3499 67.2608C42.3294 67.2608 42.3298 68.1147 42.3299 68.3348V68.3408C42.3299 68.921 42.7985 69.4312 43.3041 69.9817C43.8965 70.6268 44.5399 71.3274 44.5399 72.2608C44.5399 74.0208 42.6899 74.4008 41.6099 74.1208C41.6799 75.8808 43.6899 76.4808 43.7499 75.2208C43.7499 75.1708 43.7999 75.1508 43.8299 75.2308C44.0799 75.8508 43.9799 76.4008 43.1999 76.5708C43.1499 76.5908 43.1699 76.6208 43.2199 76.6508C43.8698 77.0591 43.6866 78.474 43.5843 79.2643C43.5638 79.4225 43.5466 79.5557 43.5399 79.6508C43.4799 80.4708 44.2999 80.3708 44.3699 80.3508C44.3999 80.3408 44.4299 80.3608 44.3799 80.4208C43.7999 81.1308 43.0799 80.4808 43.0799 80.4808C42.5399 80.6508 42.8799 81.1108 43.2399 81.3508C43.2899 81.3908 43.2899 81.4308 43.2299 81.4308C43.1499 81.4408 42.3099 81.5108 42.1599 80.8408C41.7899 81.2808 41.2399 81.1208 41.1299 81.0608C40.9699 80.9708 40.1899 80.6908 40.1099 81.5708C40.101 81.6241 40.0764 81.5985 40.0499 81.5711C40.0466 81.5676 40.0433 81.5641 40.0399 81.5608C39.4499 80.8108 40.0899 80.3508 40.4399 80.3008C40.4099 80.2608 39.9399 79.8608 39.5099 80.4108C39.4799 80.4508 39.4499 80.4508 39.4499 80.3808C39.3999 79.4308 40.1699 79.3508 40.6699 79.7608L40.67 79.7604C40.7003 79.6593 40.8589 79.1308 40.1099 79.1508C40.0899 79.1508 40.0499 79.1308 40.0899 79.0908C40.6787 78.4721 41.1579 79.0384 41.2692 79.17L41.2699 79.1708C41.5233 79.473 42.1474 79.3666 42.2342 79.3517L42.2399 79.3508C42.1144 77.3855 41.0327 77.0117 40.0966 76.6882C39.4657 76.4702 38.901 76.275 38.7399 75.6308C38.7299 75.5508 38.6899 75.5808 38.6799 75.6108C38.5699 76.0008 37.5899 76.0608 37.4099 75.2908C37.3999 75.2408 37.3999 75.2008 37.4399 75.2408C38.2799 76.0708 40.1699 73.4608 37.5899 71.3308C35.3899 69.5108 33.4199 70.5208 32.6699 71.1208C32.6299 71.3808 32.7899 71.4708 32.8899 71.5008C32.9299 71.5108 32.9399 71.5508 32.8799 71.5708C32.6699 71.6508 32.3799 71.6308 32.2399 71.4308C31.7599 71.7608 32.1699 72.1708 32.3599 72.2908C32.4099 72.3208 32.3899 72.3508 32.3499 72.3608C31.9099 72.4408 31.5599 71.9908 31.5399 71.7408L31.4699 71.7808V73.6508C31.4699 75.4837 30.017 76.2245 28.0109 77.2475C27.1056 77.7091 26.0877 78.2281 25.0399 78.9308C23.9967 78.2343 22.9822 77.7179 22.0787 77.258C20.0634 76.2323 18.5999 75.4874 18.5999 73.6508V71.7808L18.5299 71.7408C18.5099 72.0008 18.1499 72.4408 17.7199 72.3608C17.6799 72.3508 17.6599 72.3208 17.7099 72.2908C17.8999 72.1808 18.2999 71.7608 17.8299 71.4308C17.6899 71.6208 17.3999 71.6508 17.1899 71.5708C17.1299 71.5408 17.1399 71.5108 17.1799 71.5008C17.2799 71.4708 17.4399 71.3808 17.3999 71.1208C16.6499 70.5308 14.6799 69.5208 12.4799 71.3308C9.89989 73.4608 11.7899 76.0808 12.6299 75.2408C12.6599 75.2108 12.6699 75.2408 12.6599 75.2908C12.4799 76.0508 11.4999 76.0008 11.3899 75.6108C11.3899 75.5808 11.3499 75.5508 11.3299 75.6308C11.1689 76.2748 10.6028 76.4701 9.97078 76.688C9.0327 77.0115 7.94939 77.3851 7.82989 79.3508C7.83757 79.3508 7.85492 79.3529 7.87987 79.356C8.0499 79.3769 8.57317 79.4411 8.79989 79.1708C8.91989 79.0308 9.39989 78.4708 9.97989 79.0908C10.0099 79.1208 9.97989 79.1508 9.95989 79.1508C9.25507 79.132 9.36275 79.5989 9.39488 79.7383C9.39694 79.7472 9.39869 79.7548 9.39989 79.7608C9.89989 79.3508 10.6699 79.4308 10.6199 80.3808C10.6199 80.4608 10.5899 80.4508 10.5599 80.4108C10.1299 79.8608 9.65989 80.2608 9.62989 80.3008C9.98989 80.3508 10.6199 80.8108 10.0299 81.5608C9.99989 81.5908 9.95989 81.6308 9.95989 81.5708C9.88989 80.6908 9.09989 80.9808 8.93989 81.0608C8.82989 81.1208 8.27989 81.2808 7.90989 80.8408C7.75989 81.5108 6.91989 81.4408 6.83989 81.4308C6.77989 81.4308 6.76989 81.3908 6.82989 81.3508C7.19989 81.1108 7.52989 80.6508 6.98989 80.4808C6.98989 80.4808 6.26989 81.1308 5.68989 80.4208C5.62989 80.3508 5.66989 80.3408 5.69989 80.3508C5.76989 80.3708 6.58989 80.4708 6.52989 79.6508C6.52322 79.5557 6.50598 79.4225 6.4855 79.2643C6.38317 78.474 6.19999 77.0591 6.84989 76.6508C6.89989 76.6108 6.91989 76.5808 6.86989 76.5708C6.08989 76.4008 5.98989 75.8508 6.23989 75.2308C6.26989 75.1508 6.31989 75.1608 6.31989 75.2208C6.37989 76.4808 8.39989 75.8808 8.45989 74.1208C7.38989 74.3908 5.52989 74.0208 5.52989 72.2608C5.52989 71.3207 6.17495 70.62 6.76806 69.9757C7.27278 69.4275 7.73989 68.9201 7.73989 68.3408L7.73989 68.3348C7.73999 68.1147 7.74035 67.2608 6.71989 67.2608C5.87989 67.2608 5.25989 67.8908 5.08989 68.5508C5.08989 68.5808 5.04989 68.5908 5.01989 68.5508C4.89989 68.4008 4.91989 67.7408 5.21989 67.3908C5.24989 67.3508 5.20989 67.2908 5.14989 67.3308C5.05989 67.3908 4.75989 67.4808 4.44989 67.4808C3.75989 67.4808 3.38989 67.1008 3.38989 66.4708C3.38989 66.2703 3.42423 66.1201 3.45083 66.0037C3.47597 65.8937 3.49419 65.814 3.46989 65.7508C3.43989 65.6908 3.50989 65.6408 3.54989 65.7208C3.5596 65.7392 3.56998 65.7607 3.58144 65.7844C3.688 66.005 3.88884 66.4208 4.52989 66.4208H6.21989C8.10989 66.4208 8.27989 67.9408 8.27989 68.3208C8.27989 69.0933 7.79054 69.6472 7.29963 70.2029C6.80556 70.7622 6.30989 71.3233 6.30989 72.1108C6.30989 72.4708 6.48989 73.0908 7.50989 73.0908C7.91989 73.0908 8.35989 72.9708 8.62989 72.8608C8.62989 72.8608 9.08989 70.1008 10.4199 69.1508C10.4199 69.1508 11.9799 69.9108 13.5299 69.0708C13.6345 69.014 13.7342 68.959 13.8297 68.9062C14.8113 68.3636 15.3521 68.0646 16.2999 68.7208C16.748 69.034 17.1734 69.3568 17.5201 69.6198C17.9703 69.9613 18.2878 70.2021 18.3499 70.1908L18.5999 70.1408V63.9508C18.1199 63.9008 18.0899 64.3308 18.1099 64.4408C18.1155 64.4687 18.1256 64.4953 18.1362 64.5231C18.1825 64.6449 18.2384 64.792 17.9699 65.1908C17.9399 65.2208 17.8999 65.2108 17.8999 65.1708C17.8899 65.0508 17.8299 64.8408 17.6599 64.8408C17.4899 64.8408 16.7599 65.3908 16.1299 66.0208C16.1299 66.0208 15.7699 64.9208 14.8999 64.5908C15.3899 64.5108 17.5099 64.0008 17.5099 63.0708C17.5099 62.7608 17.8599 62.6908 18.0899 62.7108C18.0999 62.6808 18.4399 61.8608 19.0899 62.2908C19.1299 62.3108 19.1199 62.3608 19.0799 62.3708C18.7899 62.4308 18.6699 62.7308 18.6599 63.0508ZM13.9999 84.1008C13.9999 84.4108 14.1499 84.5608 14.3799 84.6508C14.3799 84.5408 14.7299 83.7808 17.0899 83.7708V84.8908C17.0899 86.1341 15.7635 85.8096 14.0045 85.3791C13.0614 85.1483 11.9939 84.8871 10.9399 84.8208C8.42989 84.6608 7.72989 85.3008 7.72989 85.3008L8.18989 82.7708C8.21989 82.6308 8.75989 82.2408 10.4899 82.2408C12.4745 82.2408 13.5123 82.6014 13.9373 82.7491C13.9599 82.757 13.9807 82.7642 13.9999 82.7708V84.1008ZM32.9699 84.9008V83.7808C35.3399 83.7808 35.6899 84.5408 35.6799 84.6508C35.9099 84.5508 36.0599 84.4008 36.0599 84.1008V82.7708C36.0834 82.7629 36.1093 82.7541 36.1377 82.7445C36.5792 82.594 37.6154 82.2408 39.5699 82.2408C41.2999 82.2408 41.8499 82.6308 41.8699 82.7708L42.3299 85.3108C42.3299 85.3108 41.6299 84.6708 39.1199 84.8308C38.0664 84.8971 36.9995 85.1568 36.0567 85.3864C34.297 85.8148 32.9699 86.138 32.9699 84.9008ZM35.4799 83.6208C34.8399 82.8808 29.8999 82.6308 25.0299 82.6308C20.1699 82.6308 15.2299 82.8908 14.5599 83.6208C14.5099 83.6708 14.4899 83.6108 14.4899 83.5708V80.9908C14.4899 80.2408 19.5899 79.8008 25.0199 79.8008C30.4499 79.8008 35.5499 80.2408 35.5499 80.9908V83.5708C35.5499 83.6208 35.5299 83.6808 35.4799 83.6208ZM20.1999 70.3408L20.6899 70.4708C20.6011 70.5664 20.5963 70.6854 20.5926 70.7767C20.5909 70.819 20.5894 70.8554 20.5799 70.8808C20.5799 70.8908 20.5899 70.8908 20.5999 70.8808C20.6499 70.8108 20.7999 70.6108 21.0799 70.6208C21.0908 70.6208 21.0958 70.6208 21.0964 70.6224C21.0969 70.6238 21.0944 70.6263 21.0899 70.6308C20.9999 70.6708 20.6899 70.8608 20.7899 71.2408C20.7899 71.2608 20.8099 71.2608 20.8199 71.2508C20.9399 71.0808 21.1599 71.0008 21.2499 70.9708L21.1599 71.6308C21.6699 71.7808 22.2299 71.4408 22.2799 70.8608L21.7099 70.7308C22.3299 70.2808 23.1599 69.9808 23.9299 69.9808C25.1499 69.9808 25.9299 71.3008 25.9299 72.0808C25.9299 72.2708 25.9099 72.5608 25.7599 72.7808C25.5299 73.1008 25.3599 73.0308 25.2799 72.9508C25.2499 72.9308 25.2399 72.9408 25.2499 72.9708C25.3499 73.3908 25.8999 73.3708 25.9699 73.1608C25.9899 73.1008 26.0099 73.1208 26.0199 73.1408C26.1563 73.6159 26.5052 73.6285 26.9041 73.6429C27.3532 73.6591 27.8657 73.6777 28.2099 74.3608C28.1799 74.3808 27.8599 74.5508 27.6699 74.4308C27.2999 74.2008 27.1099 74.4308 27.0399 74.5908C27.0299 74.6208 27.0399 74.6308 27.0599 74.6208C27.4599 74.5308 27.6199 74.7908 27.6399 74.8608C27.3399 74.7308 26.9199 74.8808 27.1099 75.4008C27.1199 75.4308 27.1399 75.4308 27.1499 75.4008C27.2799 75.0408 27.5899 75.1708 27.6199 75.1908C27.4399 75.2808 27.1899 75.6308 27.6299 75.9208C27.6499 75.9308 27.6599 75.9208 27.6599 75.9008C27.6199 75.6408 27.7399 75.4508 27.9299 75.4508L27.9387 75.4508C28.045 75.4511 28.3036 75.4518 28.4299 75.1408C28.6099 75.4508 28.9699 75.3308 29.1399 75.2708C29.1599 75.2508 29.1599 75.2308 29.1299 75.2208C28.8999 75.1508 28.5999 74.9908 28.8499 74.8108C28.8499 74.8108 29.3399 74.9908 29.5199 74.5208C29.5399 74.4908 29.5299 74.4708 29.4999 74.4908C29.4976 74.4916 29.4926 74.4938 29.4852 74.4971C29.3978 74.5367 28.9814 74.7252 28.8799 74.3008C28.8677 74.2467 28.8561 74.1865 28.8439 74.1235C28.7864 73.825 28.7163 73.4616 28.5099 73.3708C28.7899 73.2508 28.8799 73.0308 28.6699 72.7308C28.6599 72.7108 28.6299 72.6808 28.6299 72.7308C28.5999 73.4208 27.1499 72.8508 27.1199 71.8808C28.1399 72.1408 29.1499 71.8908 29.1499 70.8708C29.1499 70.2918 28.8183 69.9013 28.5469 69.5817C28.3589 69.3604 28.1999 69.1731 28.1999 68.9808C28.1999 68.6408 28.4899 68.5608 28.6299 68.5608C29.0199 68.5608 29.4699 69.0308 29.5499 69.4108C29.5499 69.4308 29.5699 69.4308 29.5899 69.4108C29.7299 69.2108 29.7599 68.8908 29.6399 68.8008C29.6099 68.7708 29.6399 68.7308 29.6799 68.7608C29.7699 68.8308 30.5399 68.7608 30.5399 68.2308C30.5399 68.134 30.5254 68.0574 30.5136 67.9949C30.5035 67.9411 30.4953 67.8978 30.4999 67.8608C30.5099 67.7908 30.3999 67.7708 30.3699 67.8508L30.3669 67.8598C30.3258 67.9838 30.2406 68.2408 29.8699 68.2408C29.7168 68.2408 29.511 68.2041 29.2963 68.1659C29.0624 68.1243 28.8181 68.0808 28.6199 68.0808C27.9099 68.0808 27.6499 68.6208 27.6499 68.9908C27.6499 69.4159 27.8727 69.6643 28.0929 69.9097C28.3077 70.1491 28.5199 70.3857 28.5199 70.7808C28.5199 71.3708 27.6899 71.5608 27.0899 71.0008C26.9399 70.3108 26.7999 69.8108 26.4099 69.2308C25.4408 69.5454 24.9627 69.274 24.5321 69.0295C24.2785 68.8855 24.0413 68.7508 23.7299 68.7508C23.3546 68.7508 22.9161 69.1129 22.4776 69.4751C22.0981 69.7885 21.7185 70.1019 21.3799 70.1808L21.4799 69.4408L21.5599 69.4208L21.5399 68.8008C21.5399 68.8008 21.3699 69.2008 21.3499 69.2608C21.3299 69.3108 21.3099 69.3108 21.2899 69.2708C21.2199 69.0908 21.0599 68.7308 21.0599 68.7308C21.0599 68.7308 21.0499 69.2108 21.0499 69.3208C21.0499 69.3508 21.0199 69.3608 20.9999 69.3308L20.6299 68.7908C20.6299 68.7908 20.7199 69.2108 20.7699 69.4408C20.7799 69.4708 20.7499 69.4808 20.7299 69.4608L20.2299 68.9808L20.4899 69.6308C20.4999 69.6608 20.4799 69.6808 20.4499 69.6608C20.3599 69.6008 19.8999 69.2908 19.8999 69.2908C19.8999 69.2908 20.1199 69.6108 20.2799 69.8408C20.2999 69.8708 20.2899 69.8908 20.2499 69.8808C19.9199 69.7608 19.6899 69.6708 19.6899 69.6708C19.6899 69.6708 19.8999 69.8708 20.1299 70.1008C20.1499 70.1208 20.1499 70.1508 20.0999 70.1508H19.5899L20.1599 70.4008L20.1999 70.3408ZM21.9759 75.0234C22.1281 75.0784 22.2577 75.1253 22.3999 74.9508C22.4745 75.2773 22.8016 75.2731 22.9588 75.2711C22.9701 75.2709 22.9805 75.2708 22.9899 75.2708C22.9899 75.2708 22.9999 75.2608 22.9899 75.2508C22.8299 75.1508 22.7699 75.0308 22.7699 74.9408C22.7699 74.7108 23.2399 74.4308 23.3799 74.4308C23.4391 74.4308 23.4823 74.4559 23.532 74.4848C23.5998 74.5242 23.6799 74.5708 23.8299 74.5708C23.9399 74.5708 24.0699 74.5208 24.1899 74.3808C24.2099 74.3608 24.1999 74.3508 24.1799 74.3608C23.8599 74.4408 23.6699 74.1308 23.6699 73.5808C23.6699 72.5392 24.2106 72.3376 25.4249 71.885L25.4899 71.8608C25.5099 71.8508 25.5099 71.8208 25.4799 71.8308C25.2399 71.8808 24.9099 71.5008 25.2399 71.1008C25.0199 70.9508 24.7499 70.8308 24.5399 70.8308C23.6831 70.8308 23.0134 71.6767 22.7949 71.9528C22.7711 71.9828 22.7526 72.0061 22.7399 72.0208C22.6199 72.1608 22.3699 72.4008 22.2199 72.1908C22.1999 72.1608 22.1899 72.1708 22.1899 72.2008C22.1899 72.6208 22.5299 72.6308 22.6699 72.5508C22.6799 72.5408 22.6899 72.5408 22.6899 72.5608C22.6399 73.0008 22.9099 73.7408 22.9199 73.7608C22.8899 73.8008 22.4799 74.1808 22.1999 74.1808C22.1149 74.1808 22.0599 74.1067 21.9992 74.0249C21.9241 73.9238 21.8402 73.8108 21.6799 73.8108C21.5899 73.8108 21.4999 73.8508 21.4099 73.9508C21.3999 73.9608 21.3999 73.9808 21.4299 73.9808C21.6499 73.9908 21.7799 74.1208 21.7299 74.3208C21.4499 74.0908 21.0399 74.1308 21.0499 74.6508C21.0499 74.6708 21.0699 74.6808 21.0799 74.6608C21.2699 74.3808 21.5699 74.5808 21.5999 74.6108C21.3999 74.6408 21.0499 74.8708 21.3599 75.2908C21.3699 75.3008 21.3799 75.3008 21.3799 75.2808C21.3799 75.1908 21.4299 74.9608 21.6999 74.9608C21.8025 74.9608 21.8926 74.9933 21.9759 75.0234ZM25.7099 64.7008C25.3199 64.6808 25.0599 64.7608 25.0799 64.8908C25.2699 65.0908 25.5199 65.0708 25.7099 64.7008ZM24.8799 65.6408C24.8399 65.6308 24.5399 65.6008 24.2599 65.6708C23.8099 65.7908 23.5799 65.6208 23.5399 65.4608C23.5299 65.4108 23.4899 65.4108 23.4799 65.4608C23.3799 65.8208 23.6499 66.0708 23.8899 66.0708C24.0644 66.0708 24.1632 66.0107 24.2798 65.94C24.4105 65.8606 24.5634 65.7678 24.8699 65.7308C24.9199 65.7208 24.9199 65.6508 24.8799 65.6408ZM17.5022 78.6684C17.2213 78.7658 16.9777 78.8503 16.7299 78.5308C16.5899 79.1708 15.8799 79.1108 15.7099 79.0808C15.6899 79.0808 15.6899 79.0608 15.6999 79.0508C15.9299 78.9108 16.0999 78.7008 16.0999 78.4808C16.0999 78.0808 15.3299 77.5608 14.9699 77.5608C14.8829 77.5608 14.8045 77.6054 14.7126 77.6576C14.5827 77.7316 14.4259 77.8208 14.1799 77.8208C13.9599 77.8208 13.7099 77.7308 13.4999 77.4708C13.4899 77.4508 13.4899 77.4408 13.5199 77.4408C13.5256 77.4417 13.5316 77.4428 13.5379 77.4439C13.7295 77.4768 14.1769 77.5538 14.3899 76.7308C14.6199 75.8408 14.6899 75.2008 14.2999 74.8608C13.9761 74.5846 12.6369 74.0728 11.8103 73.7568C11.7688 73.741 11.7286 73.7256 11.6899 73.7108C11.6499 73.6908 11.6499 73.6608 11.6899 73.6508C11.9099 73.5908 12.1299 73.4508 12.1599 73.1808C12.1799 73.0108 12.1399 72.7708 11.9499 72.6608C12.3399 72.2308 13.1299 71.9308 13.5499 71.9308C14.5271 71.9308 15.411 72.7365 16.0992 73.3637C16.5378 73.7635 16.8969 74.0908 17.1499 74.0908C17.2299 74.0908 17.3299 74.0608 17.4299 73.9208C17.4499 73.8908 17.4699 73.8908 17.4699 73.9408C17.4699 74.5908 17.1199 74.6508 16.9399 74.6508C16.8299 74.6508 16.7199 74.6208 16.6399 74.5708C16.6199 74.5608 16.6099 74.5708 16.6099 74.5908C16.6099 74.6039 16.6118 74.6227 16.6139 74.6439C16.6167 74.6713 16.6199 74.7026 16.6199 74.7308C16.6199 75.5008 15.8199 76.3408 15.8199 76.3408C16.1899 76.7208 17.0999 77.3608 17.3499 77.0208C17.3622 77.0063 17.3789 76.9827 17.3998 76.9533C17.5668 76.7182 18.0012 76.1066 18.5699 76.7108C18.5899 76.7308 18.5699 76.7608 18.5299 76.7608C18.1699 76.7608 17.8899 77.0008 17.9899 77.3708C18.5099 76.9608 19.2199 77.0308 19.2199 77.9808C19.2199 78.0208 19.1799 78.0308 19.1599 78.0008C18.8099 77.5108 18.2799 77.8408 18.1999 77.9108C18.5599 77.9708 19.1899 78.3908 18.6399 79.1408C18.6099 79.1708 18.5899 79.1708 18.5899 79.1408C18.5399 78.6408 18.2399 78.5608 17.9899 78.5608C17.8125 78.5608 17.652 78.6164 17.5022 78.6684ZM34.3699 79.0508C34.3899 79.0608 34.3799 79.0808 34.3599 79.0808C34.1899 79.1108 33.4799 79.1708 33.3199 78.5308C33.0647 78.8514 32.818 78.7653 32.5379 78.6674C32.39 78.6157 32.2327 78.5608 32.0599 78.5608C31.8199 78.5608 31.5199 78.6508 31.4599 79.1408C31.4499 79.1708 31.4299 79.1708 31.4099 79.1408C30.8699 78.3908 31.4899 77.9608 31.8499 77.9108C31.7799 77.8408 31.2399 77.5108 30.8999 78.0008C30.8799 78.0308 30.8399 78.0208 30.8399 77.9808C30.8399 77.0308 31.5499 76.9608 32.0699 77.3708C32.1699 77.0008 31.8899 76.7608 31.5299 76.7608C31.4799 76.7608 31.4699 76.7408 31.4899 76.7108C32.0677 76.0969 32.507 76.73 32.6678 76.9619C32.6851 76.9869 32.6992 77.0072 32.7099 77.0208C32.9699 77.3508 33.8799 76.7208 34.2399 76.3408C34.2399 76.3408 33.4399 75.5008 33.4399 74.7308C33.4399 74.7026 33.4431 74.6713 33.4458 74.6439C33.448 74.6227 33.4499 74.6039 33.4499 74.5908C33.4499 74.5708 33.4399 74.5608 33.4199 74.5708C33.3399 74.6208 33.2199 74.6508 33.1199 74.6508C32.9399 74.6508 32.5899 74.5908 32.5899 73.9408C32.5899 73.8908 32.6099 73.8908 32.6299 73.9208C32.7199 74.0608 32.8299 74.0908 32.9099 74.0908C33.1629 74.0908 33.522 73.7635 33.9606 73.3637C34.6488 72.7365 35.5327 71.9308 36.5099 71.9308C36.9299 71.9308 37.7199 72.2308 38.1199 72.6608C37.9299 72.7808 37.8899 73.0108 37.9099 73.1808C37.9399 73.4508 38.1599 73.5908 38.3799 73.6508C38.4199 73.6608 38.4199 73.6908 38.3799 73.7108C38.3281 73.7306 38.2737 73.7514 38.217 73.773C37.3867 74.09 36.0788 74.5893 35.7699 74.8608C35.3699 75.2008 35.4499 75.8408 35.6799 76.7308C35.8942 77.5589 36.3553 77.4758 36.5361 77.4432C36.5409 77.4424 36.5455 77.4416 36.5499 77.4408C36.5799 77.4308 36.5899 77.4508 36.5699 77.4708C36.3599 77.7308 36.1099 77.8208 35.8899 77.8208C35.6462 77.8208 35.4935 77.7333 35.3652 77.6598C35.2723 77.6066 35.1923 77.5608 35.0999 77.5608C34.7299 77.5608 33.9699 78.0808 33.9699 78.4808C33.9699 78.7008 34.1499 78.9008 34.3699 79.0508ZM21.1699 66.5808C21.2299 66.6108 21.3999 66.6808 21.4499 66.6108L21.6299 66.3508L22.0499 66.5508L22.2499 66.2708L21.8899 66.1508L23.5899 63.7608C23.6299 63.7008 23.6099 63.3408 23.5999 63.2108C23.4799 63.2408 23.1299 63.3408 23.0899 63.4008L21.3599 65.7708L21.1299 65.4708L20.9299 65.7508L21.2499 66.0908L21.0899 66.3108C20.7299 66.0908 20.3999 66.3508 20.2899 66.4708C20.2799 66.4808 20.2899 66.4808 20.2999 66.4808C20.4099 66.4508 20.8099 66.3608 20.8099 66.6308C20.3699 66.5008 20.1999 66.7908 20.1499 66.8908C20.1399 66.9108 20.1499 66.9108 20.1599 66.9108C20.2399 66.8808 20.5199 66.8108 20.6399 66.9308L20.2899 67.4208C20.2099 67.5208 20.5799 67.7908 20.6599 67.6908L21.1199 67.0508C21.1199 67.0508 22.6199 67.8508 22.9899 68.0808C23.0199 67.7708 23.1299 67.4808 23.3099 67.2408C22.8499 67.1208 21.9099 66.8108 21.9099 66.8108C21.8699 66.8908 21.7099 66.9508 21.5999 66.9508C21.3599 66.9508 21.1999 66.6808 21.1599 66.5908C21.1499 66.5808 21.1599 66.5708 21.1699 66.5808ZM27.9399 66.6608C27.6499 66.7608 27.5199 66.4408 27.5199 66.2208C27.5199 66.1858 27.525 66.134 27.5313 66.0697C27.5592 65.7844 27.611 65.2543 27.3499 64.8708C27.4399 64.7208 27.9899 64.4808 28.1599 64.4508C28.2199 64.4408 28.2199 64.4008 28.1599 64.3708C28.0473 64.3218 27.8629 64.3232 27.6933 64.3244C27.5165 64.3258 27.3558 64.3269 27.3099 64.2708C27.3099 64.2708 27.2099 63.5108 27.1799 63.4908C27.1499 63.4708 26.4699 63.8308 26.4699 63.8308C26.3918 63.8256 26.2974 63.6874 26.1952 63.5379C26.1011 63.4003 26.0005 63.2531 25.8999 63.1908C25.8499 63.1608 25.8199 63.1808 25.8399 63.2308C25.9099 63.3808 26.0299 63.9708 25.9599 64.1308C25.3499 64.0708 25.1499 64.3008 25.1099 64.4708C24.9599 64.5108 24.3899 64.8308 24.3899 64.9508C24.3899 64.9908 24.4299 65.0708 24.4799 65.1008C24.4799 65.1008 24.4499 65.3108 24.6299 65.4708C25.0199 65.2008 25.5299 65.2508 25.4399 65.7508C25.4399 65.7508 25.3499 65.8608 24.8699 65.8608C24.8699 65.8608 24.8899 66.0308 24.9299 66.0808C24.9299 66.0808 24.8199 66.2108 24.8999 66.3408C24.8999 66.3408 25.3299 66.1308 25.5599 66.1908C25.6499 66.4308 25.5699 66.7508 24.8799 66.8608C24.0199 67.0008 23.5499 67.2408 23.4599 68.1808C24.0003 68.1324 24.3781 68.3312 24.7769 68.5412C24.8725 68.5915 24.9693 68.6424 25.0699 68.6908C25.8499 69.0508 26.7099 68.5408 26.7099 68.5408C26.5199 68.3708 26.4799 67.8708 26.7899 67.6408C26.9499 67.9608 27.2999 67.9908 27.5299 67.8308C27.5499 67.8108 27.5499 67.7808 27.5299 67.7708C27.1599 67.5708 27.1099 67.2208 27.2899 66.8508C27.4799 67.1308 27.9199 66.9108 27.9599 66.6708C27.9699 66.6608 27.9499 66.6508 27.9399 66.6608Z"
      fill="currentColor"></path>
  </g>
  <defs>
    <clipPath id="clip0_2218_423">
      <rect width="50" height="100" fill="white"></rect>
    </clipPath>
  </defs>
</svg>