<svg width="265" height="265" viewBox="0 0 265 265" fill="none" xmlns="http://www.w3.org/2000/svg">
<rect width="265" height="265" fill="#C8BEFF"/>
<path d="M62.458 226.876V45.5716H91.802L91.278 75.7016H91.54C96.78 56.0516 114.072 43.4756 139.748 43.4756C176.69 43.4756 200.008 68.8896 200.008 107.928C200.008 149.848 176.428 177.096 139.224 177.096C113.548 177.096 96.78 165.568 91.278 148.8H91.016C91.278 157.446 91.802 170.808 91.802 176.048V226.876H62.458ZM133.46 152.992C155.992 152.992 170.664 135.7 170.664 108.714C170.664 83.8236 156.254 67.5796 132.936 67.5796C108.57 67.5796 92.326 84.0856 91.802 110.024V116.836C91.802 138.844 108.308 152.992 133.46 152.992Z" fill="#787AFF"/>
</svg>
