<svg xmlns="http://www.w3.org/2000/svg" width="2336" height="1283" viewBox="0 0 2336 1283" fill="none">
    <g clip-path="url(#clip0_2080_704)">
        <rect width="2336" height="1283" fill="#050037" />
        <path
            d="M2047 162C2059.73 162 2071.94 156.943 2080.94 147.941C2089.94 138.939 2095 126.73 2095 114C2095 101.27 2089.94 89.0606 2080.94 80.0589C2071.94 71.0571 2059.73 66 2047 66L2047 114L2047 162Z"
            fill="#E0DEFC" />
        <path fill-rule="evenodd" clip-rule="evenodd"
            d="M1337.16 781.641L1274.33 808.846L1228.81 856.605C1228.5 856.83 1228.21 857.068 1227.93 857.319C1226.79 858.359 1226.12 859.532 1225.97 860.755L1204.5 916L2337 1282V1281.35L2339 1282V558L1750.22 723.415L1696.86 745.276L1634.94 752.186L1551.72 746.424L1419.36 784.402L1337.16 781.641Z"
            fill="#5D5886" />
        <path
            d="M1204.5 916L1225.97 860.755C1226.12 859.532 1226.79 858.36 1227.93 857.319C1233.73 852 1247.78 852.661 1251.93 858.459L1266.5 884.597C1273 896.597 1278 880 1278 880L1284 871C1289 864.5 1296.5 860.755 1296.5 860.755C1309.5 857.319 1307.21 859.251 1313.5 858.541L1324 858.459C1328 858.541 1334.16 858.739 1337.32 860.375L1349.76 866.767C1352.39 868.121 1355.88 868.832 1359.42 868.732L1436.52 866.8C1440.21 866.701 1443.78 867.461 1446.44 868.898L1475.42 884.539C1481.62 887.893 1491.69 887.166 1496.2 883.053L1536.51 846.318C1537.83 845.113 1539.7 844.155 1541.95 843.51L1576.61 833.732C1582 832.213 1588.49 832.89 1592.56 835.384L1606.85 844.105C1608.43 845.08 1609.54 846.269 1610.07 847.557L1625.08 884.292C1626.22 887.083 1630.03 889.263 1634.95 889.957L1709.68 900.495C1712.11 900.842 1714.62 900.793 1717.02 900.363L2337 795V1282L1204.5 916Z"
            fill="#201D5A" />
        <path fill-rule="evenodd" clip-rule="evenodd"
            d="M194.5 42L-3 0L-2.99991 1284L1199.5 915.5C1199.56 915.426 1199.39 915.225 1199 914.905V834.735L1182.09 752.344L1119.88 718.213L1050.54 691.994L966.916 531.622L896.661 496.467L801.702 476.697L769.066 451.427L695.652 423.965L689.769 423.347L665.869 379.194C665.195 377.969 664.229 376.811 663.029 375.719L606.905 325.564C604.944 323.827 603.685 321.874 603.187 319.839L591.008 269.701C590.481 267.451 589.017 265.316 586.733 263.463L538.778 224.313C537.695 223.419 536.788 222.476 536.085 221.466L508.184 182.035C504.32 176.574 204.893 42 194.5 42Z"
            fill="#5D5886" />
        <path fill-rule="evenodd" clip-rule="evenodd"
            d="M194.5 42L-3 0L-2.99991 1284L724.051 1061.11L1199.5 915.5L1191.22 905V875.848C1191.22 867.5 1182.49 860.987 1168.52 859.367C1159.7 858.342 1152.25 855.086 1148.44 850.589L1135.67 835.514C1130.15 829.001 1117.33 825.364 1104.48 826.67L1089.31 828.224C1078.62 829.315 1067.75 826.984 1061.21 822.207L987.4 768.334C985.958 767.276 984.277 766.334 982.416 765.507L909.199 733.256L901.958 712.105C901.109 709.623 899.118 707.306 896.19 705.403L838.016 667.544C836.553 666.6 835.323 665.541 834.357 664.416L797.409 621.592C796.824 620.914 796.326 620.219 795.945 619.491L665.869 379.194C665.195 377.969 664.229 376.811 663.029 375.719L606.905 325.564C604.944 323.827 603.685 321.874 603.187 319.839L591.008 269.701C590.481 267.451 589.017 265.316 586.733 263.463L538.778 224.313C537.695 223.419 536.788 222.476 536.085 221.466L508.184 182.035C504.32 176.574 204.893 42 194.5 42Z"
            fill="#3D3A6D" />
        <path
            d="M10.1951 589.342L474.235 572.035C483.754 571.688 492.972 573.952 498.827 578.101L585.667 639.694C591.102 643.546 599.448 645.794 608.306 645.794H658.842C667.7 645.794 676.048 648.042 681.483 651.893L759.824 707.353C766.971 712.411 778.921 714.577 790.121 712.874L830.028 706.775C838.916 705.419 848.404 706.494 855.611 709.651L982.416 765.507C984.277 766.334 985.958 767.276 987.4 768.334L1061.21 822.207C1067.75 826.984 1078.62 829.315 1089.31 828.224L1104.48 826.67C1117.33 825.364 1130.15 829.001 1135.67 835.514L1148.44 850.589C1152.25 855.086 1159.7 858.342 1168.52 859.367C1182.49 860.987 1191.22 867.5 1191.22 875.848V905L1199 915L-0.5 1283V589.342H10.1951Z"
            fill="#201D5A" />
        <rect y="916" width="2339" height="366" fill="#3D3A6D" />
        <path d="M497 1286L1199 915H1205L1779 1286H497Z" fill="#C8C3F0" />
    </g>
    <defs>
        <clipPath id="clip0_2080_704">
            <rect width="2336" height="1283" fill="white" />
        </clipPath>
    </defs>
</svg>