<svg width="1690" height="833" viewBox="0 0 1690 833" fill="none" xmlns="http://www.w3.org/2000/svg">
<rect width="1690" height="833" fill="#C8C3F0"/>
<path d="M357.761 233.814V196.518H362.523V233.814H357.761ZM372.723 233.814V209.781H368.018V205.814H372.723V203.036C372.723 196.914 376.464 193.4 382.302 193.4C384.456 193.4 386.213 193.797 387.233 194.137V198.161C386.213 197.821 384.796 197.481 382.869 197.481C379.298 197.481 377.257 199.465 377.257 203.036V205.814H387.687V209.781H377.257V233.814H372.723ZM414.129 245.604C412.542 245.604 410.898 245.208 410.104 244.867V241.07C410.785 241.296 412.145 241.637 413.562 241.637C416.623 241.637 417.983 240.163 420.591 233.814H419.4L406.817 205.814H412.145L422.348 229.223H422.461L431.474 205.814H436.065L424.955 234.325C421.611 242.997 419.457 245.604 414.129 245.604ZM452.629 234.268C443.956 234.268 438.458 228.656 438.458 219.871C438.458 211.028 443.956 205.36 452.629 205.36C461.301 205.36 466.799 211.028 466.799 219.871C466.799 228.656 461.301 234.268 452.629 234.268ZM452.629 230.187C458.524 230.187 462.265 226.162 462.265 219.871C462.265 213.522 458.524 209.441 452.629 209.441C446.734 209.441 442.993 213.522 442.993 219.871C442.993 226.162 446.734 230.187 452.629 230.187ZM485.086 234.268C477.774 234.268 473.296 229.903 473.296 223.102V205.814H477.83V222.308C477.83 227.126 481.004 230.187 486.333 230.187C492.851 230.187 497.045 225.822 497.045 218.454V205.814H501.58V233.814H497.045C497.159 231.944 497.272 228.43 497.272 225.596H497.215C496.025 230.867 492.057 234.268 485.086 234.268ZM531.207 233.814L522.875 205.814H527.806L534.268 229.053H534.381L542.203 205.814H546.681L554.22 229.053H554.333L561.022 205.814H565.386L557.054 233.814H551.499L544.244 211.482H544.074L536.592 233.814H531.207ZM578.893 234.268C572.545 234.268 568.521 231.037 568.521 225.766C568.521 221.798 571.298 218.397 578.78 218.397H590.173V216.356C590.173 211.538 587.339 209.214 581.614 209.214C576.456 209.214 573.622 211.142 573.622 214.939C573.622 215.109 573.622 215.506 573.679 215.96H569.484C569.427 215.563 569.371 214.769 569.371 214.259C569.371 208.704 574.132 205.36 581.727 205.36C589.946 205.36 594.708 209.441 594.708 216.753V233.814H590.173C590.23 232.511 590.343 229.903 590.4 227.183H590.343C589.38 231.49 585.865 234.268 578.893 234.268ZM579.8 230.414C586.149 230.414 590.173 227.183 590.173 222.081V221.684H579.177C574.586 221.684 572.772 223.045 572.772 225.766C572.772 228.6 575.379 230.414 579.8 230.414ZM602.368 233.814V205.814H606.903L606.789 213.352H606.846C608.376 208.478 612.288 205.36 618.976 205.36C626.345 205.36 630.709 209.611 630.709 216.3V233.814H626.175V217.263C626.175 212.502 623.454 209.441 617.446 209.441C611.041 209.441 606.903 213.352 606.903 220.041V233.814H602.368ZM649.458 234.041C642.656 234.041 639.765 229.733 639.765 223.555V209.781H635.117V205.814H638.858C639.765 205.814 640.105 205.36 640.218 203.886L640.445 199.465H644.3V205.814H654.446V209.781H644.3V223.272C644.3 227.523 645.66 230.073 649.854 230.073C651.782 230.073 653.595 229.733 654.219 229.507V233.361C653.369 233.701 651.725 234.041 649.458 234.041ZM687.688 234.041C680.886 234.041 677.996 229.733 677.996 223.555V209.781H673.348V205.814H677.089C677.996 205.814 678.336 205.36 678.449 203.886L678.676 199.465H682.53V205.814H692.676V209.781H682.53V223.272C682.53 227.523 683.891 230.073 688.085 230.073C690.012 230.073 691.826 229.733 692.45 229.507V233.361C691.599 233.701 689.956 234.041 687.688 234.041ZM710.816 234.268C702.144 234.268 696.645 228.656 696.645 219.871C696.645 211.028 702.144 205.36 710.816 205.36C719.488 205.36 724.986 211.028 724.986 219.871C724.986 228.656 719.488 234.268 710.816 234.268ZM710.816 230.187C716.711 230.187 720.452 226.162 720.452 219.871C720.452 213.522 716.711 209.441 710.816 209.441C704.921 209.441 701.18 213.522 701.18 219.871C701.18 226.162 704.921 230.187 710.816 230.187ZM758.968 234.268C749.558 234.268 746.611 229.847 746.611 224.462H750.805C750.805 228.203 753.073 230.414 758.911 230.414C764.693 230.414 767.47 228.656 767.47 225.652C767.47 224.519 767.13 223.442 765.713 222.761C764.409 222.138 761.462 221.798 758.004 221.458C753.413 221.061 750.635 220.494 748.935 219.247C747.405 218.114 746.611 216.073 746.611 214.032C746.611 208.761 751.429 205.36 758.911 205.36C767.3 205.36 770.814 209.044 770.814 215.336H766.62C766.563 211.142 764.069 209.214 759.081 209.214C754.263 209.214 751.146 210.972 751.146 213.749C751.146 214.883 751.316 216.243 752.959 216.923C754.32 217.49 757.097 217.83 760.782 218.227C765.146 218.68 767.3 219.077 769.227 220.154C771.098 221.231 772.005 223.385 772.005 225.482C772.005 230.98 767.47 234.268 758.968 234.268ZM804.135 218.624V220.721H782.199C782.482 226.673 786.11 230.414 791.608 230.414C796.313 230.414 799.544 228.033 799.94 224.349H804.135C803.851 230.414 798.92 234.268 791.551 234.268C783.106 234.268 777.664 228.713 777.664 220.041C777.664 211.085 783.049 205.36 791.438 205.36C799.43 205.36 804.135 210.291 804.135 218.624ZM799.94 217.433V217.093C799.94 212.162 796.88 209.214 791.551 209.214C786.563 209.214 783.219 212.105 782.369 217.433H799.94ZM836.295 218.624V220.721H814.359C814.643 226.673 818.27 230.414 823.769 230.414C828.473 230.414 831.704 228.033 832.101 224.349H836.295C836.012 230.414 831.081 234.268 823.712 234.268C815.266 234.268 809.825 228.713 809.825 220.041C809.825 211.085 815.21 205.36 823.599 205.36C831.591 205.36 836.295 210.291 836.295 218.624ZM832.101 217.433V217.093C832.101 212.162 829.04 209.214 823.712 209.214C818.724 209.214 815.38 212.105 814.529 217.433H832.101ZM870.207 234.041C863.405 234.041 860.514 229.733 860.514 223.555V209.781H855.866V205.814H859.607C860.514 205.814 860.854 205.36 860.968 203.886L861.195 199.465H865.049V205.814H875.195V209.781H865.049V223.272C865.049 227.523 866.409 230.073 870.604 230.073C872.531 230.073 874.345 229.733 874.968 229.507V233.361C874.118 233.701 872.474 234.041 870.207 234.041ZM881.633 233.814V194.534H886.167V207.514C886.167 209.044 886.054 212.389 886.054 213.409H886.111C887.641 208.534 891.552 205.36 898.241 205.36C905.609 205.36 909.974 209.611 909.974 216.3V233.814H905.439V217.263C905.439 212.502 902.719 209.441 896.71 209.441C890.305 209.441 886.167 213.522 886.167 220.608V233.814H881.633ZM942.943 218.624V220.721H921.007C921.29 226.673 924.918 230.414 930.416 230.414C935.121 230.414 938.352 228.033 938.749 224.349H942.943C942.66 230.414 937.728 234.268 930.36 234.268C921.914 234.268 916.472 228.713 916.472 220.041C916.472 211.085 921.857 205.36 930.246 205.36C938.238 205.36 942.943 210.291 942.943 218.624ZM938.749 217.433V217.093C938.749 212.162 935.688 209.214 930.36 209.214C925.372 209.214 922.027 212.105 921.177 217.433H938.749ZM965.745 233.814V205.814H970.28L970.166 213.919H970.223C971.527 209.044 974.417 205.36 980.426 205.36C986.717 205.36 990.062 209.555 990.062 216.3C990.062 218.227 989.892 220.267 989.778 221.288H985.64C985.754 220.437 985.867 219.02 985.867 217.263C985.867 212.105 983.94 209.441 979.349 209.441C973.624 209.441 970.28 214.429 970.28 221.401V233.814H965.745ZM996.967 202.243V196.518H1001.84V202.243H996.967ZM997.137 233.814V205.814H1001.67V233.814H997.137ZM1019.84 233.814L1007.31 205.814H1012.64L1022.67 229.45H1022.84L1032.93 205.814H1037.8L1025.28 233.814H1019.84ZM1066.75 218.624V220.721H1044.81C1045.1 226.673 1048.73 230.414 1054.22 230.414C1058.93 230.414 1062.16 228.033 1062.56 224.349H1066.75C1066.47 230.414 1061.54 234.268 1054.17 234.268C1045.72 234.268 1040.28 228.713 1040.28 220.041C1040.28 211.085 1045.66 205.36 1054.05 205.36C1062.05 205.36 1066.75 210.291 1066.75 218.624ZM1062.56 217.433V217.093C1062.56 212.162 1059.49 209.214 1054.17 209.214C1049.18 209.214 1045.83 212.105 1044.98 217.433H1062.56ZM1073.57 233.814V205.814H1078.11L1077.99 213.919H1078.05C1079.36 209.044 1082.25 205.36 1088.25 205.36C1094.55 205.36 1097.89 209.555 1097.89 216.3C1097.89 218.227 1097.72 220.267 1097.61 221.288H1093.47C1093.58 220.437 1093.7 219.02 1093.7 217.263C1093.7 212.105 1091.77 209.441 1087.18 209.441C1081.45 209.441 1078.11 214.429 1078.11 221.401V233.814H1073.57ZM1122.13 233.814V209.781H1117.43V205.814H1122.13V203.036C1122.13 196.914 1125.88 193.4 1131.71 193.4C1133.87 193.4 1135.63 193.797 1136.65 194.137V198.161C1135.63 197.821 1134.21 197.481 1132.28 197.481C1128.71 197.481 1126.67 199.465 1126.67 203.036V205.814H1137.1V209.781H1126.67V233.814H1122.13ZM1165.59 218.624V220.721H1143.66C1143.94 226.673 1147.57 230.414 1153.07 230.414C1157.77 230.414 1161 228.033 1161.4 224.349H1165.59C1165.31 230.414 1160.38 234.268 1153.01 234.268C1144.56 234.268 1139.12 228.713 1139.12 220.041C1139.12 211.085 1144.51 205.36 1152.9 205.36C1160.89 205.36 1165.59 210.291 1165.59 218.624ZM1161.4 217.433V217.093C1161.4 212.162 1158.34 209.214 1153.01 209.214C1148.02 209.214 1144.68 212.105 1143.83 217.433H1161.4ZM1181.66 234.268C1175.31 234.268 1171.28 231.037 1171.28 225.766C1171.28 221.798 1174.06 218.397 1181.54 218.397H1192.94V216.356C1192.94 211.538 1190.1 209.214 1184.38 209.214C1179.22 209.214 1176.38 211.142 1176.38 214.939C1176.38 215.109 1176.38 215.506 1176.44 215.96H1172.25C1172.19 215.563 1172.13 214.769 1172.13 214.259C1172.13 208.704 1176.89 205.36 1184.49 205.36C1192.71 205.36 1197.47 209.441 1197.47 216.753V233.814H1192.94C1192.99 232.511 1193.11 229.903 1193.16 227.183H1193.11C1192.14 231.49 1188.63 234.268 1181.66 234.268ZM1182.56 230.414C1188.91 230.414 1192.94 227.183 1192.94 222.081V221.684H1181.94C1177.35 221.684 1175.53 223.045 1175.53 225.766C1175.53 228.6 1178.14 230.414 1182.56 230.414ZM1216.24 234.041C1209.44 234.041 1206.55 229.733 1206.55 223.555V209.781H1201.9V205.814H1205.64C1206.55 205.814 1206.89 205.36 1207 203.886L1207.23 199.465H1211.08V205.814H1221.23V209.781H1211.08V223.272C1211.08 227.523 1212.44 230.073 1216.64 230.073C1218.56 230.073 1220.38 229.733 1221 229.507V233.361C1220.15 233.701 1218.51 234.041 1216.24 234.041ZM1238.89 234.268C1231.58 234.268 1227.1 229.903 1227.1 223.102V205.814H1231.63V222.308C1231.63 227.126 1234.81 230.187 1240.14 230.187C1246.65 230.187 1250.85 225.822 1250.85 218.454V205.814H1255.38V233.814H1250.85C1250.96 231.944 1251.08 228.43 1251.08 225.596H1251.02C1249.83 230.867 1245.86 234.268 1238.89 234.268ZM1263.31 233.814V205.814H1267.84L1267.73 213.919H1267.79C1269.09 209.044 1271.98 205.36 1277.99 205.36C1284.28 205.36 1287.62 209.555 1287.62 216.3C1287.62 218.227 1287.45 220.267 1287.34 221.288H1283.2C1283.32 220.437 1283.43 219.02 1283.43 217.263C1283.43 212.105 1281.5 209.441 1276.91 209.441C1271.19 209.441 1267.84 214.429 1267.84 221.401V233.814H1263.31ZM1319.75 218.624V220.721H1297.82C1298.1 226.673 1301.73 230.414 1307.23 230.414C1311.93 230.414 1315.16 228.033 1315.56 224.349H1319.75C1319.47 230.414 1314.54 234.268 1307.17 234.268C1298.72 234.268 1293.28 228.713 1293.28 220.041C1293.28 211.085 1298.67 205.36 1307.06 205.36C1315.05 205.36 1319.75 210.291 1319.75 218.624ZM1315.56 217.433V217.093C1315.56 212.162 1312.5 209.214 1307.17 209.214C1302.18 209.214 1298.84 212.105 1297.99 217.433H1315.56ZM1326.01 241.24V238.632C1328.45 238.292 1329.35 236.819 1329.41 233.928V233.814H1327.37V227.353H1332.24V232.171C1332.24 237.952 1330.37 240.673 1326.01 241.24ZM368.191 327.268C358.782 327.268 355.834 322.847 355.834 317.462H360.029C360.029 321.203 362.296 323.414 368.134 323.414C373.916 323.414 376.693 321.656 376.693 318.652C376.693 317.519 376.353 316.442 374.936 315.761C373.632 315.138 370.685 314.798 367.227 314.458C362.636 314.061 359.859 313.494 358.158 312.247C356.628 311.114 355.834 309.073 355.834 307.032C355.834 301.761 360.652 298.36 368.134 298.36C376.523 298.36 380.037 302.044 380.037 308.336H375.843C375.786 304.142 373.292 302.214 368.304 302.214C363.486 302.214 360.369 303.972 360.369 306.749C360.369 307.883 360.539 309.243 362.182 309.923C363.543 310.49 366.32 310.83 370.005 311.227C374.369 311.68 376.523 312.077 378.45 313.154C380.321 314.231 381.228 316.385 381.228 318.482C381.228 323.98 376.693 327.268 368.191 327.268ZM413.358 311.624V313.721H391.422C391.705 319.673 395.333 323.414 400.831 323.414C405.536 323.414 408.767 321.033 409.164 317.349H413.358C413.075 323.414 408.143 327.268 400.775 327.268C392.329 327.268 386.887 321.713 386.887 313.041C386.887 304.085 392.272 298.36 400.661 298.36C408.653 298.36 413.358 303.291 413.358 311.624ZM409.164 310.433V310.093C409.164 305.162 406.103 302.214 400.775 302.214C395.787 302.214 392.442 305.105 391.592 310.433H409.164ZM445.518 311.624V313.721H423.582C423.866 319.673 427.494 323.414 432.992 323.414C437.696 323.414 440.927 321.033 441.324 317.349H445.518C445.235 323.414 440.304 327.268 432.935 327.268C424.489 327.268 419.048 321.713 419.048 313.041C419.048 304.085 424.433 298.36 432.822 298.36C440.814 298.36 445.518 303.291 445.518 311.624ZM441.324 310.433V310.093C441.324 305.162 438.263 302.214 432.935 302.214C427.947 302.214 424.603 305.105 423.752 310.433H441.324ZM486.088 327.041C479.286 327.041 476.395 322.733 476.395 316.555V302.781H471.747V298.814H475.488C476.395 298.814 476.735 298.36 476.849 296.886L477.075 292.465H480.93V298.814H491.076V302.781H480.93V316.272C480.93 320.523 482.29 323.073 486.485 323.073C488.412 323.073 490.226 322.733 490.849 322.507V326.361C489.999 326.701 488.355 327.041 486.088 327.041ZM497.514 326.814V287.534H502.048V300.514C502.048 302.044 501.935 305.389 501.935 306.409H501.992C503.522 301.534 507.433 298.36 514.122 298.36C521.49 298.36 525.855 302.611 525.855 309.3V326.814H521.32V310.263C521.32 305.502 518.599 302.441 512.591 302.441C506.186 302.441 502.048 306.522 502.048 313.608V326.814H497.514ZM558.824 311.624V313.721H536.888C537.171 319.673 540.799 323.414 546.297 323.414C551.002 323.414 554.233 321.033 554.629 317.349H558.824C558.54 323.414 553.609 327.268 546.24 327.268C537.795 327.268 532.353 321.713 532.353 313.041C532.353 304.085 537.738 298.36 546.127 298.36C554.119 298.36 558.824 303.291 558.824 311.624ZM554.629 310.433V310.093C554.629 305.162 551.569 302.214 546.24 302.214C541.252 302.214 537.908 305.105 537.058 310.433H554.629ZM594.009 326.814L585.676 298.814H590.608L597.069 322.053H597.183L605.005 298.814H609.483L617.021 322.053H617.135L623.823 298.814H628.188L619.856 326.814H614.301L607.045 304.482H606.875L599.393 326.814H594.009ZM633.791 326.814V287.534H638.326V300.514C638.326 302.044 638.212 305.389 638.212 306.409H638.269C639.799 301.534 643.71 298.36 650.399 298.36C657.767 298.36 662.132 302.611 662.132 309.3V326.814H657.597V310.263C657.597 305.502 654.877 302.441 648.868 302.441C642.463 302.441 638.326 306.522 638.326 313.608V326.814H633.791ZM669.877 295.243V289.518H674.752V295.243H669.877ZM670.048 326.814V298.814H674.582V326.814H670.048ZM693.937 327.041C687.135 327.041 684.245 322.733 684.245 316.555V302.781H679.597V298.814H683.338C684.245 298.814 684.585 298.36 684.698 296.886L684.925 292.465H688.779V298.814H698.925V302.781H688.779V316.272C688.779 320.523 690.14 323.073 694.334 323.073C696.261 323.073 698.075 322.733 698.699 322.507V326.361C697.848 326.701 696.205 327.041 693.937 327.041ZM729.365 311.624V313.721H707.429C707.712 319.673 711.34 323.414 716.838 323.414C721.543 323.414 724.774 321.033 725.17 317.349H729.365C729.081 323.414 724.15 327.268 716.781 327.268C708.336 327.268 702.894 321.713 702.894 313.041C702.894 304.085 708.279 298.36 716.668 298.36C724.66 298.36 729.365 303.291 729.365 311.624ZM725.17 310.433V310.093C725.17 305.162 722.11 302.214 716.781 302.214C711.793 302.214 708.449 305.105 707.599 310.433H725.17ZM770.048 327.268C760.639 327.268 757.691 322.847 757.691 317.462H761.886C761.886 321.203 764.153 323.414 769.991 323.414C775.773 323.414 778.55 321.656 778.55 318.652C778.55 317.519 778.21 316.442 776.793 315.761C775.489 315.138 772.542 314.798 769.084 314.458C764.493 314.061 761.715 313.494 760.015 312.247C758.485 311.114 757.691 309.073 757.691 307.032C757.691 301.761 762.509 298.36 769.991 298.36C778.38 298.36 781.894 302.044 781.894 308.336H777.7C777.643 304.142 775.149 302.214 770.161 302.214C765.343 302.214 762.226 303.972 762.226 306.749C762.226 307.883 762.396 309.243 764.039 309.923C765.4 310.49 768.177 310.83 771.862 311.227C776.226 311.68 778.38 312.077 780.307 313.154C782.178 314.231 783.085 316.385 783.085 318.482C783.085 323.98 778.55 327.268 770.048 327.268ZM790.161 338.038V298.814H794.696L794.583 306.012H794.639C795.773 301.364 799.741 298.36 805.806 298.36C813.968 298.36 818.956 303.802 818.956 312.361C818.956 321.43 813.911 327.268 805.692 327.268C799.741 327.268 795.773 324.434 794.583 320.636H794.526C794.583 322.507 794.696 325.454 794.696 326.758V338.038H790.161ZM805.069 323.187C810.794 323.187 814.421 318.992 814.421 312.417C814.421 306.352 810.85 302.441 804.955 302.441C798.834 302.441 794.809 306.466 794.696 312.757V314.458C794.696 319.786 798.72 323.187 805.069 323.187ZM833.547 327.268C827.199 327.268 823.174 324.037 823.174 318.766C823.174 314.798 825.952 311.397 833.434 311.397H844.827V309.356C844.827 304.538 841.993 302.214 836.268 302.214C831.11 302.214 828.276 304.142 828.276 307.939C828.276 308.109 828.276 308.506 828.332 308.96H824.138C824.081 308.563 824.025 307.769 824.025 307.259C824.025 301.704 828.786 298.36 836.381 298.36C844.6 298.36 849.361 302.441 849.361 309.753V326.814H844.827C844.884 325.511 844.997 322.903 845.054 320.183H844.997C844.033 324.49 840.519 327.268 833.547 327.268ZM834.454 323.414C840.802 323.414 844.827 320.183 844.827 315.081V314.684H833.831C829.239 314.684 827.425 316.045 827.425 318.766C827.425 321.6 830.033 323.414 834.454 323.414ZM869.265 327.268C861.103 327.268 855.888 321.656 855.888 312.814C855.888 303.972 861.216 298.36 869.605 298.36C877.087 298.36 881.905 302.895 881.905 310.037H877.711C877.654 305.389 874.537 302.441 869.662 302.441C864.05 302.441 860.423 306.466 860.423 312.814C860.423 319.162 863.937 323.187 869.379 323.187C874.48 323.187 877.768 320.296 877.824 315.705H882.019C882.019 322.733 877.031 327.268 869.265 327.268ZM914.464 311.624V313.721H892.528C892.811 319.673 896.439 323.414 901.937 323.414C906.642 323.414 909.873 321.033 910.269 317.349H914.464C914.18 323.414 909.249 327.268 901.88 327.268C893.435 327.268 887.993 321.713 887.993 313.041C887.993 304.085 893.378 298.36 901.767 298.36C909.759 298.36 914.464 303.291 914.464 311.624ZM910.269 310.433V310.093C910.269 305.162 907.209 302.214 901.88 302.214C896.892 302.214 893.548 305.105 892.698 310.433H910.269ZM932.51 327.268C923.101 327.268 920.154 322.847 920.154 317.462H924.348C924.348 321.203 926.616 323.414 932.454 323.414C938.235 323.414 941.013 321.656 941.013 318.652C941.013 317.519 940.673 316.442 939.256 315.761C937.952 315.138 935.005 314.798 931.547 314.458C926.956 314.061 924.178 313.494 922.478 312.247C920.947 311.114 920.154 309.073 920.154 307.032C920.154 301.761 924.972 298.36 932.454 298.36C940.843 298.36 944.357 302.044 944.357 308.336H940.163C940.106 304.142 937.612 302.214 932.624 302.214C927.806 302.214 924.688 303.972 924.688 306.749C924.688 307.883 924.858 309.243 926.502 309.923C927.863 310.49 930.64 310.83 934.324 311.227C938.689 311.68 940.843 312.077 942.77 313.154C944.64 314.231 945.547 316.385 945.547 318.482C945.547 323.98 941.013 327.268 932.51 327.268ZM976.451 326.814V302.781H971.746V298.814H976.451V296.036C976.451 289.914 980.192 286.4 986.03 286.4C988.184 286.4 989.941 286.797 990.961 287.137V291.161C989.941 290.821 988.524 290.481 986.597 290.481C983.026 290.481 980.985 292.465 980.985 296.036V298.814H991.415V302.781H980.985V326.814H976.451ZM997.174 326.814V298.814H1001.71L1001.6 306.919H1001.65C1002.96 302.044 1005.85 298.36 1011.85 298.36C1018.15 298.36 1021.49 302.555 1021.49 309.3C1021.49 311.227 1021.32 313.267 1021.21 314.288H1017.07C1017.18 313.437 1017.3 312.02 1017.3 310.263C1017.3 305.105 1015.37 302.441 1010.78 302.441C1005.05 302.441 1001.71 307.429 1001.71 314.401V326.814H997.174ZM1041.32 327.268C1032.65 327.268 1027.15 321.656 1027.15 312.871C1027.15 304.028 1032.65 298.36 1041.32 298.36C1049.99 298.36 1055.49 304.028 1055.49 312.871C1055.49 321.656 1049.99 327.268 1041.32 327.268ZM1041.32 323.187C1047.21 323.187 1050.96 319.162 1050.96 312.871C1050.96 306.522 1047.21 302.441 1041.32 302.441C1035.42 302.441 1031.68 306.522 1031.68 312.871C1031.68 319.162 1035.42 323.187 1041.32 323.187ZM1062.27 326.814V298.814H1066.8L1066.69 306.239H1066.75C1067.94 301.421 1071.51 298.36 1076.55 298.36C1082.05 298.36 1085.68 301.251 1086.36 305.729H1086.42C1087.38 301.251 1091.01 298.36 1096.28 298.36C1102.63 298.36 1106.31 302.555 1106.31 309.073V326.814H1101.78V310.037C1101.78 305.389 1099.51 302.441 1095.03 302.441C1089.87 302.441 1086.59 306.239 1086.59 312.701V326.814H1082.05V309.867C1082.05 305.332 1079.73 302.441 1075.25 302.441C1070.09 302.441 1066.8 306.296 1066.8 312.927V326.814H1062.27ZM1147.72 327.041C1140.91 327.041 1138.02 322.733 1138.02 316.555V302.781H1133.38V298.814H1137.12C1138.02 298.814 1138.36 298.36 1138.48 296.886L1138.7 292.465H1142.56V298.814H1152.7V302.781H1142.56V316.272C1142.56 320.523 1143.92 323.073 1148.11 323.073C1150.04 323.073 1151.85 322.733 1152.48 322.507V326.361C1151.63 326.701 1149.98 327.041 1147.72 327.041ZM1159.14 326.814V287.534H1163.68V300.514C1163.68 302.044 1163.56 305.389 1163.56 306.409H1163.62C1165.15 301.534 1169.06 298.36 1175.75 298.36C1183.12 298.36 1187.48 302.611 1187.48 309.3V326.814H1182.95V310.263C1182.95 305.502 1180.23 302.441 1174.22 302.441C1167.81 302.441 1163.68 306.522 1163.68 313.608V326.814H1159.14ZM1220.45 311.624V313.721H1198.52C1198.8 319.673 1202.43 323.414 1207.92 323.414C1212.63 323.414 1215.86 321.033 1216.26 317.349H1220.45C1220.17 323.414 1215.24 327.268 1207.87 327.268C1199.42 327.268 1193.98 321.713 1193.98 313.041C1193.98 304.085 1199.37 298.36 1207.75 298.36C1215.75 298.36 1220.45 303.291 1220.45 311.624ZM1216.26 310.433V310.093C1216.26 305.162 1213.2 302.214 1207.87 302.214C1202.88 302.214 1199.54 305.105 1198.69 310.433H1216.26ZM1261.02 327.041C1254.22 327.041 1251.33 322.733 1251.33 316.555V302.781H1246.68V298.814H1250.42C1251.33 298.814 1251.67 298.36 1251.78 296.886L1252.01 292.465H1255.86V298.814H1266.01V302.781H1255.86V316.272C1255.86 320.523 1257.22 323.073 1261.42 323.073C1263.35 323.073 1265.16 322.733 1265.78 322.507V326.361C1264.93 326.701 1263.29 327.041 1261.02 327.041ZM1284.15 327.268C1275.48 327.268 1269.98 321.656 1269.98 312.871C1269.98 304.028 1275.48 298.36 1284.15 298.36C1292.82 298.36 1298.32 304.028 1298.32 312.871C1298.32 321.656 1292.82 327.268 1284.15 327.268ZM1284.15 323.187C1290.04 323.187 1293.78 319.162 1293.78 312.871C1293.78 306.522 1290.04 302.441 1284.15 302.441C1278.25 302.441 1274.51 306.522 1274.51 312.871C1274.51 319.162 1278.25 323.187 1284.15 323.187ZM1305.38 338.038V298.814H1309.92L1309.8 306.012H1309.86C1310.99 301.364 1314.96 298.36 1321.03 298.36C1329.19 298.36 1334.18 303.802 1334.18 312.361C1334.18 321.43 1329.13 327.268 1320.91 327.268C1314.96 327.268 1310.99 324.434 1309.8 320.636H1309.75C1309.8 322.507 1309.92 325.454 1309.92 326.758V338.038H1305.38ZM1320.29 323.187C1326.01 323.187 1329.64 318.992 1329.64 312.417C1329.64 306.352 1326.07 302.441 1320.18 302.441C1314.05 302.441 1310.03 306.466 1309.92 312.757V314.458C1309.92 319.786 1313.94 323.187 1320.29 323.187ZM368.077 420.041C361.276 420.041 358.385 415.733 358.385 409.555V395.781H353.737V391.814H357.478C358.385 391.814 358.725 391.36 358.838 389.886L359.065 385.465H362.919V391.814H373.065V395.781H362.919V409.272C362.919 413.523 364.28 416.073 368.474 416.073C370.401 416.073 372.215 415.733 372.839 415.507V419.361C371.988 419.701 370.345 420.041 368.077 420.041ZM391.205 420.268C382.533 420.268 377.035 414.656 377.035 405.871C377.035 397.028 382.533 391.36 391.205 391.36C399.877 391.36 405.376 397.028 405.376 405.871C405.376 414.656 399.877 420.268 391.205 420.268ZM391.205 416.187C397.1 416.187 400.841 412.162 400.841 405.871C400.841 399.522 397.1 395.441 391.205 395.441C385.31 395.441 381.569 399.522 381.569 405.871C381.569 412.162 385.31 416.187 391.205 416.187ZM458.953 420.041C452.151 420.041 449.26 415.733 449.26 409.555V395.781H444.612V391.814H448.353C449.26 391.814 449.6 391.36 449.714 389.886L449.94 385.465H453.795V391.814H463.941V395.781H453.795V409.272C453.795 413.523 455.155 416.073 459.35 416.073C461.277 416.073 463.091 415.733 463.714 415.507V419.361C462.864 419.701 461.22 420.041 458.953 420.041ZM470.379 419.814V380.534H474.913V393.514C474.913 395.044 474.8 398.389 474.8 399.409H474.857C476.387 394.534 480.298 391.36 486.987 391.36C494.355 391.36 498.72 395.611 498.72 402.3V419.814H494.185V403.263C494.185 398.502 491.465 395.441 485.456 395.441C479.051 395.441 474.913 399.522 474.913 406.608V419.814H470.379ZM531.689 404.624V406.721H509.753C510.036 412.673 513.664 416.414 519.162 416.414C523.867 416.414 527.098 414.033 527.494 410.349H531.689C531.405 416.414 526.474 420.268 519.105 420.268C510.66 420.268 505.218 414.713 505.218 406.041C505.218 397.085 510.603 391.36 518.992 391.36C526.984 391.36 531.689 396.291 531.689 404.624ZM527.494 403.433V403.093C527.494 398.162 524.434 395.214 519.105 395.214C514.117 395.214 510.773 398.105 509.923 403.433H527.494ZM590.411 420.268C584.063 420.268 580.039 417.547 578.848 413.353H578.792C578.792 415.563 578.905 418.341 579.018 419.814H574.484V380.534H579.018V393.967C579.018 395.101 578.962 397.368 578.905 398.729H578.962C580.209 394.251 584.29 391.36 590.298 391.36C598.347 391.36 603.278 396.802 603.278 405.304C603.278 414.43 598.234 420.268 590.411 420.268ZM589.278 416.187C595.059 416.187 598.744 411.992 598.744 405.417C598.744 399.352 595.229 395.441 589.448 395.441C583.099 395.441 579.018 399.522 579.018 405.871V407.344C579.018 412.729 583.043 416.187 589.278 416.187ZM623.106 420.268C614.434 420.268 608.936 414.656 608.936 405.871C608.936 397.028 614.434 391.36 623.106 391.36C631.779 391.36 637.277 397.028 637.277 405.871C637.277 414.656 631.779 420.268 623.106 420.268ZM623.106 416.187C629.001 416.187 632.742 412.162 632.742 405.871C632.742 399.522 629.001 395.441 623.106 395.441C617.211 395.441 613.47 399.522 613.47 405.871C613.47 412.162 617.211 416.187 623.106 416.187ZM654.391 420.041C647.59 420.041 644.699 415.733 644.699 409.555V395.781H640.051V391.814H643.792C644.699 391.814 645.039 391.36 645.152 389.886L645.379 385.465H649.233V391.814H659.379V395.781H649.233V409.272C649.233 413.523 650.594 416.073 654.788 416.073C656.715 416.073 658.529 415.733 659.153 415.507V419.361C658.302 419.701 656.659 420.041 654.391 420.041ZM676.643 420.041C669.842 420.041 666.951 415.733 666.951 409.555V395.781H662.303V391.814H666.044C666.951 391.814 667.291 391.36 667.404 389.886L667.631 385.465H671.485V391.814H681.631V395.781H671.485V409.272C671.485 413.523 672.846 416.073 677.04 416.073C678.967 416.073 680.781 415.733 681.405 415.507V419.361C680.555 419.701 678.911 420.041 676.643 420.041ZM699.771 420.268C691.099 420.268 685.601 414.656 685.601 405.871C685.601 397.028 691.099 391.36 699.771 391.36C708.443 391.36 713.942 397.028 713.942 405.871C713.942 414.656 708.443 420.268 699.771 420.268ZM699.771 416.187C705.666 416.187 709.407 412.162 709.407 405.871C709.407 399.522 705.666 395.441 699.771 395.441C693.876 395.441 690.135 399.522 690.135 405.871C690.135 412.162 693.876 416.187 699.771 416.187ZM720.721 419.814V391.814H725.256L725.143 399.239H725.199C726.39 394.421 729.96 391.36 735.005 391.36C740.503 391.36 744.131 394.251 744.811 398.729H744.868C745.831 394.251 749.459 391.36 754.731 391.36C761.079 391.36 764.763 395.555 764.763 402.073V419.814H760.229V403.037C760.229 398.389 757.961 395.441 753.484 395.441C748.325 395.441 745.038 399.239 745.038 405.701V419.814H740.503V402.867C740.503 398.332 738.179 395.441 733.702 395.441C728.543 395.441 725.256 399.296 725.256 405.927V419.814H720.721ZM821.146 420.268C812.474 420.268 806.976 414.656 806.976 405.871C806.976 397.028 812.474 391.36 821.146 391.36C829.819 391.36 835.317 397.028 835.317 405.871C835.317 414.656 829.819 420.268 821.146 420.268ZM821.146 416.187C827.041 416.187 830.782 412.162 830.782 405.871C830.782 399.522 827.041 395.441 821.146 395.441C815.251 395.441 811.51 399.522 811.51 405.871C811.51 412.162 815.251 416.187 821.146 416.187ZM842.851 419.814V395.781H838.146V391.814H842.851V389.036C842.851 382.914 846.592 379.4 852.43 379.4C854.584 379.4 856.341 379.797 857.361 380.137V384.161C856.341 383.821 854.924 383.481 852.997 383.481C849.426 383.481 847.385 385.465 847.385 389.036V391.814H857.815V395.781H847.385V419.814H842.851ZM910.371 420.041C903.57 420.041 900.679 415.733 900.679 409.555V395.781H896.031V391.814H899.772C900.679 391.814 901.019 391.36 901.132 389.886L901.359 385.465H905.213V391.814H915.36V395.781H905.213V409.272C905.213 413.523 906.574 416.073 910.768 416.073C912.695 416.073 914.509 415.733 915.133 415.507V419.361C914.283 419.701 912.639 420.041 910.371 420.041ZM921.797 419.814V380.534H926.332V393.514C926.332 395.044 926.219 398.389 926.219 399.409H926.275C927.806 394.534 931.717 391.36 938.405 391.36C945.774 391.36 950.138 395.611 950.138 402.3V419.814H945.604V403.263C945.604 398.502 942.883 395.441 936.875 395.441C930.47 395.441 926.332 399.522 926.332 406.608V419.814H921.797ZM983.107 404.624V406.721H961.171C961.455 412.673 965.083 416.414 970.581 416.414C975.285 416.414 978.516 414.033 978.913 410.349H983.107C982.824 416.414 977.893 420.268 970.524 420.268C962.078 420.268 956.637 414.713 956.637 406.041C956.637 397.085 962.022 391.36 970.411 391.36C978.403 391.36 983.107 396.291 983.107 404.624ZM978.913 403.433V403.093C978.913 398.162 975.852 395.214 970.524 395.214C965.536 395.214 962.192 398.105 961.342 403.433H978.913ZM1025.9 431.038V391.814H1030.44L1030.32 399.012H1030.38C1031.51 394.364 1035.48 391.36 1041.55 391.36C1049.71 391.36 1054.7 396.802 1054.7 405.361C1054.7 414.43 1049.65 420.268 1041.43 420.268C1035.48 420.268 1031.51 417.434 1030.32 413.636H1030.27C1030.32 415.507 1030.44 418.454 1030.44 419.758V431.038H1025.9ZM1040.81 416.187C1046.53 416.187 1050.16 411.992 1050.16 405.417C1050.16 399.352 1046.59 395.441 1040.7 395.441C1034.57 395.441 1030.55 399.466 1030.44 405.757V407.458C1030.44 412.786 1034.46 416.187 1040.81 416.187ZM1069.29 420.268C1062.94 420.268 1058.92 417.037 1058.92 411.766C1058.92 407.798 1061.69 404.397 1069.17 404.397H1080.57V402.356C1080.57 397.538 1077.73 395.214 1072.01 395.214C1066.85 395.214 1064.02 397.142 1064.02 400.939C1064.02 401.109 1064.02 401.506 1064.07 401.96H1059.88C1059.82 401.563 1059.77 400.769 1059.77 400.259C1059.77 394.704 1064.53 391.36 1072.12 391.36C1080.34 391.36 1085.1 395.441 1085.1 402.753V419.814H1080.57C1080.62 418.511 1080.74 415.903 1080.79 413.183H1080.74C1079.77 417.49 1076.26 420.268 1069.29 420.268ZM1070.2 416.414C1076.54 416.414 1080.57 413.183 1080.57 408.081V407.684H1069.57C1064.98 407.684 1063.17 409.045 1063.17 411.766C1063.17 414.6 1065.77 416.414 1070.2 416.414ZM1092.76 419.814V391.814H1097.3L1097.18 399.919H1097.24C1098.54 395.044 1101.44 391.36 1107.44 391.36C1113.74 391.36 1117.08 395.555 1117.08 402.3C1117.08 404.227 1116.91 406.267 1116.8 407.288H1112.66C1112.77 406.437 1112.88 405.02 1112.88 403.263C1112.88 398.105 1110.96 395.441 1106.37 395.441C1100.64 395.441 1097.3 400.429 1097.3 407.401V419.814H1092.76ZM1133.11 420.268C1126.76 420.268 1122.74 417.037 1122.74 411.766C1122.74 407.798 1125.52 404.397 1133 404.397H1144.39V402.356C1144.39 397.538 1141.56 395.214 1135.83 395.214C1130.67 395.214 1127.84 397.142 1127.84 400.939C1127.84 401.109 1127.84 401.506 1127.9 401.96H1123.7C1123.64 401.563 1123.59 400.769 1123.59 400.259C1123.59 394.704 1128.35 391.36 1135.94 391.36C1144.16 391.36 1148.93 395.441 1148.93 402.753V419.814H1144.39C1144.45 418.511 1144.56 415.903 1144.62 413.183H1144.56C1143.6 417.49 1140.08 420.268 1133.11 420.268ZM1134.02 416.414C1140.37 416.414 1144.39 413.183 1144.39 408.081V407.684H1133.39C1128.8 407.684 1126.99 409.045 1126.99 411.766C1126.99 414.6 1129.6 416.414 1134.02 416.414ZM1175.4 415.96C1181.07 415.96 1184.3 418.454 1184.3 422.705C1184.3 428.26 1179.03 431.831 1170.19 431.831C1160.95 431.831 1155.45 428.827 1155.45 423.499C1155.45 420.721 1157.66 418.397 1161.18 418.397V418.341C1159.76 417.264 1158.91 415.62 1158.91 413.693C1158.91 411.596 1159.82 409.952 1160.89 409.328V409.215C1158.29 407.514 1156.81 404.737 1156.81 401.336C1156.81 395.271 1161.46 391.36 1168.72 391.36C1171.78 391.36 1174.38 392.04 1176.37 393.287V393.231C1175.74 392.437 1175.29 391.36 1175.29 390.113C1175.29 387.846 1177.27 386.372 1180.45 386.372C1181.64 386.372 1182.49 386.542 1183 386.712V390.34C1182.6 390.17 1181.92 390 1181.02 390C1179.15 390 1178.12 390.85 1178.12 392.494C1178.12 393.344 1178.41 394.421 1178.86 395.555C1180.05 397.142 1180.68 399.069 1180.68 401.336C1180.68 407.401 1176.03 411.312 1168.72 411.312C1166.79 411.312 1165.09 411.029 1163.56 410.519C1163.1 410.972 1162.76 411.822 1162.76 412.899C1162.76 414.77 1163.95 415.96 1166.33 415.96H1175.4ZM1168.72 395.214C1164.12 395.214 1161.23 397.595 1161.23 401.336C1161.23 405.077 1164.12 407.458 1168.72 407.458C1173.31 407.458 1176.25 405.077 1176.25 401.336C1176.25 397.595 1173.31 395.214 1168.72 395.214ZM1170.13 427.977C1177.33 427.977 1179.77 425.823 1179.77 423.159C1179.77 420.948 1178.12 419.814 1174.72 419.814H1166.39C1162.48 419.814 1159.99 420.835 1159.99 423.385C1159.99 426.503 1163.95 427.977 1170.13 427.977ZM1190.63 419.814V391.814H1195.16L1195.05 399.919H1195.11C1196.41 395.044 1199.3 391.36 1205.31 391.36C1211.6 391.36 1214.94 395.555 1214.94 402.3C1214.94 404.227 1214.77 406.267 1214.66 407.288H1210.52C1210.64 406.437 1210.75 405.02 1210.75 403.263C1210.75 398.105 1208.82 395.441 1204.23 395.441C1198.51 395.441 1195.16 400.429 1195.16 407.401V419.814H1190.63ZM1230.98 420.268C1224.63 420.268 1220.6 417.037 1220.6 411.766C1220.6 407.798 1223.38 404.397 1230.86 404.397H1242.26V402.356C1242.26 397.538 1239.42 395.214 1233.7 395.214C1228.54 395.214 1225.7 397.142 1225.7 400.939C1225.7 401.109 1225.7 401.506 1225.76 401.96H1221.57C1221.51 401.563 1221.45 400.769 1221.45 400.259C1221.45 394.704 1226.21 391.36 1233.81 391.36C1242.03 391.36 1246.79 395.441 1246.79 402.753V419.814H1242.26C1242.31 418.511 1242.43 415.903 1242.48 413.183H1242.43C1241.46 417.49 1237.95 420.268 1230.98 420.268ZM1231.88 416.414C1238.23 416.414 1242.26 413.183 1242.26 408.081V407.684H1231.26C1226.67 407.684 1224.85 409.045 1224.85 411.766C1224.85 414.6 1227.46 416.414 1231.88 416.414ZM1254.73 431.038V391.814H1259.27L1259.16 399.012H1259.21C1260.35 394.364 1264.31 391.36 1270.38 391.36C1278.54 391.36 1283.53 396.802 1283.53 405.361C1283.53 414.43 1278.48 420.268 1270.26 420.268C1264.31 420.268 1260.35 417.434 1259.16 413.636H1259.1C1259.16 415.507 1259.27 418.454 1259.27 419.758V431.038H1254.73ZM1269.64 416.187C1275.37 416.187 1278.99 411.992 1278.99 405.417C1278.99 399.352 1275.42 395.441 1269.53 395.441C1263.41 395.441 1259.38 399.466 1259.27 405.757V407.458C1259.27 412.786 1263.29 416.187 1269.64 416.187ZM1290.6 419.814V380.534H1295.14V393.514C1295.14 395.044 1295.02 398.389 1295.02 399.409H1295.08C1296.61 394.534 1300.52 391.36 1307.21 391.36C1314.58 391.36 1318.94 395.611 1318.94 402.3V419.814H1314.41V403.263C1314.41 398.502 1311.69 395.441 1305.68 395.441C1299.28 395.441 1295.14 399.522 1295.14 406.608V419.814H1290.6ZM1327.37 419.814V413.353H1332.24V419.814H1327.37ZM366.604 512.814V479.769H354.247V475.518H383.722V479.769H371.365V512.814H366.604ZM389.301 512.814V473.534H393.835V486.514C393.835 488.044 393.722 491.389 393.722 492.409H393.779C395.309 487.534 399.22 484.36 405.909 484.36C413.277 484.36 417.642 488.611 417.642 495.3V512.814H413.107V496.263C413.107 491.502 410.387 488.441 404.378 488.441C397.973 488.441 393.835 492.522 393.835 499.608V512.814H389.301ZM425.387 481.243V475.518H430.262V481.243H425.387ZM425.557 512.814V484.814H430.092V512.814H425.557ZM449.561 513.268C440.151 513.268 437.204 508.847 437.204 503.462H441.398C441.398 507.203 443.666 509.414 449.504 509.414C455.285 509.414 458.063 507.656 458.063 504.652C458.063 503.519 457.723 502.442 456.306 501.761C455.002 501.138 452.055 500.798 448.597 500.458C444.006 500.061 441.228 499.494 439.528 498.247C437.997 497.114 437.204 495.073 437.204 493.032C437.204 487.761 442.022 484.36 449.504 484.36C457.893 484.36 461.407 488.044 461.407 494.336H457.213C457.156 490.142 454.662 488.214 449.674 488.214C444.856 488.214 441.738 489.972 441.738 492.749C441.738 493.883 441.908 495.243 443.552 495.923C444.913 496.49 447.69 496.83 451.374 497.227C455.739 497.68 457.893 498.077 459.82 499.154C461.691 500.231 462.597 502.385 462.597 504.482C462.597 509.98 458.063 513.268 449.561 513.268ZM521.107 512.814V473.534H525.641V486.514C525.641 488.044 525.528 491.389 525.528 492.409H525.584C527.115 487.534 531.026 484.36 537.714 484.36C545.083 484.36 549.448 488.611 549.448 495.3V512.814H544.913V496.263C544.913 491.502 542.192 488.441 536.184 488.441C529.779 488.441 525.641 492.522 525.641 499.608V512.814H521.107ZM566.319 513.268C559.971 513.268 555.946 510.037 555.946 504.766C555.946 500.798 558.724 497.397 566.206 497.397H577.599V495.356C577.599 490.538 574.765 488.214 569.04 488.214C563.882 488.214 561.048 490.142 561.048 493.939C561.048 494.109 561.048 494.506 561.104 494.96H556.91C556.853 494.563 556.796 493.769 556.796 493.259C556.796 487.704 561.558 484.36 569.153 484.36C577.372 484.36 582.133 488.441 582.133 495.753V512.814H577.599C577.655 511.511 577.769 508.903 577.825 506.183H577.769C576.805 510.49 573.291 513.268 566.319 513.268ZM567.226 509.414C573.574 509.414 577.599 506.183 577.599 501.081V500.684H566.602C562.011 500.684 560.197 502.045 560.197 504.766C560.197 507.6 562.805 509.414 567.226 509.414ZM590.077 524.038V484.814H594.612L594.498 492.012H594.555C595.689 487.364 599.656 484.36 605.721 484.36C613.884 484.36 618.872 489.802 618.872 498.361C618.872 507.43 613.827 513.268 605.608 513.268C599.656 513.268 595.689 510.434 594.498 506.636H594.442C594.498 508.507 594.612 511.454 594.612 512.758V524.038H590.077ZM604.985 509.187C610.709 509.187 614.337 504.992 614.337 498.417C614.337 492.352 610.766 488.441 604.871 488.441C598.749 488.441 594.725 492.466 594.612 498.757V500.458C594.612 505.786 598.636 509.187 604.985 509.187ZM625.946 524.038V484.814H630.481L630.367 492.012H630.424C631.558 487.364 635.525 484.36 641.59 484.36C649.753 484.36 654.741 489.802 654.741 498.361C654.741 507.43 649.696 513.268 641.477 513.268C635.525 513.268 631.558 510.434 630.367 506.636H630.311C630.367 508.507 630.481 511.454 630.481 512.758V524.038H625.946ZM640.854 509.187C646.578 509.187 650.206 504.992 650.206 498.417C650.206 492.352 646.635 488.441 640.74 488.441C634.619 488.441 630.594 492.466 630.481 498.757V500.458C630.481 505.786 634.505 509.187 640.854 509.187ZM686.869 497.624V499.721H664.933C665.216 505.673 668.844 509.414 674.342 509.414C679.047 509.414 682.278 507.033 682.674 503.349H686.869C686.585 509.414 681.654 513.268 674.285 513.268C665.84 513.268 660.398 507.713 660.398 499.041C660.398 490.085 665.783 484.36 674.172 484.36C682.164 484.36 686.869 489.291 686.869 497.624ZM682.674 496.433V496.093C682.674 491.162 679.614 488.214 674.285 488.214C669.297 488.214 665.953 491.105 665.103 496.433H682.674ZM693.692 512.814V484.814H698.227L698.114 492.352H698.17C699.701 487.478 703.612 484.36 710.3 484.36C717.669 484.36 722.033 488.611 722.033 495.3V512.814H717.499V496.263C717.499 491.502 714.778 488.441 708.77 488.441C702.365 488.441 698.227 492.352 698.227 499.041V512.814H693.692ZM740.895 513.268C731.486 513.268 728.539 508.847 728.539 503.462H732.733C732.733 507.203 735 509.414 740.839 509.414C746.62 509.414 749.398 507.656 749.398 504.652C749.398 503.519 749.057 502.442 747.64 501.761C746.337 501.138 743.389 500.798 739.932 500.458C735.34 500.061 732.563 499.494 730.863 498.247C729.332 497.114 728.539 495.073 728.539 493.032C728.539 487.761 733.357 484.36 740.839 484.36C749.228 484.36 752.742 488.044 752.742 494.336H748.547C748.491 490.142 745.997 488.214 741.009 488.214C736.191 488.214 733.073 489.972 733.073 492.749C733.073 493.883 733.243 495.243 734.887 495.923C736.247 496.49 739.025 496.83 742.709 497.227C747.074 497.68 749.228 498.077 751.155 499.154C753.025 500.231 753.932 502.385 753.932 504.482C753.932 509.98 749.398 513.268 740.895 513.268ZM817.883 512.814L809.55 484.814H814.482L820.944 508.053H821.057L828.879 484.814H833.357L840.896 508.053H841.009L847.698 484.814H852.062L843.73 512.814H838.175L830.92 490.482H830.75L823.268 512.814H817.883ZM857.665 512.814V473.534H862.2V486.514C862.2 488.044 862.086 491.389 862.086 492.409H862.143C863.673 487.534 867.584 484.36 874.273 484.36C881.642 484.36 886.006 488.611 886.006 495.3V512.814H881.472V496.263C881.472 491.502 878.751 488.441 872.743 488.441C866.337 488.441 862.2 492.522 862.2 499.608V512.814H857.665ZM918.975 497.624V499.721H897.039C897.323 505.673 900.95 509.414 906.448 509.414C911.153 509.414 914.384 507.033 914.781 503.349H918.975C918.692 509.414 913.76 513.268 906.392 513.268C897.946 513.268 892.505 507.713 892.505 499.041C892.505 490.085 897.889 484.36 906.278 484.36C914.271 484.36 918.975 489.291 918.975 497.624ZM914.781 496.433V496.093C914.781 491.162 911.72 488.214 906.392 488.214C901.404 488.214 898.059 491.105 897.209 496.433H914.781ZM925.799 512.814V484.814H930.333L930.22 492.352H930.277C931.807 487.478 935.718 484.36 942.407 484.36C949.775 484.36 954.14 488.611 954.14 495.3V512.814H949.605V496.263C949.605 491.502 946.884 488.441 940.876 488.441C934.471 488.441 930.333 492.352 930.333 499.041V512.814H925.799ZM1017.92 524.604C1016.33 524.604 1014.68 524.208 1013.89 523.867V520.07C1014.57 520.296 1015.93 520.637 1017.35 520.637C1020.41 520.637 1021.77 519.163 1024.38 512.814H1023.19L1010.6 484.814H1015.93L1026.13 508.223H1026.25L1035.26 484.814H1039.85L1028.74 513.325C1025.4 521.997 1023.24 524.604 1017.92 524.604ZM1056.42 513.268C1047.74 513.268 1042.24 507.656 1042.24 498.871C1042.24 490.028 1047.74 484.36 1056.42 484.36C1065.09 484.36 1070.59 490.028 1070.59 498.871C1070.59 507.656 1065.09 513.268 1056.42 513.268ZM1056.42 509.187C1062.31 509.187 1066.05 505.162 1066.05 498.871C1066.05 492.522 1062.31 488.441 1056.42 488.441C1050.52 488.441 1046.78 492.522 1046.78 498.871C1046.78 505.162 1050.52 509.187 1056.42 509.187ZM1088.87 513.268C1081.56 513.268 1077.08 508.903 1077.08 502.102V484.814H1081.62V501.308C1081.62 506.126 1084.79 509.187 1090.12 509.187C1096.64 509.187 1100.83 504.822 1100.83 497.454V484.814H1105.37V512.814H1100.83C1100.95 510.944 1101.06 507.43 1101.06 504.596H1101C1099.81 509.867 1095.84 513.268 1088.87 513.268ZM1113.29 512.814V484.814H1117.82L1117.71 492.919H1117.77C1119.07 488.044 1121.96 484.36 1127.97 484.36C1134.26 484.36 1137.61 488.555 1137.61 495.3C1137.61 497.227 1137.44 499.267 1137.32 500.288H1133.19C1133.3 499.437 1133.41 498.02 1133.41 496.263C1133.41 491.105 1131.49 488.441 1126.89 488.441C1121.17 488.441 1117.82 493.429 1117.82 500.401V512.814H1113.29ZM1201.56 512.814L1193.22 484.814H1198.16L1204.62 508.053H1204.73L1212.55 484.814H1217.03L1224.57 508.053H1224.68L1231.37 484.814H1235.74L1227.4 512.814H1221.85L1214.59 490.482H1214.42L1206.94 512.814H1201.56ZM1253.1 513.268C1244.42 513.268 1238.93 507.656 1238.93 498.871C1238.93 490.028 1244.42 484.36 1253.1 484.36C1261.77 484.36 1267.27 490.028 1267.27 498.871C1267.27 507.656 1261.77 513.268 1253.1 513.268ZM1253.1 509.187C1258.99 509.187 1262.73 505.162 1262.73 498.871C1262.73 492.522 1258.99 488.441 1253.1 488.441C1247.2 488.441 1243.46 492.522 1243.46 498.871C1243.46 505.162 1247.2 509.187 1253.1 509.187ZM1274.05 512.814V484.814H1278.58L1278.47 492.919H1278.52C1279.83 488.044 1282.72 484.36 1288.73 484.36C1295.02 484.36 1298.36 488.555 1298.36 495.3C1298.36 497.227 1298.19 499.267 1298.08 500.288H1293.94C1294.05 499.437 1294.17 498.02 1294.17 496.263C1294.17 491.105 1292.24 488.441 1287.65 488.441C1281.92 488.441 1278.58 493.429 1278.58 500.401V512.814H1274.05ZM1317.34 513.268C1309.24 513.268 1304.02 507.373 1304.02 498.644C1304.02 490.312 1309.24 484.36 1317.74 484.36C1323.58 484.36 1327.15 486.741 1328.17 490.425H1328.22V473.534H1332.76V512.814H1328.22C1328.39 510.32 1328.45 507.826 1328.51 505.332H1328.39C1327.32 510.15 1323.58 513.268 1317.34 513.268ZM1318.08 509.187C1324.26 509.187 1328.22 505.276 1328.22 499.154V497.737C1328.22 492.069 1324.31 488.441 1318.13 488.441C1312.3 488.441 1308.56 492.806 1308.56 498.644C1308.56 504.879 1312.3 509.187 1318.08 509.187ZM369.211 606.268C361.049 606.268 355.834 600.656 355.834 591.814C355.834 582.972 361.162 577.36 369.551 577.36C377.033 577.36 381.851 581.895 381.851 589.037H377.657C377.6 584.389 374.482 581.441 369.608 581.441C363.996 581.441 360.369 585.466 360.369 591.814C360.369 598.162 363.883 602.187 369.324 602.187C374.426 602.187 377.713 599.296 377.77 594.705H381.965C381.965 601.733 376.977 606.268 369.211 606.268ZM402.11 606.268C393.437 606.268 387.939 600.656 387.939 591.871C387.939 583.028 393.437 577.36 402.11 577.36C410.782 577.36 416.28 583.028 416.28 591.871C416.28 600.656 410.782 606.268 402.11 606.268ZM402.11 602.187C408.005 602.187 411.746 598.162 411.746 591.871C411.746 585.522 408.005 581.441 402.11 581.441C396.215 581.441 392.474 585.522 392.474 591.871C392.474 598.162 396.215 602.187 402.11 602.187ZM434.566 606.268C427.254 606.268 422.776 601.903 422.776 595.102V577.814H427.311V594.308C427.311 599.126 430.485 602.187 435.813 602.187C442.332 602.187 446.526 597.822 446.526 590.454V577.814H451.061V605.814H446.526C446.64 603.944 446.753 600.43 446.753 597.596H446.696C445.506 602.867 441.538 606.268 434.566 606.268ZM458.984 605.814V577.814H463.519L463.406 585.352H463.462C464.993 580.478 468.904 577.36 475.592 577.36C482.961 577.36 487.325 581.611 487.325 588.3V605.814H482.791V589.263C482.791 584.502 480.07 581.441 474.062 581.441C467.657 581.441 463.519 585.352 463.519 592.041V605.814H458.984ZM506.074 606.041C499.272 606.041 496.381 601.733 496.381 595.555V581.781H491.733V577.814H495.474C496.381 577.814 496.721 577.36 496.835 575.886L497.061 571.465H500.916V577.814H511.062V581.781H500.916V595.272C500.916 599.523 502.276 602.073 506.471 602.073C508.398 602.073 510.212 601.733 510.835 601.507V605.361C509.985 605.701 508.341 606.041 506.074 606.041ZM599.489 606.268C591.384 606.268 586.169 600.373 586.169 591.644C586.169 583.312 591.384 577.36 599.886 577.36C605.724 577.36 609.295 579.741 610.316 583.425H610.372V566.534H614.907V605.814H610.372C610.542 603.32 610.599 600.826 610.656 598.332H610.542C609.465 603.15 605.724 606.268 599.489 606.268ZM600.226 602.187C606.405 602.187 610.372 598.276 610.372 592.154V590.737C610.372 585.069 606.461 581.441 600.283 581.441C594.445 581.441 590.704 585.806 590.704 591.644C590.704 597.879 594.445 602.187 600.226 602.187ZM636.153 606.268C627.481 606.268 621.983 600.656 621.983 591.871C621.983 583.028 627.481 577.36 636.153 577.36C644.826 577.36 650.324 583.028 650.324 591.871C650.324 600.656 644.826 606.268 636.153 606.268ZM636.153 602.187C642.048 602.187 645.789 598.162 645.789 591.871C645.789 585.522 642.048 581.441 636.153 581.441C630.259 581.441 626.518 585.522 626.518 591.871C626.518 598.162 630.259 602.187 636.153 602.187ZM682.441 590.624V592.721H660.505C660.788 598.673 664.416 602.414 669.914 602.414C674.618 602.414 677.849 600.033 678.246 596.349H682.441C682.157 602.414 677.226 606.268 669.857 606.268C661.412 606.268 655.97 600.713 655.97 592.041C655.97 583.085 661.355 577.36 669.744 577.36C677.736 577.36 682.441 582.291 682.441 590.624ZM678.246 589.433V589.093C678.246 584.162 675.185 581.214 669.857 581.214C664.869 581.214 661.525 584.105 660.675 589.433H678.246ZM700.487 606.268C691.078 606.268 688.13 601.847 688.13 596.462H692.325C692.325 600.203 694.592 602.414 700.43 602.414C706.212 602.414 708.989 600.656 708.989 597.652C708.989 596.519 708.649 595.442 707.232 594.761C705.929 594.138 702.981 593.798 699.524 593.458C694.932 593.061 692.155 592.494 690.454 591.247C688.924 590.114 688.13 588.073 688.13 586.032C688.13 580.761 692.948 577.36 700.43 577.36C708.819 577.36 712.334 581.044 712.334 587.336H708.139C708.083 583.142 705.589 581.214 700.601 581.214C695.783 581.214 692.665 582.972 692.665 585.749C692.665 586.883 692.835 588.243 694.479 588.923C695.839 589.49 698.617 589.83 702.301 590.227C706.665 590.68 708.819 591.077 710.747 592.154C712.617 593.231 713.524 595.385 713.524 597.482C713.524 602.98 708.989 606.268 700.487 606.268ZM720.317 605.814V577.814H724.852L724.739 585.352H724.795C726.326 580.478 730.237 577.36 736.925 577.36C744.294 577.36 748.658 581.611 748.658 588.3V605.814H744.124V589.263C744.124 584.502 741.403 581.441 735.395 581.441C728.99 581.441 724.852 585.352 724.852 592.041V605.814H720.317ZM754.07 582.405V579.797C756.507 579.457 757.414 577.984 757.471 575.093V574.979H755.43V568.518H760.305V573.336C760.305 579.117 758.434 581.838 754.07 582.405ZM778.256 606.041C771.454 606.041 768.564 601.733 768.564 595.555V581.781H763.916V577.814H767.657C768.564 577.814 768.904 577.36 769.017 575.886L769.244 571.465H773.098V577.814H783.244V581.781H773.098V595.272C773.098 599.523 774.459 602.073 778.653 602.073C780.58 602.073 782.394 601.733 783.018 601.507V605.361C782.167 605.701 780.524 606.041 778.256 606.041ZM884.822 590.624V592.721H862.886C863.17 598.673 866.797 602.414 872.295 602.414C877 602.414 880.231 600.033 880.628 596.349H884.822C884.539 602.414 879.607 606.268 872.239 606.268C863.793 606.268 858.352 600.713 858.352 592.041C858.352 583.085 863.736 577.36 872.125 577.36C880.117 577.36 884.822 582.291 884.822 590.624ZM880.628 589.433V589.093C880.628 584.162 877.567 581.214 872.239 581.214C867.251 581.214 863.906 584.105 863.056 589.433H880.628ZM914.715 617.038V598.673H914.659C913.638 603.32 909.33 606.268 903.606 606.268C895.727 606.268 890.512 600.656 890.512 591.644C890.512 582.972 895.953 577.36 903.889 577.36C909.954 577.36 913.695 579.854 914.715 583.708H914.772V577.814H919.25V617.038H914.715ZM904.512 602.187C910.747 602.187 914.715 598.219 914.715 592.041V590.68C914.715 585.069 910.804 581.441 904.626 581.441C899.014 581.441 895.047 585.466 895.047 591.644C895.047 598.162 898.844 602.187 904.512 602.187ZM938.966 606.268C931.654 606.268 927.176 601.903 927.176 595.102V577.814H931.71V594.308C931.71 599.126 934.885 602.187 940.213 602.187C946.731 602.187 950.926 597.822 950.926 590.454V577.814H955.46V605.814H950.926C951.039 603.944 951.152 600.43 951.152 597.596H951.096C949.905 602.867 945.938 606.268 938.966 606.268ZM972.623 606.268C966.275 606.268 962.25 603.037 962.25 597.766C962.25 593.798 965.028 590.397 972.51 590.397H983.903V588.356C983.903 583.538 981.069 581.214 975.344 581.214C970.186 581.214 967.352 583.142 967.352 586.939C967.352 587.109 967.352 587.506 967.408 587.96H963.214C963.157 587.563 963.1 586.769 963.1 586.259C963.1 580.704 967.862 577.36 975.457 577.36C983.676 577.36 988.437 581.441 988.437 588.753V605.814H983.903C983.959 604.511 984.073 601.903 984.129 599.183H984.073C983.109 603.49 979.595 606.268 972.623 606.268ZM973.53 602.414C979.878 602.414 983.903 599.183 983.903 594.081V593.684H972.906C968.315 593.684 966.501 595.045 966.501 597.766C966.501 600.6 969.109 602.414 973.53 602.414ZM996.381 605.814V566.534H1000.92V605.814H996.381ZM1090.36 606.041C1083.56 606.041 1080.66 601.733 1080.66 595.555V581.781H1076.02V577.814H1079.76C1080.66 577.814 1081 577.36 1081.12 575.886L1081.35 571.465H1085.2V577.814H1095.35V581.781H1085.2V595.272C1085.2 599.523 1086.56 602.073 1090.75 602.073C1092.68 602.073 1094.5 601.733 1095.12 601.507V605.361C1094.27 605.701 1092.62 606.041 1090.36 606.041ZM1113.48 606.268C1104.81 606.268 1099.31 600.656 1099.31 591.871C1099.31 583.028 1104.81 577.36 1113.48 577.36C1122.16 577.36 1127.66 583.028 1127.66 591.871C1127.66 600.656 1122.16 606.268 1113.48 606.268ZM1113.48 602.187C1119.38 602.187 1123.12 598.162 1123.12 591.871C1123.12 585.522 1119.38 581.441 1113.48 581.441C1107.59 581.441 1103.85 585.522 1103.85 591.871C1103.85 598.162 1107.59 602.187 1113.48 602.187ZM1210.25 605.814L1201.91 577.814H1206.85L1213.31 601.053H1213.42L1221.24 577.814H1225.72L1233.26 601.053H1233.37L1240.06 577.814H1244.43L1236.09 605.814H1230.54L1223.28 583.482H1223.11L1215.63 605.814H1210.25ZM1250.03 605.814V566.534H1254.56V579.514C1254.56 581.044 1254.45 584.389 1254.45 585.409H1254.51C1256.04 580.534 1259.95 577.36 1266.64 577.36C1274.01 577.36 1278.37 581.611 1278.37 588.3V605.814H1273.84V589.263C1273.84 584.502 1271.11 581.441 1265.11 581.441C1258.7 581.441 1254.56 585.522 1254.56 592.608V605.814H1250.03ZM1295.24 606.268C1288.89 606.268 1284.87 603.037 1284.87 597.766C1284.87 593.798 1287.65 590.397 1295.13 590.397H1306.52V588.356C1306.52 583.538 1303.69 581.214 1297.96 581.214C1292.8 581.214 1289.97 583.142 1289.97 586.939C1289.97 587.109 1289.97 587.506 1290.03 587.96H1285.83C1285.78 587.563 1285.72 586.769 1285.72 586.259C1285.72 580.704 1290.48 577.36 1298.08 577.36C1306.29 577.36 1311.06 581.441 1311.06 588.753V605.814H1306.52C1306.58 604.511 1306.69 601.903 1306.75 599.183H1306.69C1305.73 603.49 1302.21 606.268 1295.24 606.268ZM1296.15 602.414C1302.5 602.414 1306.52 599.183 1306.52 594.081V593.684H1295.52C1290.93 593.684 1289.12 595.045 1289.12 597.766C1289.12 600.6 1291.73 602.414 1296.15 602.414ZM1329.83 606.041C1323.02 606.041 1320.13 601.733 1320.13 595.555V581.781H1315.49V577.814H1319.23C1320.13 577.814 1320.47 577.36 1320.59 575.886L1320.81 571.465H1324.67V577.814H1334.81V581.781H1324.67V595.272C1324.67 599.523 1326.03 602.073 1330.22 602.073C1332.15 602.073 1333.96 601.733 1334.59 601.507V605.361C1333.74 605.701 1332.09 606.041 1329.83 606.041ZM357.081 667.243V661.518H361.956V667.243H357.081ZM352.433 710.604C350.789 710.604 348.692 710.264 347.785 709.981V706.013C348.806 706.24 350.449 706.523 351.696 706.523C355.607 706.523 357.251 703.916 357.251 699.551V670.814H361.786V699.551C361.786 705.843 359.235 710.604 352.433 710.604ZM381.538 699.268C374.226 699.268 369.748 694.903 369.748 688.102V670.814H374.282V687.308C374.282 692.126 377.457 695.187 382.785 695.187C389.303 695.187 393.498 690.822 393.498 683.454V670.814H398.032V698.814H393.498C393.611 696.944 393.724 693.43 393.724 690.596H393.668C392.477 695.867 388.51 699.268 381.538 699.268ZM417.179 699.268C407.769 699.268 404.822 694.847 404.822 689.462H409.016C409.016 693.203 411.284 695.414 417.122 695.414C422.904 695.414 425.681 693.656 425.681 690.652C425.681 689.519 425.341 688.442 423.924 687.761C422.62 687.138 419.673 686.798 416.215 686.458C411.624 686.061 408.846 685.494 407.146 684.247C405.616 683.114 404.822 681.073 404.822 679.032C404.822 673.761 409.64 670.36 417.122 670.36C425.511 670.36 429.025 674.044 429.025 680.336H424.831C424.774 676.142 422.28 674.214 417.292 674.214C412.474 674.214 409.357 675.972 409.357 678.749C409.357 679.883 409.527 681.243 411.17 681.923C412.531 682.49 415.308 682.83 418.993 683.227C423.357 683.68 425.511 684.077 427.438 685.154C429.309 686.231 430.216 688.385 430.216 690.482C430.216 695.98 425.681 699.268 417.179 699.268ZM448.119 699.041C441.317 699.041 438.426 694.733 438.426 688.555V674.781H433.778V670.814H437.519C438.426 670.814 438.766 670.36 438.88 668.886L439.106 664.465H442.961V670.814H453.107V674.781H442.961V688.272C442.961 692.523 444.321 695.073 448.515 695.073C450.443 695.073 452.256 694.733 452.88 694.507V698.361C452.03 698.701 450.386 699.041 448.119 699.041ZM459.375 667.243V661.518H464.249V667.243H459.375ZM459.545 698.814V670.814H464.079V698.814H459.545ZM473.798 698.814V674.781H469.094V670.814H473.798V668.036C473.798 661.914 477.539 658.4 483.378 658.4C485.532 658.4 487.289 658.797 488.309 659.137V663.161C487.289 662.821 485.872 662.481 483.944 662.481C480.373 662.481 478.333 664.465 478.333 668.036V670.814H488.762V674.781H478.333V698.814H473.798ZM494.657 667.243V661.518H499.532V667.243H494.657ZM494.827 698.814V670.814H499.362V698.814H494.827ZM532.922 683.624V685.721H510.986C511.269 691.673 514.897 695.414 520.395 695.414C525.1 695.414 528.33 693.033 528.727 689.349H532.922C532.638 695.414 527.707 699.268 520.338 699.268C511.893 699.268 506.451 693.713 506.451 685.041C506.451 676.085 511.836 670.36 520.225 670.36C528.217 670.36 532.922 675.291 532.922 683.624ZM528.727 682.433V682.093C528.727 677.162 525.666 674.214 520.338 674.214C515.35 674.214 512.006 677.105 511.156 682.433H528.727ZM551.932 699.268C543.826 699.268 538.612 693.373 538.612 684.644C538.612 676.312 543.826 670.36 552.329 670.36C558.167 670.36 561.738 672.741 562.758 676.425H562.815V659.534H567.349V698.814H562.815C562.985 696.32 563.042 693.826 563.098 691.332H562.985C561.908 696.15 558.167 699.268 551.932 699.268ZM552.669 695.187C558.847 695.187 562.815 691.276 562.815 685.154V683.737C562.815 678.069 558.904 674.441 552.725 674.441C546.887 674.441 543.146 678.806 543.146 684.644C543.146 690.879 546.887 695.187 552.669 695.187ZM599.732 699.041C592.93 699.041 590.039 694.733 590.039 688.555V674.781H585.392V670.814H589.133C590.039 670.814 590.38 670.36 590.493 668.886L590.72 664.465H594.574V670.814H604.72V674.781H594.574V688.272C594.574 692.523 595.934 695.073 600.129 695.073C602.056 695.073 603.87 694.733 604.493 694.507V698.361C603.643 698.701 601.999 699.041 599.732 699.041ZM635.16 683.624V685.721H613.224C613.507 691.673 617.135 695.414 622.633 695.414C627.338 695.414 630.568 693.033 630.965 689.349H635.16C634.876 695.414 629.945 699.268 622.576 699.268C614.131 699.268 608.689 693.713 608.689 685.041C608.689 676.085 614.074 670.36 622.463 670.36C630.455 670.36 635.16 675.291 635.16 683.624ZM630.965 682.433V682.093C630.965 677.162 627.904 674.214 622.576 674.214C617.588 674.214 614.244 677.105 613.394 682.433H630.965ZM637.383 698.814L648.379 684.474L637.837 670.814H643.675L651.95 681.81L660.056 670.814H665.441L654.841 684.531L665.951 698.814H660.113L651.384 687.308L642.938 698.814H637.383ZM682.375 699.041C675.573 699.041 672.682 694.733 672.682 688.555V674.781H668.034V670.814H671.775C672.682 670.814 673.022 670.36 673.136 668.886L673.363 664.465H677.217V670.814H687.363V674.781H677.217V688.272C677.217 692.523 678.577 695.073 682.772 695.073C684.699 695.073 686.513 694.733 687.136 694.507V698.361C686.286 698.701 684.642 699.041 682.375 699.041ZM706.581 698.814V670.814H711.115L711.002 678.919H711.059C712.362 674.044 715.253 670.36 721.262 670.36C727.553 670.36 730.898 674.555 730.898 681.3C730.898 683.227 730.727 685.267 730.614 686.288H726.476C726.59 685.437 726.703 684.02 726.703 682.263C726.703 677.105 724.776 674.441 720.185 674.441C714.46 674.441 711.115 679.429 711.115 686.401V698.814H706.581ZM763.026 683.624V685.721H741.091C741.374 691.673 745.002 695.414 750.5 695.414C755.204 695.414 758.435 693.033 758.832 689.349H763.026C762.743 695.414 757.812 699.268 750.443 699.268C741.997 699.268 736.556 693.713 736.556 685.041C736.556 676.085 741.941 670.36 750.33 670.36C758.322 670.36 763.026 675.291 763.026 683.624ZM758.832 682.433V682.093C758.832 677.162 755.771 674.214 750.443 674.214C745.455 674.214 742.111 677.105 741.261 682.433H758.832ZM792.92 710.038V691.673H792.863C791.843 696.32 787.535 699.268 781.81 699.268C773.931 699.268 768.716 693.656 768.716 684.644C768.716 675.972 774.158 670.36 782.093 670.36C788.158 670.36 791.899 672.854 792.92 676.708H792.976V670.814H797.454V710.038H792.92ZM782.717 695.187C788.952 695.187 792.92 691.219 792.92 685.041V683.68C792.92 678.069 789.009 674.441 782.83 674.441C777.219 674.441 773.251 678.466 773.251 684.644C773.251 691.162 777.049 695.187 782.717 695.187ZM817.17 699.268C809.858 699.268 805.38 694.903 805.38 688.102V670.814H809.915V687.308C809.915 692.126 813.089 695.187 818.417 695.187C824.936 695.187 829.13 690.822 829.13 683.454V670.814H833.665V698.814H829.13C829.244 696.944 829.357 693.43 829.357 690.596H829.3C828.11 695.867 824.142 699.268 817.17 699.268ZM841.702 667.243V661.518H846.576V667.243H841.702ZM841.872 698.814V670.814H846.406V698.814H841.872ZM854.652 698.814V670.814H859.186L859.073 678.919H859.13C860.433 674.044 863.324 670.36 869.332 670.36C875.624 670.36 878.968 674.555 878.968 681.3C878.968 683.227 878.798 685.267 878.685 686.288H874.547C874.66 685.437 874.774 684.02 874.774 682.263C874.774 677.105 872.847 674.441 868.255 674.441C862.531 674.441 859.186 679.429 859.186 686.401V698.814H854.652ZM911.097 683.624V685.721H889.161C889.445 691.673 893.072 695.414 898.571 695.414C903.275 695.414 906.506 693.033 906.903 689.349H911.097C910.814 695.414 905.883 699.268 898.514 699.268C890.068 699.268 884.627 693.713 884.627 685.041C884.627 676.085 890.012 670.36 898.401 670.36C906.393 670.36 911.097 675.291 911.097 683.624ZM906.903 682.433V682.093C906.903 677.162 903.842 674.214 898.514 674.214C893.526 674.214 890.182 677.105 889.331 682.433H906.903ZM929.144 699.268C919.735 699.268 916.787 694.847 916.787 689.462H920.982C920.982 693.203 923.249 695.414 929.087 695.414C934.869 695.414 937.646 693.656 937.646 690.652C937.646 689.519 937.306 688.442 935.889 687.761C934.585 687.138 931.638 686.798 928.18 686.458C923.589 686.061 920.812 685.494 919.111 684.247C917.581 683.114 916.787 681.073 916.787 679.032C916.787 673.761 921.605 670.36 929.087 670.36C937.476 670.36 940.99 674.044 940.99 680.336H936.796C936.739 676.142 934.245 674.214 929.257 674.214C924.439 674.214 921.322 675.972 921.322 678.749C921.322 679.883 921.492 681.243 923.136 681.923C924.496 682.49 927.273 682.83 930.958 683.227C935.322 683.68 937.476 684.077 939.403 685.154C941.274 686.231 942.181 688.385 942.181 690.482C942.181 695.98 937.646 699.268 929.144 699.268ZM949.768 698.814V692.353H954.642V698.814H949.768Z" fill="#1D1D1B"/>
<path d="M671.718 197.191C678.889 205.257 682.074 222.582 684.889 232.437C687.584 241.869 664.029 247.278 656.692 247.278C643.368 247.278 625.836 253.947 613.469 257.481C601.651 260.858 596.044 273.091 586.57 280.67C575.073 289.867 588.24 301.948 588.24 312.391C588.24 327.366 581.537 330.984 574.883 342.629C558.575 371.169 568.043 403.481 551.509 432.415C547.124 440.089 533.278 449.968 524.796 450.966C516.678 451.921 506.568 464.371 500.68 470.259C483.149 487.789 483.965 521.81 500.68 538.526C509.23 547.076 520.571 548.77 528.877 557.076C537.714 565.913 528.877 593.417 528.877 606C528.877 619.273 538.681 623.591 545.573 634.619C549.801 641.384 567.66 647.703 574.883 651.314" stroke="#E1FF28" stroke-opacity="0.6" stroke-width="43.0784" stroke-linecap="round"/>
<path d="M737.201 163.8C744.447 163.075 751.833 159.373 758.72 157.122C783.717 148.949 810.044 147.742 835.891 143.765C890.696 135.334 946.274 136.189 1000.99 127.069" stroke="#E1FF28" stroke-width="3.40092" stroke-linecap="round"/>
<path d="M984.295 113.713C986.909 134.622 1026.55 117.114 1004.33 150.443" stroke="#E1FF28" stroke-width="3.40092" stroke-linecap="round"/>
<path d="M1031.05 120.392C1031.05 131.198 1031.05 135.227 1031.05 121.876C1031.05 110.304 1040.38 111.736 1044.4 103.696" stroke="#E1FF28" stroke-width="3.40092" stroke-linecap="round"/>
<path d="M1054.42 107.035C1054.42 112.946 1052.39 121.043 1057.76 123.731" stroke="#E1FF28" stroke-width="3.40092" stroke-linecap="round"/>
<path d="M1044.4 87C1049.08 87.5199 1055.94 90.0419 1057.76 93.6783" stroke="#E1FF28" stroke-width="3.40092" stroke-linecap="round"/>
<path d="M1064.44 113.713C1080.07 131.3 1076.64 123.789 1087.81 107.035" stroke="#E1FF28" stroke-width="3.40092" stroke-linecap="round"/>
<path d="M1094.49 117.052C1102.6 117.052 1110.05 115.292 1116.19 110.374C1120.24 107.134 1104.02 106.042 1100.43 109.632C1083.41 126.65 1106.45 131.987 1121.2 127.07" stroke="#E1FF28" stroke-width="3.40092" stroke-linecap="round"/>
<path d="M1127.88 117.052C1127.88 132.576 1127.58 118.533 1127.88 111.115C1128.25 101.824 1136.36 104.598 1141.24 107.034" stroke="#E1FF28" stroke-width="3.40092" stroke-linecap="round"/>
<path d="M1161.27 110.374C1160.06 99.461 1152.32 106.403 1148.66 111.116C1147.1 113.115 1156.52 120.292 1157.93 122.061C1169.12 136.041 1144.58 143.358 1144.58 130.409" stroke="#E1FF28" stroke-width="3.40092" stroke-linecap="round"/>
</svg>
