<svg width="1690" height="833" viewBox="0 0 1690 833" fill="none" xmlns="http://www.w3.org/2000/svg">
<rect width="1690" height="833" fill="#C8C3F0"/>
<rect x="202" y="65" width="102" height="102" rx="3" fill="#1D1D1B"/>
<rect x="370" y="65" width="102" height="102" rx="3" fill="#E1FF28"/>
<rect x="538" y="65" width="102" height="102" rx="3" fill="#E1FF28"/>
<rect x="706" y="65" width="102" height="102" rx="3" fill="#E1FF28"/>
<rect x="874" y="65" width="102" height="102" rx="3" fill="#1D1D1B"/>
<rect x="1042" y="65" width="102" height="102" rx="3" fill="#E1FF28"/>
<rect x="1210" y="65" width="102" height="102" rx="3" fill="#E1FF28"/>
<rect x="1378" y="65" width="102" height="102" rx="3" fill="#E1FF28"/>
<rect x="1546" y="65" width="102" height="102" rx="3" fill="#1D1D1B"/>
<rect x="162" y="215" width="102" height="102" rx="3" fill="#E1FF28"/>
<rect x="330" y="215" width="102" height="102" rx="3" fill="#E1FF28"/>
<rect x="498" y="215" width="102" height="102" rx="3" fill="#E1FF28"/>
<rect x="666" y="215" width="102" height="102" rx="3" fill="#E1FF28"/>
<rect x="834" y="215" width="102" height="102" rx="3" fill="#E1FF28"/>
<rect x="1002" y="215" width="102" height="102" rx="3" fill="#E1FF28"/>
<rect x="1170" y="215" width="102" height="102" rx="3" fill="#E1FF28"/>
<rect x="1338" y="215" width="102" height="102" rx="3" fill="#E1FF28"/>
<rect x="1506" y="215" width="102" height="102" rx="3" fill="#E1FF28"/>
<rect x="122" y="365" width="102" height="102" rx="3" fill="#E1FF28"/>
<rect x="290" y="365" width="102" height="102" rx="3" fill="#E1FF28"/>
<rect x="458" y="365" width="102" height="102" rx="3" fill="#E1FF28"/>
<rect x="626" y="365" width="102" height="102" rx="3" fill="#E1FF28"/>
<rect x="794" y="365" width="102" height="102" rx="3" fill="#E1FF28"/>
<rect x="962" y="365" width="102" height="102" rx="3" fill="#E1FF28"/>
<rect x="1130" y="365" width="102" height="102" rx="3" fill="#E1FF28"/>
<rect x="1298" y="365" width="102" height="102" rx="3" fill="#E1FF28"/>
<rect x="1466" y="365" width="102" height="102" rx="3" fill="#E1FF28"/>
<rect x="82" y="515" width="102" height="102" rx="3" fill="#E1FF28"/>
<rect x="250" y="515" width="102" height="102" rx="3" fill="#E1FF28"/>
<rect x="418" y="515" width="102" height="102" rx="3" fill="#E1FF28"/>
<rect x="586" y="515" width="102" height="102" rx="3" fill="#E1FF28"/>
<rect x="754" y="515" width="102" height="102" rx="3" fill="#E1FF28"/>
<rect x="922" y="515" width="102" height="102" rx="3" fill="#E1FF28"/>
<rect x="1090" y="515" width="102" height="102" rx="3" fill="#E1FF28"/>
<rect x="1258" y="515" width="102" height="102" rx="3" fill="#E1FF28"/>
<rect x="1426" y="515" width="102" height="102" rx="3" fill="#E1FF28"/>
<rect x="42" y="665" width="102" height="102" rx="3" fill="#1D1D1B"/>
<rect x="210" y="665" width="102" height="102" rx="3" fill="#E1FF28"/>
<rect x="378" y="665" width="102" height="102" rx="3" fill="#E1FF28"/>
<rect x="546" y="665" width="102" height="102" rx="3" fill="#E1FF28"/>
<rect x="714" y="665" width="102" height="102" rx="3" fill="#1D1D1B"/>
<rect x="882" y="665" width="102" height="102" rx="3" fill="#E1FF28"/>
<rect x="1050" y="665" width="102" height="102" rx="3" fill="#E1FF28"/>
<rect x="1218" y="665" width="102" height="102" rx="3" fill="#E1FF28"/>
<rect x="1386" y="665" width="102" height="102" rx="3" fill="#1D1D1B"/>
</svg>
