<svg xmlns="http://www.w3.org/2000/svg" width="1625" height="893" viewBox="0 0 1625 893" fill="none">
<g clip-path="url(#clip0_0_3)">
<rect width="1624.94" height="893" fill="#F5F0FF"/>
<path d="M536.874 170.905C578.034 279.174 510.03 338.231 510.03 338.231L343.474 462.212L386.424 523.935L658.44 319.69L826.785 185.221L909.106 94.8477L970.847 2.55108e-05C815.153 -3.57914 492.134 6.07967e-06 493.924 1.66893e-06C493.924 1.66893e-06 493.924 42.9499 507.346 78.7415C520.767 114.533 536.874 170.905 536.874 170.905Z" fill="#A5A0DC"/>
<path d="M1625.83 -1.78957V390.128L1606.15 394.602L1568.57 370.443L1557.83 383.865L1531.88 370.443L1526.51 333.757H1492.51L1461.19 360.958L1506.38 394.602V416.972L1386.92 443.816L1355.61 376.706L1306.39 390.128L1333.24 462.606L1057.3 535.567L1026.61 360.958L1005.4 365.199L1036.13 540.793L764.114 593.711L760.947 584.172L705.989 578.893L699.636 552.425L577.855 538.681L596.914 510.048L570.536 490.058L485.889 587.429C485.889 587.429 427.674 555.682 427.674 552.497C427.674 549.311 428.747 532.4 428.747 532.4L832.96 214.929C832.96 214.929 904.632 149.43 934.16 110.059C963.688 70.6884 1014.69 -1.78957 1014.69 -1.78957H1625.83Z" fill="#A5A0DC"/>
<path d="M-3.57922 442.026L444.585 752.518L518.656 767.336L672.094 795.897L679.503 892.195H-3.57922V442.026Z" fill="#A5A0DC"/>
<path d="M715.491 896.436L708.083 814.957L742.997 816.012L764.168 740.868L782.153 742.998L785.339 736.645L1110.22 829.774L1109.16 836.109L1332.45 899.604L715.491 896.436Z" fill="#A5A0DC"/>
<path d="M974.766 679.485L982.121 710.177L1070.54 696.433L1626.73 851.84V767.729L1174.75 641.403L974.766 679.485Z" fill="#A5A0DC"/>
<path d="M331.34 441.382L487.66 326.598C487.66 326.598 546.412 277.349 525.241 202.222C525.241 202.222 510.03 148.535 493.029 108.27C476.028 68.004 478.712 -5.36873 478.712 -5.36873H166.431L259.381 395.837L304.89 400.06L331.34 441.382Z" fill="#A5A0DC"/>
<path d="M1023.64 44.7395L1048.69 -32.2124" stroke="#C8BEFF" stroke-width="26.8437"/>
<path d="M1030.8 46.4171L1125.64 -23.2645" stroke="#C8BEFF" stroke-width="26.8437"/>
<path d="M233.325 612.877L380.017 516.168" stroke="#787AFF" stroke-width="1.78958" stroke-miterlimit="10" stroke-dasharray="7.16 7.16"/>
<path d="M351.187 684.747C348.914 671.379 348.95 648.257 371.552 635.05C427.637 602.247 482.667 642.459 544.05 619.177C564.057 611.589 603.249 588.825 606.667 540.453" stroke="#787AFF" stroke-width="1.78958" stroke-miterlimit="10" stroke-dasharray="7.1 7.1"/>
<path d="M592.243 547.253C592.243 546.09 592.351 544.891 592.386 543.674" stroke="#F6F6F6" stroke-width="1.34218" stroke-miterlimit="10"/>
<path d="M605.772 541.348C610.246 518.978 639.595 469.12 653.107 456.915C666.618 444.71 681.973 439.968 712.306 447.735L763.112 456.915C763.112 456.915 803.521 465.291 833.944 456.915C833.944 456.915 870.63 447.735 899.263 413.16L959.232 341.917C959.232 341.917 1003.06 288.122 1034.73 281.948L1095.4 265.717L1150.36 253.011C1150.36 253.011 1173.96 246.962 1190.64 212.799L1224.07 156.588" stroke="#C8BEFF" stroke-width="23.2645" stroke-miterlimit="10"/>
<path d="M1145.49 253.029L1147.6 262.191L1165.91 376.706" stroke="#C8BEFF" stroke-width="14.3166" stroke-miterlimit="10"/>
<path d="M1346.67 244.692L1352.92 234.435L1299.91 321.479C1279.25 365.019 1256.54 365.713 1254.51 366.426C1252.48 367.138 1070.71 403.626 1070.71 403.626C1050.76 407.828 1050.76 394.49 1050.76 394.49L1030.8 285.685" stroke="#C8BEFF" stroke-opacity="0.22" stroke-width="14.3166" stroke-miterlimit="10"/>
<path d="M737.306 896.579L686.304 559.243C686.304 559.243 672.881 476.923 697.041 408.919" stroke="#5550A0" stroke-opacity="0.2" stroke-width="21.4749" stroke-miterlimit="10"/>
<path d="M696.146 411.388C696.146 411.388 730.721 321.784 795.629 269.582C860.537 217.38 1025.43 34.002 1025.43 34.002" stroke="#9590D0" stroke-width="21.4749" stroke-miterlimit="10"/>
<path d="M738.201 -5.36873C738.201 -5.36873 790.099 113.638 795.468 132.429C800.837 151.219 792.784 163.746 792.784 173.589C792.784 183.432 791.323 196.102 811.116 216.539L952.493 348.968" stroke="#C8BEFF" stroke-width="19.6854" stroke-miterlimit="10"/>
<path d="M692.947 638.39L693.204 640.074L702.517 638.652L702.26 636.968L692.947 638.39ZM693.84 645.188C694.19 647.481 695.806 648.581 698.552 648.162L703.845 647.354L703.586 645.656L698.179 646.481C696.396 646.753 695.435 646.147 695.247 644.915C695.059 643.684 695.78 642.908 697.139 642.7C697.634 642.625 698.174 642.557 698.502 642.521L698.271 641.007C697.943 641.043 697.344 641.105 696.863 641.178C694.613 641.522 693.497 642.938 693.84 645.188ZM695.174 653.55C695.263 654.13 695.436 654.596 695.539 654.798L696.798 654.606C696.711 654.416 696.572 653.974 696.511 653.578C696.364 652.615 696.765 652.207 697.671 652.068L700.799 651.591L701.166 653.997L702.454 653.8L702.087 651.394L703.672 651.152L703.471 649.836L702.413 649.925C702.01 649.943 701.853 649.866 701.812 649.597L701.676 648.705L700.388 648.902L700.557 650.006L697.344 650.496C695.801 650.732 694.883 651.639 695.174 653.55ZM695.981 659.022C696.218 660.579 697.103 661.443 698.479 661.537L698.481 661.551C697.745 661.663 696.991 661.75 696.517 661.778L696.759 663.364L703.751 662.296L703.509 660.711L700.409 661.184C698.711 661.444 697.627 660.697 697.411 659.281C697.236 658.135 697.755 657.361 698.859 657.192L702.878 656.579L702.636 654.994L698.39 655.642C696.536 655.925 695.702 657.196 695.981 659.022ZM697.001 664.949L697.243 666.534L700.626 666.018C702.154 665.785 703.123 666.535 703.335 667.922C703.527 669.181 703 669.899 701.896 670.068L697.876 670.681L698.118 672.266L702.491 671.599C704.218 671.335 705.057 670.092 704.787 668.323C704.538 666.695 703.678 665.9 702.36 665.71L702.358 665.696L704.235 665.467L703.993 663.882L697.001 664.949ZM698.35 673.781L698.591 675.366L701.974 674.85C703.502 674.616 704.471 675.366 704.683 676.753C704.875 678.013 704.348 678.731 703.244 678.899L699.224 679.513L699.466 681.098L703.84 680.43C705.566 680.167 706.405 678.924 706.135 677.155C705.886 675.527 705.026 674.731 703.708 674.542L703.706 674.527L705.583 674.299L705.341 672.714L698.35 673.781ZM704.459 688.664C706.639 688.331 707.621 686.892 707.319 684.911C706.982 682.703 705.369 681.53 703.104 681.875C700.911 682.21 699.764 683.805 700.101 686.012C700.392 687.923 701.535 689.052 703.1 688.871L702.882 687.442C702.051 687.496 701.492 686.872 701.336 685.853C701.155 684.664 701.762 683.804 703.094 683.513L703.893 688.75L704.459 688.664ZM704.637 687.174L704.063 683.409C705.251 683.416 705.923 684.023 706.089 685.113C706.264 686.259 705.784 686.999 704.736 687.159L704.637 687.174ZM700.926 690.657L701.168 692.242L710.975 690.745L710.733 689.16L700.926 690.657Z" fill="#5550A0"/>
<path d="M877.635 439.172L878.738 437.988L872.809 432.507L872.828 432.486L880.699 435.882L881.674 434.835L877.726 427.226L877.746 427.205L883.626 432.739L884.796 431.482L877.902 425.062L876.078 427.021L879.558 433.725L879.539 433.746L872.614 430.741L870.741 432.753L877.635 439.172ZM887.76 422.733C886.146 421.23 884.408 421.353 883.042 422.82C881.52 424.454 881.601 426.447 883.278 428.008C884.902 429.52 886.864 429.43 888.386 427.795C889.703 426.381 889.879 424.784 888.765 423.669L887.78 424.727C888.339 425.346 888.196 426.171 887.494 426.926C886.674 427.806 885.623 427.863 884.569 426.999L888.179 423.123L887.76 422.733ZM886.481 423.518L883.886 426.305C883.153 425.368 883.212 424.465 883.964 423.658C884.754 422.809 885.632 422.727 886.408 423.449L886.481 423.518ZM893.276 416.808C891.663 415.306 889.925 415.428 888.559 416.895C887.037 418.53 887.118 420.522 888.794 422.084C890.418 423.596 892.38 423.506 893.902 421.871C895.219 420.457 895.396 418.86 894.282 417.745L893.297 418.803C893.856 419.421 893.713 420.247 893.01 421.001C892.191 421.881 891.139 421.939 890.085 421.075L893.695 417.199L893.276 416.808ZM891.998 417.593L889.402 420.38C888.67 419.444 888.729 418.54 889.48 417.734C890.27 416.885 891.149 416.803 891.924 417.525L891.998 417.593ZM899.068 416.324C900.141 415.172 900.269 413.941 899.489 412.804L899.499 412.794C900.044 413.301 900.58 413.839 900.896 414.192L901.989 413.019L896.813 408.199L895.72 409.373L898.015 411.509C899.272 412.68 899.36 413.994 898.384 415.042C897.594 415.89 896.664 415.964 895.847 415.203L892.871 412.432L891.779 413.606L894.922 416.533C896.295 417.811 897.809 417.676 899.068 416.324ZM904.136 410.713L905.433 409.32L902.713 404.615L902.742 404.584L907.59 407.004L908.936 405.559L905.155 399.241L904.121 400.351L907.109 405.168L907.089 405.189L901.965 402.667L900.882 403.83L903.733 408.793L903.714 408.814L898.726 406.145L897.565 407.392L904.136 410.713ZM912.704 395.946C911.09 394.443 909.352 394.566 907.986 396.033C906.464 397.667 906.545 399.66 908.222 401.221C909.846 402.733 911.808 402.643 913.33 401.008C914.647 399.594 914.823 397.997 913.709 396.882L912.724 397.94C913.283 398.559 913.14 399.384 912.438 400.139C911.618 401.019 910.567 401.076 909.513 400.212L913.123 396.336L912.704 395.946ZM911.425 396.731L908.83 399.518C908.097 398.581 908.156 397.678 908.907 396.871C909.698 396.022 910.576 395.94 911.351 396.662L911.425 396.731ZM916.431 397.51L917.523 396.337L915.019 394.005C913.888 392.951 913.874 391.726 914.831 390.699C915.699 389.767 916.589 389.735 917.406 390.496L920.382 393.267L921.475 392.093L918.237 389.079C916.959 387.888 915.464 388.002 914.244 389.312C913.122 390.517 913.032 391.685 913.701 392.836L913.692 392.847L912.348 391.517L911.255 392.691L916.431 397.51ZM922.548 390.941L923.641 389.767L916.38 383.006L915.287 384.179L922.548 390.941ZM926.559 386.802C927.622 385.66 927.737 384.613 927.128 383.733L927.138 383.722C927.557 384.113 927.999 384.583 928.231 384.838L929.324 383.665L926.17 380.728C924.808 379.46 923.205 379.689 921.742 381.261C920.366 382.738 920.145 384.215 921.183 385.18C921.277 385.268 921.423 385.385 921.506 385.442L922.511 384.363C922.417 384.296 922.333 384.218 922.302 384.188C921.726 383.652 921.841 382.918 922.583 382.122C923.432 381.21 924.197 381.082 924.972 381.804L925.339 382.145L923.554 384.063C922.266 385.446 922.367 386.577 923.153 387.308C924.159 388.245 925.456 387.986 926.559 386.802ZM925.903 385.742C925.239 386.454 924.577 386.619 924.105 386.18C923.697 385.8 923.739 385.292 924.364 384.621L926.052 382.809L926.146 382.897C926.942 383.638 926.849 384.725 925.903 385.742ZM932.151 380.796C933.215 379.654 933.329 378.607 932.721 377.727L932.73 377.716C933.15 378.106 933.592 378.577 933.824 378.832L934.916 377.659L931.763 374.722C930.401 373.453 928.798 373.683 927.335 375.254C925.959 376.732 925.738 378.208 926.775 379.174C926.87 379.262 927.016 379.378 927.099 379.436L928.104 378.357C928.01 378.29 927.926 378.211 927.895 378.182C927.319 377.646 927.434 376.912 928.176 376.116C929.025 375.204 929.79 375.076 930.565 375.798L930.932 376.139L929.147 378.057C927.859 379.44 927.96 380.571 928.746 381.302C929.751 382.239 931.049 381.98 932.151 380.796ZM931.496 379.735C930.832 380.448 930.17 380.613 929.698 380.174C929.289 379.794 929.332 379.286 929.957 378.615L931.644 376.803L931.739 376.89C932.535 377.632 932.442 378.719 931.496 379.735ZM935.963 376.535L937.056 375.361L934.551 373.03C933.42 371.976 933.407 370.751 934.363 369.724C935.231 368.791 936.121 368.76 936.939 369.521L939.914 372.292L941.007 371.118L937.769 368.103C936.491 366.913 934.996 367.027 933.776 368.337C932.654 369.542 932.564 370.71 933.233 371.861L933.224 371.872L931.88 370.542L930.787 371.715L935.963 376.535Z" fill="#5550A0"/>
<path d="M861.943 214.231L863.161 213.04L856.577 206.303L855.359 207.494L861.943 214.231ZM866.946 209.542C868.604 207.921 868.556 205.966 866.615 203.98L862.872 200.151L861.644 201.351L865.466 205.263C866.727 206.553 866.795 207.687 865.904 208.558C865.013 209.429 863.962 209.295 863.001 208.312C862.651 207.954 862.281 207.555 862.061 207.309L860.966 208.38C861.186 208.625 861.585 209.075 861.926 209.423C863.517 211.051 865.318 211.133 866.946 209.542ZM872.962 203.583C873.381 203.172 873.659 202.761 873.763 202.559L872.872 201.648C872.769 201.829 872.492 202.2 872.205 202.481C871.509 203.161 870.943 203.074 870.302 202.418L868.091 200.155L869.831 198.454L868.921 197.523L867.18 199.224L866.059 198.077L865.107 199.008L865.797 199.815C866.046 200.132 866.074 200.304 865.88 200.494L865.235 201.125L866.145 202.057L866.944 201.276L869.215 203.6C870.306 204.716 871.579 204.934 872.962 203.583ZM876.937 199.738C878.063 198.637 878.25 197.414 877.524 196.241L877.534 196.231C878.055 196.764 878.564 197.326 878.864 197.694L880.011 196.574L875.068 191.516L873.921 192.636L876.112 194.879C877.313 196.107 877.338 197.424 876.314 198.424C875.485 199.235 874.553 199.265 873.773 198.466L870.931 195.558L869.784 196.679L872.786 199.751C874.097 201.092 875.616 201.028 876.937 199.738ZM881.158 195.452L882.305 194.332L879.913 191.885C878.833 190.779 878.877 189.554 879.88 188.574C880.792 187.683 881.682 187.693 882.463 188.492L885.305 191.4L886.452 190.279L883.36 187.115C882.139 185.866 880.64 185.91 879.36 187.16C878.183 188.311 878.038 189.474 878.652 190.655L878.641 190.665L877.362 189.274L876.215 190.394L881.158 195.452ZM887.547 189.208L888.694 188.088L886.303 185.64C885.222 184.535 885.266 183.31 886.27 182.329C887.181 181.439 888.072 181.449 888.852 182.248L891.694 185.156L892.841 184.035L889.749 180.871C888.528 179.622 887.029 179.665 885.749 180.916C884.572 182.067 884.427 183.23 885.041 184.411L885.031 184.421L883.751 183.029L882.604 184.15L887.547 189.208ZM896.077 175.568C894.536 173.991 892.794 174.032 891.361 175.432C889.763 176.993 889.751 178.988 891.352 180.626C892.903 182.213 894.867 182.215 896.464 180.654C897.846 179.304 898.097 177.717 897.038 176.551L896.003 177.561C896.533 178.205 896.351 179.023 895.614 179.744C894.754 180.584 893.701 180.592 892.689 179.68L896.477 175.977L896.077 175.568ZM894.763 176.292L892.039 178.953C891.352 177.984 891.453 177.084 892.242 176.313C893.071 175.503 893.952 175.462 894.693 176.22L894.763 176.292ZM899.757 177.276L900.904 176.155L893.969 169.06L892.823 170.18L899.757 177.276Z" fill="#5550A0"/>
<path d="M841.459 250.744L842.726 251.904L845.56 248.812L849.254 252.198L846.42 255.29L847.676 256.441L854.041 249.496L852.785 248.345L850.183 251.184L846.489 247.799L849.091 244.96L847.824 243.799L841.459 250.744ZM850.71 259.377C851.86 260.431 852.908 260.538 853.784 259.922L853.794 259.932C853.407 260.354 852.94 260.8 852.687 261.034L853.869 262.117L856.781 258.94C858.038 257.568 857.796 255.968 856.213 254.517C854.725 253.153 853.246 252.944 852.289 253.988C852.202 254.083 852.087 254.23 852.029 254.314L853.116 255.31C853.183 255.216 853.261 255.132 853.29 255.1C853.822 254.519 854.556 254.629 855.358 255.365C856.276 256.206 856.411 256.97 855.695 257.751L855.357 258.121L853.425 256.351C852.032 255.074 850.902 255.184 850.176 255.975C849.248 256.989 849.517 258.284 850.71 259.377ZM851.765 258.713C851.047 258.055 850.877 257.394 851.312 256.919C851.689 256.507 852.198 256.546 852.873 257.165L854.699 258.838L854.612 258.933C853.877 259.736 852.789 259.651 851.765 258.713ZM856.622 264.641L858.026 265.927L865.063 262.783L863.828 261.652L858.409 264.239L858.387 264.219L860.514 258.614L859.132 257.347L856.622 264.641ZM866.464 262.94L867.677 264.053L868.741 262.892L867.528 261.779L866.464 262.94ZM861.135 268.776L862.317 269.859L867.095 264.646L865.913 263.562L861.135 268.776ZM863.587 271.024L864.769 272.108L865.901 270.873L867.826 270.87L867.651 274.748L869.255 276.219L869.379 270.914L873.896 270.879L872.366 269.476L867.053 269.637L867.043 269.627L871.473 264.793L870.291 263.71L863.587 271.024ZM872.014 278.903C873.682 280.431 875.139 280.621 876.107 279.566C876.494 279.144 876.661 278.559 876.486 278.05C876.31 277.5 875.956 277.039 875.285 276.288C874.71 275.644 874.262 275.137 874.086 274.82C873.877 274.434 874.017 274.175 874.221 273.953C874.627 273.51 875.362 273.64 876.185 274.395C877.051 275.188 877.12 275.853 876.512 276.539L877.578 277.516C878.661 276.334 878.563 275 876.937 273.511C875.523 272.214 873.929 271.919 872.972 272.964C872.604 273.365 872.425 273.9 872.516 274.372C872.62 274.894 873.072 275.503 873.817 276.322C874.349 276.906 874.797 277.414 874.963 277.741C875.151 278.087 875.06 278.335 874.876 278.535C874.441 279.01 873.748 278.919 872.787 278.038C871.774 277.11 871.764 276.421 872.316 275.82L871.25 274.843C870.312 275.866 870.22 277.259 872.014 278.903ZM875.698 282.124L876.88 283.207L883.584 275.893L882.402 274.81L875.698 282.124ZM879.868 286.101C881.019 287.156 882.067 287.262 882.942 286.646L882.953 286.656C882.566 287.078 882.099 287.524 881.845 287.758L883.028 288.841L885.939 285.664C887.197 284.292 886.955 282.692 885.372 281.241C883.883 279.877 882.405 279.668 881.447 280.713C881.36 280.808 881.245 280.954 881.188 281.038L882.275 282.034C882.342 281.94 882.419 281.856 882.448 281.824C882.98 281.244 883.715 281.353 884.517 282.089C885.435 282.93 885.57 283.694 884.854 284.475L884.515 284.845L882.584 283.075C881.191 281.798 880.061 281.908 879.335 282.699C878.406 283.713 878.676 285.008 879.868 286.101ZM880.924 285.437C880.206 284.779 880.035 284.118 880.47 283.643C880.848 283.231 881.356 283.27 882.032 283.889L883.857 285.563L883.77 285.658C883.035 286.46 881.947 286.375 880.924 285.437ZM885.918 291.646C887.069 292.701 888.117 292.807 888.992 292.191L889.003 292.201C888.616 292.623 888.149 293.069 887.896 293.303L889.078 294.386L891.989 291.21C893.247 289.837 893.005 288.237 891.422 286.786C889.934 285.422 888.455 285.213 887.498 286.258C887.41 286.353 887.295 286.499 887.238 286.583L888.325 287.579C888.392 287.485 888.469 287.401 888.498 287.369C889.03 286.789 889.765 286.899 890.567 287.634C891.485 288.475 891.62 289.24 890.904 290.021L890.565 290.39L888.634 288.62C887.241 287.343 886.111 287.453 885.385 288.245C884.457 289.258 884.726 290.553 885.918 291.646ZM886.974 290.982C886.256 290.324 886.085 289.663 886.521 289.188C886.898 288.776 887.406 288.815 888.082 289.434L889.908 291.108L889.821 291.203C889.085 292.005 887.998 291.92 886.974 290.982ZM890.21 295.424L891.392 296.507L893.704 293.985C894.748 292.845 895.973 292.822 897.008 293.77C897.947 294.631 897.986 295.521 897.231 296.344L894.484 299.341L895.666 300.425L898.655 297.164C899.835 295.876 899.71 294.382 898.39 293.173C897.176 292.06 896.008 291.979 894.862 292.657L894.851 292.648L896.17 291.293L894.988 290.21L890.21 295.424Z" fill="#5550A0"/>
<path d="M192.161 717L191.177 714.351H185.683L184.681 717H182.462L187.258 705.225H189.87L194.649 717H192.161ZM186.22 712.92H190.64L188.457 707.05H188.421L186.22 712.92ZM196.038 717V708.159H198.042L197.971 710.486H197.988C198.382 708.965 199.456 708.016 201.067 708.016C202.785 708.016 203.894 708.911 204.109 710.343H204.127C204.449 708.911 205.523 708.016 207.205 708.016C209.173 708.016 210.301 709.287 210.301 711.363V717H208.296V711.81C208.296 710.522 207.67 709.734 206.471 709.734C205.075 709.734 204.18 710.772 204.18 712.616V717H202.176V711.774C202.176 710.522 201.514 709.734 200.315 709.734C198.955 709.734 198.042 710.79 198.042 712.687V717H196.038ZM216.086 717.143C213.044 717.143 211.953 715.783 211.953 714.047H213.76C213.76 715.067 214.351 715.694 216.069 715.694C217.697 715.694 218.413 715.193 218.413 714.387C218.413 714.047 218.288 713.743 217.822 713.582C217.393 713.421 216.552 713.331 215.567 713.242C214.19 713.117 213.259 712.938 212.722 712.544C212.239 712.186 211.953 711.542 211.953 710.862C211.953 709.09 213.671 708.016 216.069 708.016C218.825 708.016 220.041 709.162 220.041 711.166H218.234C218.216 710.021 217.59 709.466 216.122 709.466C214.726 709.466 213.939 709.967 213.939 710.719C213.939 711.094 214.028 711.452 214.547 711.631C214.977 711.774 215.818 711.864 216.892 711.971C218.144 712.097 218.86 712.222 219.487 712.58C220.077 712.902 220.417 713.582 220.417 714.298C220.417 716.087 218.914 717.143 216.086 717.143ZM226.085 717.107C223.669 717.107 222.72 715.801 222.72 713.85V709.788H221.324V708.159H222.452C222.792 708.159 222.917 707.981 222.971 707.479L223.06 706.155H224.725V708.159H227.767V709.788H224.725V713.743C224.725 714.888 225.154 715.461 226.371 715.461C226.872 715.461 227.445 715.371 227.695 715.3V716.893C227.427 716.982 226.818 717.107 226.085 717.107ZM237.391 712.258V712.973H230.77C230.877 714.674 231.825 715.586 233.329 715.586C234.617 715.586 235.494 715.014 235.584 713.976H237.391C237.319 715.944 235.709 717.143 233.293 717.143C230.501 717.143 228.747 715.425 228.747 712.651C228.747 709.788 230.501 708.016 233.293 708.016C235.798 708.016 237.391 709.502 237.391 712.258ZM235.584 711.757V711.631C235.584 710.307 234.76 709.573 233.311 709.573C231.933 709.573 231.056 710.289 230.823 711.757H235.584ZM239.135 717V708.159H241.139L241.067 710.701H241.085C241.497 709.108 242.409 708.016 244.235 708.016C246.15 708.016 247.206 709.269 247.206 711.47C247.206 712.025 247.152 712.741 247.116 713.117H245.291C245.327 712.777 245.362 712.329 245.362 711.918C245.362 710.432 244.79 709.734 243.609 709.734C242.087 709.734 241.139 711.023 241.139 713.135V717H239.135ZM252.823 717.143C250.264 717.143 248.653 715.282 248.653 712.526C248.653 709.86 250.317 708.016 252.948 708.016C254.612 708.016 255.65 708.678 256.008 709.716H256.026V704.598H258.03V717H256.026C256.062 716.481 256.08 715.712 256.115 714.853H256.08C255.74 716.248 254.63 717.143 252.823 717.143ZM253.234 715.497C254.916 715.497 256.026 714.387 256.026 712.669V712.24C256.026 710.665 254.934 709.663 253.27 709.663C251.677 709.663 250.639 710.844 250.639 712.526C250.639 714.28 251.659 715.497 253.234 715.497ZM263.203 717.143C261.18 717.143 259.838 716.177 259.838 714.459C259.838 713.117 260.787 712.061 263.149 712.061H266.424V711.434C266.424 710.11 265.654 709.52 264.097 709.52C262.737 709.52 261.968 710.039 261.968 711.023C261.968 711.076 261.968 711.22 261.986 711.363H260.142C260.125 711.238 260.107 711.005 260.107 710.844C260.107 709.072 261.646 708.016 264.169 708.016C266.853 708.016 268.428 709.287 268.428 711.613V717H266.424C266.46 716.571 266.513 715.765 266.513 715.049H266.495C266.209 716.356 265.153 717.143 263.203 717.143ZM263.614 715.64C265.35 715.64 266.424 714.799 266.424 713.439V713.278H263.328C262.183 713.278 261.681 713.671 261.681 714.369C261.681 715.175 262.397 715.64 263.614 715.64ZM270.347 717V708.159H272.352L272.28 710.486H272.298C272.692 708.965 273.765 708.016 275.376 708.016C277.094 708.016 278.204 708.911 278.418 710.343H278.436C278.758 708.911 279.832 708.016 281.514 708.016C283.483 708.016 284.61 709.287 284.61 711.363V717H282.606V711.81C282.606 710.522 281.98 709.734 280.781 709.734C279.385 709.734 278.49 710.772 278.49 712.616V717H276.486V711.774C276.486 710.522 275.823 709.734 274.624 709.734C273.264 709.734 272.352 710.79 272.352 712.687V717H270.347ZM171.628 739.179C168.12 739.179 165.579 736.87 165.579 733.13C165.579 729.372 168.084 727.046 171.628 727.046C174.724 727.046 176.925 728.889 176.925 731.609C176.925 731.734 176.907 731.967 176.889 732.182H174.992C175.01 732.021 175.01 731.877 175.01 731.788C175.01 729.981 173.596 728.835 171.699 728.835C169.409 728.835 167.762 730.5 167.762 733.13C167.762 735.761 169.48 737.389 171.699 737.389C173.668 737.389 175.046 736.262 175.046 734.562V734.276H176.961V734.687C176.961 737.354 174.742 739.179 171.628 739.179ZM187.12 734.258V734.973H180.499C180.606 736.674 181.555 737.586 183.058 737.586C184.346 737.586 185.223 737.014 185.313 735.976H187.12C187.049 737.944 185.438 739.143 183.022 739.143C180.23 739.143 178.477 737.425 178.477 734.651C178.477 731.788 180.23 730.016 183.022 730.016C185.528 730.016 187.12 731.502 187.12 734.258ZM185.313 733.757V733.631C185.313 732.307 184.49 731.573 183.04 731.573C181.662 731.573 180.785 732.289 180.552 733.757H185.313ZM188.864 739V730.159H190.868L190.797 732.522H190.814C191.298 730.929 192.443 730.016 194.501 730.016C196.738 730.016 198.116 731.287 198.116 733.47V739H196.112V733.918C196.112 732.522 195.324 731.734 193.731 731.734C191.978 731.734 190.868 732.79 190.868 734.723V739H188.864ZM203.968 739.107C201.552 739.107 200.604 737.801 200.604 735.85V731.788H199.208V730.159H200.335C200.675 730.159 200.801 729.981 200.854 729.479L200.944 728.155H202.608V730.159H205.65V731.788H202.608V735.743C202.608 736.888 203.038 737.461 204.255 737.461C204.756 737.461 205.328 737.371 205.579 737.3V738.893C205.31 738.982 204.702 739.107 203.968 739.107ZM207.249 739V730.159H209.253L209.182 732.701H209.2C209.611 731.108 210.524 730.016 212.349 730.016C214.264 730.016 215.32 731.269 215.32 733.47C215.32 734.025 215.266 734.741 215.23 735.117H213.405C213.441 734.777 213.477 734.329 213.477 733.918C213.477 732.432 212.904 731.734 211.723 731.734C210.202 731.734 209.253 733.023 209.253 735.135V739H207.249ZM220.15 739.143C218.127 739.143 216.785 738.177 216.785 736.459C216.785 735.117 217.734 734.061 220.096 734.061H223.371V733.434C223.371 732.11 222.601 731.52 221.044 731.52C219.684 731.52 218.915 732.039 218.915 733.023C218.915 733.076 218.915 733.22 218.933 733.363H217.089C217.071 733.238 217.054 733.005 217.054 732.844C217.054 731.072 218.593 730.016 221.116 730.016C223.8 730.016 225.375 731.287 225.375 733.613V739H223.371C223.407 738.571 223.46 737.765 223.46 737.049H223.442C223.156 738.356 222.1 739.143 220.15 739.143ZM220.561 737.64C222.297 737.64 223.371 736.799 223.371 735.439V735.278H220.275C219.13 735.278 218.628 735.671 218.628 736.369C218.628 737.175 219.344 737.64 220.561 737.64ZM230.408 739.143C228.386 739.143 227.044 738.177 227.044 736.459C227.044 735.117 227.992 734.061 230.355 734.061H233.629V733.434C233.629 732.11 232.86 731.52 231.303 731.52C229.943 731.52 229.173 732.039 229.173 733.023C229.173 733.076 229.173 733.22 229.191 733.363H227.348C227.33 733.238 227.312 733.005 227.312 732.844C227.312 731.072 228.851 730.016 231.375 730.016C234.059 730.016 235.634 731.287 235.634 733.613V739H233.629C233.665 738.571 233.719 737.765 233.719 737.049H233.701C233.415 738.356 232.359 739.143 230.408 739.143ZM230.82 737.64C232.556 737.64 233.629 736.799 233.629 735.439V735.278H230.533C229.388 735.278 228.887 735.671 228.887 736.369C228.887 737.175 229.603 737.64 230.82 737.64ZM237.607 739V726.598H239.611V739H237.607ZM250.526 739.179C246.625 739.179 245.605 737.121 245.605 734.973H247.537C247.537 736.477 248.253 737.515 250.508 737.515C252.906 737.515 253.514 736.62 253.514 735.653C253.514 735.009 253.246 734.633 252.691 734.437C252.101 734.204 250.83 734.043 249.81 733.9C248.629 733.739 247.376 733.47 246.732 733.059C246.016 732.611 245.569 731.806 245.569 730.696C245.569 728.549 247.412 727.046 250.49 727.046C253.98 727.046 255.25 728.585 255.25 731.269H253.318C253.318 729.533 252.369 728.71 250.526 728.71C248.754 728.71 247.698 729.444 247.698 730.517C247.698 731.18 247.931 731.573 248.396 731.788C248.915 732.039 250.24 732.253 251.26 732.396C252.494 732.593 253.64 732.79 254.373 733.184C255.179 733.595 255.644 734.419 255.644 735.51C255.644 737.407 254.535 739.179 250.526 739.179ZM261.343 739.107C258.927 739.107 257.979 737.801 257.979 735.85V731.788H256.583V730.159H257.71C258.05 730.159 258.176 729.981 258.229 729.479L258.319 728.155H259.983V730.159H263.025V731.788H259.983V735.743C259.983 736.888 260.413 737.461 261.63 737.461C262.131 737.461 262.703 737.371 262.954 737.3V738.893C262.685 738.982 262.077 739.107 261.343 739.107ZM267.493 739.143C265.471 739.143 264.129 738.177 264.129 736.459C264.129 735.117 265.077 734.061 267.439 734.061H270.714V733.434C270.714 732.11 269.945 731.52 268.388 731.52C267.028 731.52 266.258 732.039 266.258 733.023C266.258 733.076 266.258 733.22 266.276 733.363H264.433C264.415 733.238 264.397 733.005 264.397 732.844C264.397 731.072 265.936 730.016 268.459 730.016C271.144 730.016 272.719 731.287 272.719 733.613V739H270.714C270.75 738.571 270.804 737.765 270.804 737.049H270.786C270.5 738.356 269.444 739.143 267.493 739.143ZM267.905 737.64C269.641 737.64 270.714 736.799 270.714 735.439V735.278H267.618C266.473 735.278 265.972 735.671 265.972 736.369C265.972 737.175 266.688 737.64 267.905 737.64ZM278.575 739.107C276.159 739.107 275.21 737.801 275.21 735.85V731.788H273.815V730.159H274.942C275.282 730.159 275.407 729.981 275.461 729.479L275.55 728.155H277.215V730.159H280.257V731.788H277.215V735.743C277.215 736.888 277.644 737.461 278.861 737.461C279.362 737.461 279.935 737.371 280.185 737.3V738.893C279.917 738.982 279.309 739.107 278.575 739.107ZM281.909 729.122V727.153H283.967V729.122H281.909ZM281.927 739V730.159H283.931V739H281.927ZM290.381 739.143C287.571 739.143 285.764 737.407 285.764 734.598C285.764 731.77 287.571 730.016 290.381 730.016C293.209 730.016 295.016 731.77 295.016 734.598C295.016 737.407 293.209 739.143 290.381 739.143ZM290.381 737.497C292.01 737.497 293.012 736.387 293.012 734.598C293.012 732.79 292.01 731.663 290.381 731.663C288.753 731.663 287.768 732.79 287.768 734.598C287.768 736.387 288.753 737.497 290.381 737.497ZM296.728 739V730.159H298.732L298.661 732.522H298.679C299.162 730.929 300.307 730.016 302.365 730.016C304.602 730.016 305.98 731.287 305.98 733.47V739H303.976V733.918C303.976 732.522 303.188 731.734 301.596 731.734C299.842 731.734 298.732 732.79 298.732 734.723V739H296.728Z" fill="#321E64"/>
<path d="M1492.51 348.968L1735.89 776.677" stroke="#787AFF" stroke-width="1.78958" stroke-miterlimit="10" stroke-dasharray="7.16 7.16"/>
<path d="M925.212 -12.5271L1334.13 221.013C1334.13 221.013 1443.3 277.385 1487.14 336.441" stroke="#C8BEFF" stroke-width="23.2645"/>
<circle cx="1028.69" cy="60.8457" r="19.6854" fill="#787AFF"/>
<circle cx="1147.42" cy="472.423" r="30.4228" fill="#E1FF28"/>
<circle cx="235.685" cy="672.882" r="19.6854" fill="#787AFF"/>
<path d="M982.002 104V92.2246H985.438L988.588 101.119H988.624L991.791 92.2246H995.138V104H992.99L993.044 93.9068H993.008L989.411 104H987.622L984.024 93.9068H983.989L984.024 104H982.002ZM1005.67 99.2576V99.9734H999.045C999.152 101.674 1000.1 102.586 1001.6 102.586C1002.89 102.586 1003.77 102.014 1003.86 100.976H1005.67C1005.59 102.944 1003.98 104.143 1001.57 104.143C998.776 104.143 997.022 102.425 997.022 99.6513C997.022 96.788 998.776 95.0163 1001.57 95.0163C1004.07 95.0163 1005.67 96.5017 1005.67 99.2576ZM1003.86 98.7565V98.6313C1003.86 97.307 1003.04 96.5732 1001.59 96.5732C1000.21 96.5732 999.331 97.2891 999.098 98.7565H1003.86ZM1011.35 104.107C1008.93 104.107 1007.98 102.801 1007.98 100.85V96.788H1006.59V95.1595H1007.71C1008.05 95.1595 1008.18 94.9805 1008.23 94.4794L1008.32 93.1551H1009.99V95.1595H1013.03V96.788H1009.99V100.743C1009.99 101.888 1010.42 102.461 1011.63 102.461C1012.13 102.461 1012.71 102.371 1012.96 102.3V103.893C1012.69 103.982 1012.08 104.107 1011.35 104.107ZM1014.63 104V95.1595H1016.63L1016.56 97.7007H1016.58C1016.99 96.108 1017.9 95.0163 1019.73 95.0163C1021.64 95.0163 1022.7 96.269 1022.7 98.4702C1022.7 99.025 1022.64 99.7408 1022.61 100.117H1020.78C1020.82 99.7766 1020.86 99.3292 1020.86 98.9176C1020.86 97.4322 1020.28 96.7343 1019.1 96.7343C1017.58 96.7343 1016.63 98.0228 1016.63 100.135V104H1014.63ZM1028.76 104.143C1025.95 104.143 1024.15 102.407 1024.15 99.5976C1024.15 96.7701 1025.95 95.0163 1028.76 95.0163C1031.59 95.0163 1033.4 96.7701 1033.4 99.5976C1033.4 102.407 1031.59 104.143 1028.76 104.143ZM1028.76 102.497C1030.39 102.497 1031.39 101.387 1031.39 99.5976C1031.39 97.7902 1030.39 96.6627 1028.76 96.6627C1027.13 96.6627 1026.15 97.7902 1026.15 99.5976C1026.15 101.387 1027.13 102.497 1028.76 102.497ZM1035.16 104V91.5982H1037.17V95.6069C1037.17 96.0364 1037.13 97.0564 1037.11 97.5396H1037.13C1037.6 95.929 1038.74 95.0163 1040.82 95.0163C1043.06 95.0163 1044.43 96.2869 1044.43 98.4702V104H1042.43V98.9176C1042.43 97.5217 1041.64 96.7343 1040.05 96.7343C1038.28 96.7343 1037.17 97.826 1037.17 99.8124V104H1035.16ZM1049.46 104.143C1047.44 104.143 1046.1 103.177 1046.1 101.459C1046.1 100.117 1047.04 99.0608 1049.41 99.0608H1052.68V98.4344C1052.68 97.1101 1051.91 96.5196 1050.36 96.5196C1049 96.5196 1048.23 97.0385 1048.23 98.0228C1048.23 98.0765 1048.23 98.2197 1048.24 98.3628H1046.4C1046.38 98.2376 1046.36 98.0049 1046.36 97.8438C1046.36 96.0722 1047.9 95.0163 1050.43 95.0163C1053.11 95.0163 1054.69 96.2869 1054.69 98.6134V104H1052.68C1052.72 103.571 1052.77 102.765 1052.77 102.049H1052.75C1052.47 103.356 1051.41 104.143 1049.46 104.143ZM1049.87 102.64C1051.61 102.64 1052.68 101.799 1052.68 100.439V100.278H1049.59C1048.44 100.278 1047.94 100.671 1047.94 101.369C1047.94 102.175 1048.66 102.64 1049.87 102.64ZM1056.66 104V91.5982H1058.66V104H1056.66ZM1064.68 104.107C1062.27 104.107 1061.32 102.801 1061.32 100.85V96.788H1059.92V95.1595H1061.05C1061.39 95.1595 1061.52 94.9805 1061.57 94.4794L1061.66 93.1551H1063.32V95.1595H1066.37V96.788H1063.32V100.743C1063.32 101.888 1063.75 102.461 1064.97 102.461C1065.47 102.461 1066.04 102.371 1066.3 102.3V103.893C1066.03 103.982 1065.42 104.107 1064.68 104.107ZM1075.99 99.2576V99.9734H1069.37C1069.48 101.674 1070.43 102.586 1071.93 102.586C1073.22 102.586 1074.09 102.014 1074.18 100.976H1075.99C1075.92 102.944 1074.31 104.143 1071.89 104.143C1069.1 104.143 1067.35 102.425 1067.35 99.6513C1067.35 96.788 1069.1 95.0163 1071.89 95.0163C1074.4 95.0163 1075.99 96.5017 1075.99 99.2576ZM1074.18 98.7565V98.6313C1074.18 97.307 1073.36 96.5732 1071.91 96.5732C1070.53 96.5732 1069.66 97.2891 1069.42 98.7565H1074.18ZM971.35 126V114.225H974.572L980.173 123.172H980.209L980.173 114.225H982.195V126H979.654L973.373 116.014H973.355L973.373 126H971.35ZM988.698 126.143C985.889 126.143 984.081 124.407 984.081 121.598C984.081 118.77 985.889 117.016 988.698 117.016C991.526 117.016 993.333 118.77 993.333 121.598C993.333 124.407 991.526 126.143 988.698 126.143ZM988.698 124.497C990.327 124.497 991.329 123.387 991.329 121.598C991.329 119.79 990.327 118.663 988.698 118.663C987.07 118.663 986.085 119.79 986.085 121.598C986.085 123.387 987.07 124.497 988.698 124.497ZM999.394 126.143C996.584 126.143 994.777 124.407 994.777 121.598C994.777 118.77 996.584 117.016 999.394 117.016C1002.22 117.016 1004.03 118.77 1004.03 121.598C1004.03 124.407 1002.22 126.143 999.394 126.143ZM999.394 124.497C1001.02 124.497 1002.02 123.387 1002.02 121.598C1002.02 119.79 1001.02 118.663 999.394 118.663C997.765 118.663 996.781 119.79 996.781 121.598C996.781 123.387 997.765 124.497 999.394 124.497ZM1005.74 126V117.159H1007.74L1007.67 119.701H1007.69C1008.1 118.108 1009.02 117.016 1010.84 117.016C1012.76 117.016 1013.81 118.269 1013.81 120.47C1013.81 121.025 1013.76 121.741 1013.72 122.117H1011.9C1011.93 121.777 1011.97 121.329 1011.97 120.918C1011.97 119.432 1011.4 118.734 1010.21 118.734C1008.69 118.734 1007.74 120.023 1007.74 122.135V126H1005.74ZM1019.43 126.143C1016.87 126.143 1015.26 124.282 1015.26 121.526C1015.26 118.86 1016.92 117.016 1019.55 117.016C1021.22 117.016 1022.26 117.678 1022.61 118.716H1022.63V113.598H1024.64V126H1022.63C1022.67 125.481 1022.69 124.712 1022.72 123.853H1022.69C1022.35 125.248 1021.24 126.143 1019.43 126.143ZM1019.84 124.497C1021.52 124.497 1022.63 123.387 1022.63 121.669V121.24C1022.63 119.665 1021.54 118.663 1019.88 118.663C1018.28 118.663 1017.25 119.844 1017.25 121.526C1017.25 123.28 1018.27 124.497 1019.84 124.497ZM1035.07 121.258V121.973H1028.45C1028.56 123.674 1029.5 124.586 1031.01 124.586C1032.3 124.586 1033.17 124.014 1033.26 122.976H1035.07C1035 124.944 1033.39 126.143 1030.97 126.143C1028.18 126.143 1026.43 124.425 1026.43 121.651C1026.43 118.788 1028.18 117.016 1030.97 117.016C1033.48 117.016 1035.07 118.502 1035.07 121.258ZM1033.26 120.757V120.631C1033.26 119.307 1032.44 118.573 1030.99 118.573C1029.61 118.573 1028.73 119.289 1028.5 120.757H1033.26ZM1036.81 126V117.159H1038.82L1038.75 119.701H1038.76C1039.18 118.108 1040.09 117.016 1041.91 117.016C1043.83 117.016 1044.88 118.269 1044.88 120.47C1044.88 121.025 1044.83 121.741 1044.8 122.117H1042.97C1043.01 121.777 1043.04 121.329 1043.04 120.918C1043.04 119.432 1042.47 118.734 1041.29 118.734C1039.77 118.734 1038.82 120.023 1038.82 122.135V126H1036.81ZM1046.65 129.543V117.159H1048.66L1048.62 119.217H1048.64C1049 117.875 1050.18 117.016 1051.93 117.016C1054.46 117.016 1056.05 118.752 1056.05 121.419C1056.05 124.282 1054.44 126.143 1051.9 126.143C1050.14 126.143 1049 125.356 1048.62 124.21H1048.6C1048.62 124.801 1048.66 125.714 1048.66 126.072V129.543H1046.65ZM1051.5 124.497C1053.04 124.497 1054.04 123.316 1054.04 121.472C1054.04 119.772 1053.06 118.663 1051.47 118.663C1049.8 118.663 1048.69 119.79 1048.66 121.562V122.027C1048.66 123.53 1049.79 124.497 1051.5 124.497ZM1060.44 126.143C1058.42 126.143 1057.08 125.177 1057.08 123.459C1057.08 122.117 1058.03 121.061 1060.39 121.061H1063.67V120.434C1063.67 119.11 1062.9 118.52 1061.34 118.52C1059.98 118.52 1059.21 119.039 1059.21 120.023C1059.21 120.076 1059.21 120.22 1059.23 120.363H1057.38C1057.37 120.238 1057.35 120.005 1057.35 119.844C1057.35 118.072 1058.89 117.016 1061.41 117.016C1064.1 117.016 1065.67 118.287 1065.67 120.613V126H1063.67C1063.7 125.571 1063.76 124.765 1063.76 124.049H1063.74C1063.45 125.356 1062.4 126.143 1060.44 126.143ZM1060.86 124.64C1062.59 124.64 1063.67 123.799 1063.67 122.439V122.278H1060.57C1059.42 122.278 1058.92 122.671 1058.92 123.369C1058.92 124.175 1059.64 124.64 1060.86 124.64ZM1067.59 126V117.159H1069.59L1069.52 119.701H1069.54C1069.95 118.108 1070.86 117.016 1072.69 117.016C1074.6 117.016 1075.66 118.269 1075.66 120.47C1075.66 121.025 1075.61 121.741 1075.57 122.117H1073.75C1073.78 121.777 1073.82 121.329 1073.82 120.918C1073.82 119.432 1073.24 118.734 1072.06 118.734C1070.54 118.734 1069.59 120.023 1069.59 122.135V126H1067.59ZM1077.43 126V113.598H1079.43V121.794H1079.45L1084.21 117.159H1086.81L1082.67 121.007L1087.04 126H1084.32L1081.21 122.278L1079.43 123.906V126H1077.43Z" fill="#321E64"/>
<path d="M1100.1 432.179C1096.69 432.179 1094 429.87 1094 426.059C1094 422.318 1096.69 420.046 1100.1 420.046C1103.54 420.046 1106.22 422.318 1106.22 426.059C1106.22 429.87 1103.54 432.179 1100.1 432.179ZM1100.1 430.389C1102.29 430.389 1104.04 428.761 1104.04 426.059C1104.04 423.428 1102.29 421.835 1100.1 421.835C1097.94 421.835 1096.19 423.428 1096.19 426.059C1096.19 428.761 1097.94 430.389 1100.1 430.389ZM1107.95 432V423.159H1109.96L1109.89 425.522H1109.91C1110.39 423.929 1111.53 423.016 1113.59 423.016C1115.83 423.016 1117.21 424.287 1117.21 426.47V432H1115.2V426.918C1115.2 425.522 1114.41 424.734 1112.82 424.734C1111.07 424.734 1109.96 425.79 1109.96 427.723V432H1107.95ZM1122.99 432.143C1119.95 432.143 1118.85 430.783 1118.85 429.047H1120.66C1120.66 430.067 1121.25 430.694 1122.97 430.694C1124.6 430.694 1125.31 430.193 1125.31 429.387C1125.31 429.047 1125.19 428.743 1124.72 428.582C1124.29 428.421 1123.45 428.331 1122.47 428.242C1121.09 428.117 1120.16 427.938 1119.62 427.544C1119.14 427.186 1118.85 426.542 1118.85 425.862C1118.85 424.09 1120.57 423.016 1122.97 423.016C1125.73 423.016 1126.94 424.162 1126.94 426.166H1125.13C1125.12 425.021 1124.49 424.466 1123.02 424.466C1121.63 424.466 1120.84 424.967 1120.84 425.719C1120.84 426.094 1120.93 426.452 1121.45 426.631C1121.88 426.774 1122.72 426.864 1123.79 426.971C1125.05 427.097 1125.76 427.222 1126.39 427.58C1126.98 427.902 1127.32 428.582 1127.32 429.298C1127.32 431.087 1125.81 432.143 1122.99 432.143ZM1133.23 432V419.598H1135.23V427.794H1135.25L1140.01 423.159H1142.6L1138.47 427.007L1142.84 432H1140.12L1137 428.278L1135.23 429.906V432H1133.23ZM1146.96 432.143C1144.94 432.143 1143.6 431.177 1143.6 429.459C1143.6 428.117 1144.55 427.061 1146.91 427.061H1150.19V426.434C1150.19 425.11 1149.42 424.52 1147.86 424.52C1146.5 424.52 1145.73 425.039 1145.73 426.023C1145.73 426.076 1145.73 426.22 1145.75 426.363H1143.9C1143.89 426.238 1143.87 426.005 1143.87 425.844C1143.87 424.072 1145.41 423.016 1147.93 423.016C1150.62 423.016 1152.19 424.287 1152.19 426.613V432H1150.19C1150.22 431.571 1150.28 430.765 1150.28 430.049H1150.26C1149.97 431.356 1148.92 432.143 1146.96 432.143ZM1147.38 430.64C1149.11 430.64 1150.19 429.799 1150.19 428.439V428.278H1147.09C1145.94 428.278 1145.44 428.671 1145.44 429.369C1145.44 430.175 1146.16 430.64 1147.38 430.64ZM1154.11 432V423.159H1156.11L1156.04 425.522H1156.06C1156.54 423.929 1157.69 423.016 1159.75 423.016C1161.98 423.016 1163.36 424.287 1163.36 426.47V432H1161.36V426.918C1161.36 425.522 1160.57 424.734 1158.98 424.734C1157.22 424.734 1156.11 425.79 1156.11 427.723V432H1154.11ZM1169.21 432.107C1166.8 432.107 1165.85 430.801 1165.85 428.85V424.788H1164.45V423.159H1165.58C1165.92 423.159 1166.05 422.981 1166.1 422.479L1166.19 421.155H1167.85V423.159H1170.9V424.788H1167.85V428.743C1167.85 429.888 1168.28 430.461 1169.5 430.461C1170 430.461 1170.57 430.371 1170.82 430.3V431.893C1170.56 431.982 1169.95 432.107 1169.21 432.107ZM1176.49 432.143C1173.68 432.143 1171.88 430.407 1171.88 427.598C1171.88 424.77 1173.68 423.016 1176.49 423.016C1179.32 423.016 1181.13 424.77 1181.13 427.598C1181.13 430.407 1179.32 432.143 1176.49 432.143ZM1176.49 430.497C1178.12 430.497 1179.12 429.387 1179.12 427.598C1179.12 425.79 1178.12 424.663 1176.49 424.663C1174.87 424.663 1173.88 425.79 1173.88 427.598C1173.88 429.387 1174.87 430.497 1176.49 430.497ZM1187.19 432.143C1184.38 432.143 1182.57 430.407 1182.57 427.598C1182.57 424.77 1184.38 423.016 1187.19 423.016C1190.02 423.016 1191.82 424.77 1191.82 427.598C1191.82 430.407 1190.02 432.143 1187.19 432.143ZM1187.19 430.497C1188.82 430.497 1189.82 429.387 1189.82 427.598C1189.82 425.79 1188.82 424.663 1187.19 424.663C1185.56 424.663 1184.58 425.79 1184.58 427.598C1184.58 429.387 1185.56 430.497 1187.19 430.497ZM1193.54 432V423.159H1195.54L1195.47 425.701H1195.49C1195.9 424.108 1196.81 423.016 1198.64 423.016C1200.55 423.016 1201.61 424.269 1201.61 426.47C1201.61 427.025 1201.55 427.741 1201.52 428.117H1199.69C1199.73 427.777 1199.76 427.329 1199.76 426.918C1199.76 425.432 1199.19 424.734 1198.01 424.734C1196.49 424.734 1195.54 426.023 1195.54 428.135V432H1193.54Z" fill="#321E64"/>
<path d="M1147.43 276.539L1147.63 277.928L1150.53 277.508C1151.91 277.31 1152.77 277.969 1152.95 279.196C1153.11 280.3 1152.64 280.924 1151.68 281.064L1148.16 281.573L1148.36 282.961L1152.19 282.408C1153.7 282.189 1154.44 281.107 1154.22 279.558C1154.01 278.119 1153.26 277.417 1152.1 277.256L1152.1 277.244C1152.44 277.208 1153.15 277.13 1153.44 277.087L1156.22 276.686L1156.02 275.298L1147.43 276.539ZM1148.76 286.459C1148.96 287.81 1149.61 288.463 1150.54 288.53L1150.54 288.543C1150.05 288.614 1149.48 288.658 1149.18 288.676L1149.38 290.065L1153.11 289.526C1154.73 289.293 1155.45 288.074 1155.18 286.215C1154.93 284.466 1154.04 283.506 1152.81 283.683C1152.7 283.699 1152.54 283.735 1152.46 283.76L1152.64 285.037C1152.74 285.01 1152.84 284.996 1152.88 284.991C1153.56 284.892 1154 285.373 1154.13 286.316C1154.29 287.394 1153.96 287.986 1153.04 288.119L1152.6 288.182L1152.28 285.913C1152.04 284.276 1151.21 283.725 1150.28 283.859C1149.09 284.031 1148.56 285.058 1148.76 286.459ZM1149.84 286.593C1149.72 285.75 1149.97 285.208 1150.53 285.127C1151.01 285.057 1151.34 285.365 1151.45 286.159L1151.76 288.303L1151.65 288.32C1150.71 288.456 1150.02 287.796 1149.84 286.593ZM1149.57 291.394L1149.78 292.783L1152.76 292.351C1154.08 292.161 1154.9 292.688 1155.04 293.63C1155.16 294.461 1154.68 294.998 1153.81 295.124L1150.19 295.647L1150.39 297.036L1153.43 296.597C1154.7 296.412 1155.51 296.928 1155.65 297.895C1155.77 298.726 1155.29 299.239 1154.4 299.368L1150.8 299.887L1151 301.276L1154.91 300.712C1156.35 300.504 1157.11 299.595 1156.92 298.232C1156.75 297.066 1156.02 296.412 1155 296.332L1154.99 296.32C1155.97 296.028 1156.47 295.169 1156.3 293.979C1156.14 292.863 1155.38 292.214 1154.28 292.094L1154.28 292.081L1155.9 291.898L1155.7 290.509L1149.57 291.394ZM1155.32 307.934C1157.23 307.658 1158.1 306.406 1157.85 304.67C1157.57 302.736 1156.16 301.698 1154.18 301.985C1152.26 302.262 1151.24 303.649 1151.52 305.584C1151.77 307.257 1152.76 308.253 1154.13 308.106L1153.95 306.854C1153.22 306.895 1152.73 306.345 1152.61 305.453C1152.46 304.411 1152.99 303.663 1154.16 303.418L1154.82 308.005L1155.32 307.934ZM1155.48 306.631L1155.01 303.333C1156.05 303.348 1156.63 303.884 1156.77 304.838C1156.91 305.843 1156.49 306.486 1155.57 306.619L1155.48 306.631ZM1152.21 309.616L1152.41 311.005L1155.09 310.618C1156.55 310.407 1157.54 310.935 1157.69 311.989C1157.81 312.807 1157.38 313.274 1156.35 313.422C1156.07 313.464 1155.75 313.484 1155.51 313.493L1155.7 314.757C1155.96 314.745 1156.46 314.71 1156.85 314.655C1158.37 314.434 1159.13 313.577 1158.94 312.251C1158.76 310.986 1157.91 310.463 1156.77 310.337L1156.77 310.325L1158.53 310.12L1158.33 308.732L1152.21 309.616ZM1153.47 319.089C1153.76 321.048 1154.64 321.984 1155.88 321.805C1156.38 321.733 1156.81 321.429 1156.98 320.988C1157.16 320.518 1157.18 320.01 1157.14 319.129C1157.11 318.375 1157.08 317.783 1157.14 317.471C1157.21 317.094 1157.45 316.996 1157.71 316.958C1158.23 316.883 1158.66 317.378 1158.8 318.345C1158.94 319.362 1158.62 319.852 1157.83 319.979L1158.01 321.231C1159.4 321.03 1160.07 320.073 1159.8 318.163C1159.56 316.502 1158.64 315.419 1157.41 315.596C1156.94 315.664 1156.52 315.927 1156.32 316.298C1156.11 316.709 1156.07 317.372 1156.13 318.339C1156.16 319.03 1156.18 319.622 1156.12 319.935C1156.05 320.274 1155.85 320.391 1155.62 320.425C1155.06 320.506 1154.64 320.06 1154.48 318.932C1154.31 317.741 1154.68 317.27 1155.39 317.167L1155.21 315.915C1154 316.089 1153.17 316.981 1153.47 319.089ZM1154.5 326.012C1154.57 326.521 1154.72 326.93 1154.81 327.107L1155.91 326.947C1155.84 326.781 1155.72 326.393 1155.67 326.046C1155.55 325.203 1155.9 324.848 1156.7 324.733L1159.44 324.337L1159.74 326.445L1160.87 326.282L1160.56 324.174L1161.95 323.974L1161.79 322.821L1160.86 322.891C1160.51 322.904 1160.37 322.835 1160.34 322.6L1160.22 321.819L1159.09 321.982L1159.23 322.949L1156.42 323.355C1155.07 323.551 1154.26 324.339 1154.5 326.012ZM1154.9 328.274L1155.1 329.663L1157.78 329.276C1159.24 329.065 1160.23 329.593 1160.38 330.647C1160.5 331.465 1160.08 331.932 1159.05 332.08C1158.76 332.122 1158.45 332.142 1158.21 332.151L1158.39 333.415C1158.66 333.403 1159.16 333.368 1159.54 333.313C1161.07 333.092 1161.83 332.235 1161.64 330.909C1161.45 329.644 1160.61 329.121 1159.46 328.995L1159.46 328.983L1161.23 328.778L1161.03 327.39L1154.9 328.274ZM1156.1 337.226C1156.29 338.578 1156.94 339.231 1157.88 339.298L1157.88 339.311C1157.38 339.382 1156.82 339.426 1156.52 339.444L1156.72 340.832L1160.45 340.293C1162.06 340.06 1162.78 338.842 1162.52 336.982C1162.26 335.234 1161.38 334.274 1160.15 334.451C1160.04 334.467 1159.88 334.503 1159.79 334.528L1159.98 335.805C1160.08 335.778 1160.17 335.764 1160.21 335.758C1160.89 335.66 1161.33 336.141 1161.47 337.083C1161.62 338.162 1161.29 338.754 1160.37 338.887L1159.94 338.949L1159.61 336.681C1159.37 335.044 1158.55 334.493 1157.62 334.627C1156.43 334.799 1155.89 335.825 1156.1 337.226ZM1157.18 337.361C1157.06 336.518 1157.31 335.976 1157.86 335.895C1158.35 335.825 1158.67 336.133 1158.79 336.926L1159.1 339.071L1158.98 339.087C1158.04 339.223 1157.35 338.564 1157.18 337.361ZM1157.12 344.334C1157.32 345.685 1157.97 346.338 1158.9 346.405L1158.9 346.418C1158.41 346.489 1157.84 346.533 1157.54 346.551L1157.74 347.94L1161.48 347.401C1163.09 347.168 1163.81 345.949 1163.54 344.09C1163.29 342.342 1162.4 341.381 1161.18 341.558C1161.06 341.574 1160.91 341.61 1160.82 341.635L1161 342.912C1161.1 342.885 1161.2 342.871 1161.24 342.866C1161.92 342.767 1162.36 343.248 1162.49 344.191C1162.65 345.269 1162.32 345.861 1161.4 345.994L1160.97 346.057L1160.64 343.788C1160.4 342.151 1159.57 341.6 1158.64 341.734C1157.45 341.906 1156.92 342.933 1157.12 344.334ZM1158.2 344.468C1158.08 343.625 1158.33 343.083 1158.89 343.002C1159.37 342.932 1159.7 343.24 1159.81 344.034L1160.12 346.178L1160.01 346.195C1159.07 346.331 1158.38 345.671 1158.2 344.468ZM1158.26 352.008C1158.33 352.516 1158.48 352.925 1158.57 353.102L1159.67 352.943C1159.59 352.776 1159.48 352.388 1159.43 352.041C1159.3 351.198 1159.66 350.843 1160.45 350.729L1163.19 350.333L1163.5 352.441L1164.62 352.277L1164.32 350.17L1165.71 349.969L1165.54 348.816L1164.61 348.887C1164.26 348.9 1164.13 348.831 1164.09 348.595L1163.98 347.814L1162.85 347.977L1162.99 348.944L1160.18 349.351C1158.82 349.546 1158.01 350.334 1158.26 352.008Z" fill="#5550A0"/>
<path d="M1134.85 492.567V459.131H1140.26L1140.17 464.687H1140.21C1141.18 461.063 1144.37 458.744 1149.1 458.744C1155.92 458.744 1160.22 463.431 1160.22 470.63C1160.22 478.361 1155.87 483.387 1149.01 483.387C1144.27 483.387 1141.18 481.261 1140.17 478.168H1140.12C1140.17 479.763 1140.26 482.227 1140.26 483.193V492.567H1134.85ZM1147.95 478.941C1152.1 478.941 1154.81 475.752 1154.81 470.775C1154.81 466.185 1152.15 463.189 1147.85 463.189C1143.35 463.189 1140.36 466.233 1140.26 471.017V472.273C1140.26 476.332 1143.31 478.941 1147.95 478.941Z" fill="#321E64"/>
<path d="M1145.95 118.409C1147.96 119.567 1149.83 118.991 1151.21 116.584L1153.89 111.945L1152.4 111.087L1149.67 115.826C1148.77 117.389 1147.69 117.761 1146.61 117.14C1145.53 116.518 1145.38 115.47 1146.06 114.279C1146.31 113.845 1146.6 113.38 1146.78 113.102L1145.45 112.337C1145.27 112.616 1144.95 113.122 1144.7 113.544C1143.57 115.516 1143.98 117.272 1145.95 118.409ZM1153.59 122.776C1155.55 123.905 1157.49 123.423 1158.61 121.476C1159.74 119.516 1159.19 117.578 1157.23 116.449C1155.28 115.327 1153.33 115.821 1152.2 117.781C1151.08 119.728 1151.64 121.653 1153.59 122.776ZM1154.24 121.634C1153.11 120.984 1152.87 119.822 1153.59 118.581C1154.31 117.328 1155.44 116.94 1156.57 117.59C1157.7 118.241 1157.95 119.422 1157.22 120.675C1156.51 121.916 1155.37 122.285 1154.24 121.634ZM1158.08 125.233L1159.47 126.033L1161.14 123.13C1161.93 121.753 1163.14 121.44 1164.37 122.147C1165.47 122.783 1165.7 123.644 1165.15 124.611L1163.12 128.134L1164.5 128.935L1166.71 125.102C1167.59 123.588 1167.14 122.157 1165.59 121.264C1164.15 120.435 1162.99 120.61 1162.02 121.541L1162.01 121.533C1162.22 121.206 1162.65 120.513 1162.82 120.215L1164.42 117.436L1163.03 116.636L1158.08 125.233ZM1167.93 131.042C1169.28 131.821 1170.33 131.697 1171.05 130.906L1171.06 130.913C1170.78 131.409 1170.42 131.946 1170.22 132.229L1171.61 133.03L1173.76 129.296C1174.69 127.683 1174.11 126.173 1172.25 125.101C1170.5 124.094 1169.01 124.211 1168.3 125.439C1168.24 125.551 1168.16 125.719 1168.12 125.813L1169.4 126.549C1169.44 126.443 1169.5 126.343 1169.52 126.306C1169.91 125.624 1170.65 125.572 1171.6 126.115C1172.68 126.737 1172.97 127.453 1172.45 128.371L1172.2 128.805L1169.93 127.497C1168.29 126.554 1167.21 126.907 1166.67 127.837C1165.99 129.028 1166.53 130.234 1167.93 131.042ZM1168.82 130.164C1167.97 129.678 1167.66 129.07 1167.99 128.512C1168.26 128.028 1168.77 127.955 1169.56 128.412L1171.71 129.649L1171.64 129.761C1171.1 130.703 1170.02 130.858 1168.82 130.164ZM1172.94 133.796L1174.33 134.597L1176.04 131.632C1176.81 130.292 1178 130.003 1179.22 130.704C1180.32 131.34 1180.55 132.2 1180 133.168L1177.97 136.691L1179.36 137.491L1181.56 133.658C1182.44 132.145 1181.99 130.714 1180.44 129.82C1179.01 128.998 1177.85 129.174 1176.88 130.085L1176.87 130.077L1177.86 128.469L1176.47 127.668L1172.94 133.796ZM1185.78 141.19L1187.43 142.14L1193.61 137.542L1192.16 136.706L1187.43 140.409L1187.41 140.395L1188.26 134.461L1186.64 133.525L1185.78 141.19ZM1192.84 145.392C1194.19 146.171 1195.24 146.047 1195.96 145.256L1195.97 145.263C1195.68 145.759 1195.33 146.296 1195.13 146.579L1196.52 147.38L1198.67 143.646C1199.6 142.033 1199.02 140.524 1197.15 139.452C1195.41 138.444 1193.92 138.561 1193.21 139.789C1193.14 139.901 1193.06 140.069 1193.03 140.163L1194.3 140.899C1194.35 140.793 1194.41 140.694 1194.43 140.657C1194.82 139.974 1195.56 139.922 1196.5 140.465C1197.58 141.087 1197.88 141.804 1197.35 142.722L1197.1 143.156L1194.83 141.848C1193.19 140.904 1192.12 141.257 1191.58 142.188C1190.89 143.379 1191.44 144.585 1192.84 145.392ZM1193.73 144.515C1192.88 144.029 1192.57 143.42 1192.89 142.862C1193.17 142.378 1193.68 142.305 1194.47 142.763L1196.62 143.999L1196.55 144.111C1196.01 145.054 1194.93 145.208 1193.73 144.515ZM1197.85 148.146L1199.24 148.947L1200.95 145.982C1201.72 144.642 1202.91 144.354 1204.13 145.054C1205.23 145.69 1205.46 146.551 1204.9 147.518L1202.87 151.041L1204.26 151.842L1206.47 148.008C1207.34 146.495 1206.9 145.064 1205.34 144.171C1203.92 143.349 1202.76 143.524 1201.79 144.435L1201.78 144.428L1202.77 142.819L1201.38 142.018L1197.85 148.146ZM1208.55 154.311L1210.04 155.169L1212.13 151.534L1216.47 154.035L1214.38 157.67L1215.85 158.521L1220.56 150.358L1219.08 149.508L1217.16 152.845L1212.82 150.343L1214.74 147.006L1213.25 146.148L1208.55 154.311ZM1219.45 160.727C1220.81 161.506 1221.85 161.382 1222.57 160.59L1222.59 160.598C1222.3 161.094 1221.94 161.631 1221.74 161.914L1223.13 162.714L1225.29 158.981C1226.21 157.368 1225.63 155.858 1223.77 154.786C1222.02 153.778 1220.53 153.896 1219.82 155.124C1219.76 155.235 1219.68 155.404 1219.64 155.498L1220.92 156.234C1220.96 156.127 1221.02 156.028 1221.04 155.991C1221.44 155.309 1222.18 155.256 1223.12 155.8C1224.2 156.421 1224.5 157.138 1223.97 158.056L1223.72 158.49L1221.45 157.182C1219.81 156.239 1218.73 156.592 1218.19 157.522C1217.51 158.713 1218.05 159.919 1219.45 160.727ZM1220.34 159.849C1219.5 159.363 1219.19 158.755 1219.51 158.196C1219.79 157.713 1220.29 157.64 1221.08 158.097L1223.23 159.334L1223.17 159.445C1222.62 160.388 1221.54 160.542 1220.34 159.849ZM1227.09 165.124C1229.05 166.253 1230.51 166.122 1231.22 164.881C1231.51 164.385 1231.55 163.778 1231.27 163.319C1230.97 162.82 1230.53 162.448 1229.71 161.861C1229.01 161.357 1228.46 160.959 1228.22 160.689C1227.93 160.357 1228.01 160.073 1228.16 159.813C1228.46 159.292 1229.21 159.259 1230.18 159.817C1231.19 160.403 1231.41 161.037 1230.96 161.838L1232.22 162.56C1233.02 161.171 1232.63 159.891 1230.72 158.79C1229.06 157.833 1227.44 157.891 1226.73 159.119C1226.46 159.59 1226.4 160.151 1226.59 160.592C1226.81 161.08 1227.38 161.575 1228.28 162.212C1228.93 162.668 1229.48 163.065 1229.71 163.349C1229.97 163.646 1229.94 163.907 1229.8 164.143C1229.48 164.701 1228.78 164.762 1227.65 164.112C1226.46 163.426 1226.3 162.756 1226.71 162.049L1225.46 161.327C1224.76 162.53 1224.98 163.909 1227.09 165.124ZM1233.97 169.088C1235.93 170.218 1237.39 170.086 1238.11 168.846C1238.39 168.35 1238.43 167.742 1238.15 167.283C1237.86 166.785 1237.41 166.412 1236.59 165.825C1235.89 165.322 1235.34 164.924 1235.1 164.653C1234.81 164.322 1234.89 164.038 1235.04 163.777C1235.34 163.256 1236.09 163.224 1237.06 163.781C1238.08 164.367 1238.29 165.002 1237.84 165.803L1239.1 166.525C1239.9 165.135 1239.51 163.855 1237.6 162.755C1235.94 161.797 1234.32 161.855 1233.61 163.083C1233.34 163.555 1233.28 164.116 1233.47 164.557C1233.69 165.044 1234.26 165.54 1235.17 166.177C1235.81 166.632 1236.36 167.03 1236.59 167.313C1236.85 167.611 1236.82 167.872 1236.68 168.107C1236.36 168.665 1235.66 168.727 1234.53 168.077C1233.34 167.39 1233.18 166.72 1233.59 166.013L1232.34 165.291C1231.64 166.495 1231.86 167.873 1233.97 169.088ZM1245.93 171.467C1247.03 169.557 1246.52 167.891 1244.78 166.891C1242.84 165.776 1240.92 166.303 1239.78 168.288C1238.67 170.211 1239.2 172.102 1241.13 173.217C1242.81 174.182 1244.4 173.994 1245.24 172.658L1243.99 171.937C1243.51 172.62 1242.67 172.667 1241.78 172.152C1240.74 171.552 1240.45 170.541 1241.05 169.319L1245.64 171.964L1245.93 171.467ZM1244.87 170.398L1241.57 168.497C1242.32 167.573 1243.21 167.427 1244.17 167.977C1245.17 168.556 1245.45 169.393 1244.92 170.311L1244.87 170.398ZM1245.28 175.473L1246.67 176.273L1251.62 167.676L1250.23 166.876L1245.28 175.473ZM1250.8 178.752C1251.31 179.045 1251.78 179.201 1252 179.247L1252.64 178.143C1252.43 178.092 1252 177.925 1251.65 177.725C1250.81 177.239 1250.74 176.671 1251.2 175.877L1252.78 173.135L1254.89 174.35L1255.54 173.222L1253.43 172.007L1254.23 170.617L1253.07 169.952L1252.48 170.835C1252.25 171.161 1252.09 171.235 1251.85 171.099L1251.07 170.649L1250.42 171.777L1251.39 172.335L1249.77 175.151C1248.99 176.503 1249.12 177.787 1250.8 178.752ZM1254.45 180.76L1256.1 181.71L1260.08 178.001L1260.11 178.022L1258.85 183.29L1260.56 184.276L1265.86 179.17L1264.55 178.413L1260.53 182.408L1260.5 182.394L1261.81 176.833L1260.43 176.04L1256.23 179.935L1256.21 179.921L1257.69 174.46L1256.21 173.61L1254.45 180.76ZM1270.77 185.783C1271.87 183.873 1271.36 182.207 1269.62 181.206C1267.69 180.091 1265.77 180.619 1264.62 182.604C1263.52 184.526 1264.04 186.418 1265.98 187.533C1267.65 188.498 1269.25 188.31 1270.09 186.974L1268.83 186.252C1268.36 186.936 1267.52 186.982 1266.63 186.468C1265.58 185.867 1265.29 184.856 1265.9 183.635L1270.49 186.279L1270.77 185.783ZM1269.72 184.714L1266.42 182.813C1267.17 181.888 1268.06 181.742 1269.02 182.293C1270.02 182.872 1270.3 183.709 1269.77 184.627L1269.72 184.714ZM1274.83 191.209L1272.84 190.065C1272.39 189.808 1272.27 189.454 1272.47 189.107C1272.59 188.896 1272.76 188.765 1272.89 188.721C1273.16 188.994 1273.49 189.251 1273.89 189.479C1275.58 190.451 1277.1 190.221 1277.88 188.868C1278.14 188.409 1278.25 187.929 1278.2 187.47C1278.26 187.192 1278.32 186.945 1278.42 186.771C1278.62 186.436 1278.91 186.377 1279.32 186.613C1279.5 186.713 1279.62 186.816 1279.7 186.911L1280.26 185.931C1280.14 185.808 1279.98 185.683 1279.68 185.511C1278.95 185.09 1278.3 185.128 1278.01 185.625C1277.86 185.885 1277.84 186.185 1277.91 186.491L1277.89 186.496C1277.59 185.978 1277.1 185.513 1276.4 185.113C1274.72 184.141 1273.19 184.384 1272.42 185.724C1271.97 186.493 1271.96 187.294 1272.35 188.016L1272.34 188.041C1271.91 188.009 1271.47 188.233 1271.17 188.754C1270.92 189.188 1270.91 189.63 1271.12 190.066L1271.12 190.078C1270.36 189.694 1269.64 189.889 1269.28 190.509C1268.64 191.613 1269.52 192.96 1271.59 194.154C1273.61 195.319 1275.26 195.243 1276 193.953C1276.57 192.973 1276.14 191.966 1274.83 191.209ZM1275.83 186.105C1276.7 186.605 1276.97 187.372 1276.55 188.104C1276.13 188.836 1275.33 188.987 1274.46 188.487C1273.59 187.987 1273.32 187.22 1273.75 186.488C1274.17 185.756 1274.96 185.605 1275.83 186.105ZM1272.14 193.167C1270.97 192.488 1270.39 191.773 1270.72 191.19C1270.99 190.719 1271.56 190.765 1272.26 191.166L1273.92 192.123C1274.58 192.502 1274.76 192.904 1274.52 193.314C1274.21 193.859 1273.45 193.917 1272.14 193.167Z" fill="#5550A0"/>
</g>
<defs>
<clipPath id="clip0_0_3">
<rect width="1624.94" height="893" fill="white"/>
</clipPath>
</defs>
</svg>